<svg width="359" height="192" viewBox="0 0 359 192" fill="none" xmlns="http://www.w3.org/2000/svg">
<mask id="mask0_820_146" style="mask-type:luminance" maskUnits="userSpaceOnUse" x="278" y="9" width="81" height="83">
<path d="M278.461 9.01685H358.44V91.9856H278.461V9.01685Z" fill="white"/>
</mask>
<g mask="url(#mask0_820_146)">
<path fill-rule="evenodd" clip-rule="evenodd" d="M353.472 57.1054C353.576 56.6523 353.68 56.1991 353.768 55.7408C353.961 55.4491 354.133 54.8554 354.3 54.4231C354.367 53.97 354.102 53.9283 354.268 53.5168C354.263 53.0637 354.492 52.8606 354.43 53.2564C354.498 53.1575 354.539 52.871 354.612 52.7877C354.675 52.2929 354.716 51.8241 354.685 51.6158C354.591 52.0064 354.524 52.7096 354.347 52.5533C354.383 52.22 354.414 51.8918 354.44 51.5585C354.581 50.9543 354.68 51.871 354.742 50.8137C354.8 50.2877 354.685 50.5898 354.638 50.4908C354.591 50.4023 354.581 50.22 354.529 50.1679C354.544 49.9335 354.534 49.8241 354.503 49.7981C354.487 48.7564 354.638 48.5429 354.591 47.5637C354.768 47.3554 354.722 48.5585 354.852 48.5898C355.008 48.8189 354.961 48.0221 354.94 47.4908C354.93 47.4648 354.914 47.4387 354.904 47.4127C354.576 45.97 354.43 45.2304 354.008 44.1418C354.039 44.0637 353.93 43.7564 353.867 43.5221C354.008 43.5481 353.753 42.9179 353.893 42.9439C354.029 43.1262 354.232 43.9491 354.362 44.1887C354.367 44.0481 354.383 43.9387 354.367 43.7408C354.294 43.1575 354.201 43.2148 354.117 42.6314C354.138 42.6314 354.138 42.5741 354.128 42.4908C354.065 42.3189 354.06 42.2304 354.07 42.1731C354.039 42.0273 354.013 41.8814 354.013 41.8189C354.013 41.7148 354.013 41.6575 354.003 41.6002C353.94 41.3762 353.873 41.1471 353.841 40.9856C353.847 40.9856 353.847 40.9804 353.847 40.9804L353.737 40.5221C353.753 40.7148 353.763 40.9231 353.685 40.9179C353.68 41.22 353.925 41.371 353.945 41.7252C353.784 41.5533 353.56 41.0689 353.367 40.7825C353.112 40.2096 353.102 39.9856 352.945 39.5689C352.68 39.0585 352.987 39.9179 352.815 39.7825C352.701 39.5429 352.633 39.5741 352.513 39.3085C352.347 38.9543 352.315 39.1627 352.154 38.9283C352.013 38.7148 351.81 38.121 351.753 38.2877C351.518 37.5689 350.945 36.9335 350.977 36.5533C350.784 36.2825 350.633 36.1471 350.409 35.8137C350.039 35.1679 349.711 34.595 349.503 34.1471C349.242 33.7252 349.227 33.871 348.914 33.3658C348.914 33.1106 348.57 32.5741 348.716 32.4543C348.222 31.7668 347.909 31.47 347.56 31.1106C347.404 30.9231 347.331 30.8971 347.268 30.8866C347.737 31.5689 348.19 32.2616 348.607 32.9804C352.701 39.9075 354.294 48.0898 353.305 55.8033C353.076 56.4856 353.201 55.8346 352.972 55.996C352.852 56.8189 353.169 56.2512 353.097 56.9023C352.909 58.1418 352.638 59.4283 352.289 60.7252C352.305 60.6887 352.32 60.6523 352.331 60.6158C352.695 59.6158 352.998 58.6523 353.274 57.8762C353.388 57.6366 353.498 57.6002 353.607 57.5846C353.748 57.0064 353.445 57.4127 353.472 57.1054ZM353.508 65.7356L353.357 65.7616C353.206 65.9908 353.034 66.2929 352.82 66.7356C352.893 66.7148 352.883 66.8085 352.873 66.9023C353.091 66.595 353.419 66.1262 353.508 65.7356ZM305.07 86.2252C304.826 86.1314 304.669 86.0533 304.524 85.97C304.466 86.0846 305.044 86.3346 305.07 86.2252ZM301.539 84.5377C301.539 84.5325 301.539 84.5325 301.539 84.5325C300.69 84.2356 300.638 84.0637 300.216 83.7825C300.112 83.72 300.159 83.5846 299.847 83.4231C299.669 83.4231 299.326 83.3033 299.3 83.47C299.263 83.6366 299.847 84.1366 299.623 84.2564C300.154 84.5898 299.862 84.3085 300.393 84.6314C299.94 84.0793 299.794 83.8033 300.169 83.7512C300.878 84.2512 301.117 84.2721 301.539 84.5377ZM287.149 75.9127C286.966 75.9439 287.466 76.5481 287.737 76.9335C287.8 76.8033 287.445 76.3502 287.149 75.9127ZM280.086 41.0429C280.091 41.5481 280.175 41.8241 280.294 41.9804C280.419 41.5325 280.555 41.0637 280.701 40.595C280.664 40.5377 280.633 40.4648 280.597 40.3971C280.555 40.0793 280.393 40.845 280.357 40.9023C280.263 41.0273 280.253 40.496 280.086 41.0429ZM301.93 16.7408C301.805 16.7981 301.669 16.871 301.534 16.9491C301.675 16.8814 301.815 16.8189 301.956 16.7512C301.951 16.746 301.94 16.7356 301.93 16.7408ZM302.305 16.5741C302.268 16.5898 302.195 16.6314 302.128 16.6731C302.195 16.6471 302.263 16.6158 302.326 16.5846C302.32 16.5741 302.315 16.5689 302.305 16.5741ZM302.654 16.4439C302.847 16.3658 303.034 16.2825 303.227 16.2043C303.284 16.1679 303.341 16.1262 303.44 16.0793C303.623 15.9908 303.831 15.8971 304.044 15.8137L303.524 15.97C303.367 16.0168 302.966 16.2721 302.654 16.4439ZM304.612 15.1262C304.852 15.0168 305.018 14.9648 305.18 14.9179C305.138 14.7929 304.555 15.0273 304.612 15.1262ZM307.904 14.5116C307.701 14.5637 307.498 14.6314 307.289 14.7043C307.414 14.6679 307.534 14.6314 307.649 14.595C307.852 14.6158 307.919 14.6262 307.919 14.6523C308.487 14.5064 309.06 14.3762 309.638 14.2616C310.097 14.1106 309.966 14.0064 310.69 13.8502C311.06 13.8971 311.815 13.6679 312.945 13.5064C313.695 13.4023 314.492 13.3293 315.367 13.1991C315.44 13.3085 315.711 13.4335 315.425 13.5221C315.419 13.5273 315.425 13.5325 315.425 13.5429C315.961 13.5168 316.487 13.5064 317.018 13.5064C317.081 13.4648 317.154 13.4231 317.18 13.3866C317.565 13.2981 317.466 13.3762 318.06 13.3502C318.623 13.3293 318.294 13.1887 318.565 13.1314C319.248 13.0846 319.102 13.2304 319.544 13.246C320.331 13.2825 320.44 13.2148 320.81 13.1887C321.628 13.2877 321.961 13.2043 322.638 13.371C323.352 13.3398 323.987 13.5273 324.82 13.5637C324.852 13.6054 325.107 13.6366 325.284 13.6731C325.685 13.8346 325.883 14.0064 326.352 14.1731C326.977 14.2668 327.461 14.4127 327.867 14.47C328.289 14.5377 328.102 14.3814 328.664 14.5273L328.727 14.6679C329.211 14.7564 329.237 14.6471 329.722 14.746C330.784 15.0012 331.393 15.2616 332.289 15.5585C332.503 15.7252 332.888 15.9179 332.82 16.0481C332.998 16.1523 333.097 16.1679 333.456 16.3241C333.669 16.4231 333.919 16.5637 334.289 16.6939C334.456 16.7512 334.482 16.7252 334.685 16.8137C334.93 16.8918 335.086 16.9231 335.055 16.8346C335.195 16.8502 335.409 16.9127 335.643 16.996C336.633 17.4439 336.279 17.47 336.513 17.6679C337.091 17.9439 337.805 18.2773 338.102 18.5116C338.602 18.7721 338.347 18.4596 338.852 18.7252C340.44 19.6158 341.763 20.5533 342.612 21.345C342.643 21.3606 342.675 21.3814 342.701 21.3971C340.972 19.8241 339.227 18.5377 337.362 17.4127C335.445 16.2616 333.388 15.2721 330.992 14.4491C330.789 14.3346 330.82 14.22 330.388 14.0741C330.175 14.0012 330.06 13.9648 330.008 13.9075C329.675 13.8658 329.06 13.6835 328.945 13.7616C328.039 13.4648 327.862 13.1783 326.586 12.9335C326.195 12.8658 326.612 13.1262 326.294 13.0846C325.919 13.0012 325.716 12.9491 325.498 12.8502C325.341 12.7877 325.404 12.7148 325.227 12.6418C324.873 12.4908 324.586 12.345 323.966 12.246C323.81 12.2304 323.8 12.2773 323.815 12.3085C323.862 12.4127 324.133 12.4908 324.498 12.6106L324.623 12.8762C324.195 12.8241 323.774 12.871 323.347 12.8346C322.847 12.7981 322.393 12.6679 321.607 12.6418C321.326 12.6314 321.279 12.6575 321.055 12.6523C321.044 12.6523 320.669 12.6002 320.263 12.5741C319.857 12.5429 319.425 12.5325 319.305 12.5689C319.112 12.6314 318.956 12.5637 318.347 12.5846C318.039 12.6002 318.05 12.6314 317.805 12.6471C317.331 12.6731 316.633 12.7043 316.091 12.7668C315.794 12.8033 315.404 12.8814 315.175 12.9075C315.195 12.9075 315.076 12.8814 314.951 12.8918C314.893 12.9023 314.623 12.9491 314.576 12.9439C314.274 12.9335 314.399 12.9543 313.82 13.0585C312.794 13.246 311.68 13.4335 310.659 13.7148C310.383 13.6575 310.268 13.6314 310.227 13.5325C310.159 13.3814 310.737 13.1887 310.612 13.0064C310.513 12.8658 309.722 12.9543 309.794 12.7148C309.185 12.8554 309.534 12.9023 308.93 13.0481C309.643 13.1158 309.826 13.3241 309.602 13.621C308.748 13.7721 308.472 14.0116 307.852 14.2668C307.972 14.3293 308.065 14.4023 307.904 14.5116ZM323.43 9.40747C323.477 9.54289 324.05 9.6158 324.565 9.70955C324.675 9.56372 323.888 9.4908 323.43 9.40747ZM348.211 22.9179C348.227 23.0793 348.612 23.5221 348.706 23.7564C349.091 24.2304 348.883 24.246 349.315 24.7721C349.925 25.3918 349.992 24.996 350.195 24.8398C350.185 24.7512 350.076 24.5741 349.966 24.4023C349.768 24.2877 349.685 24.3762 349.232 23.8085C348.961 23.4804 349.097 23.4648 348.711 23.0533C348.701 23.2721 348.248 22.7512 348.211 22.9179ZM350.404 25.3293C350.789 25.8502 351.206 26.5064 351.201 26.2304C351.128 25.9856 350.701 25.3293 350.466 25.1366L350.404 25.3293ZM350.935 35.4856C351.326 36.1575 351.524 36.3502 351.654 36.3293C351.555 36.0221 351.107 35.2512 350.93 35.0846C350.847 35.1314 350.867 35.2877 350.935 35.4856ZM347.008 29.2668C346.576 28.7773 346.503 28.871 346.399 28.9075C346.904 29.496 346.784 29.1106 347.008 29.2668ZM346.695 30.0793C346.664 29.9283 346.55 29.6783 346.435 29.496C346.185 29.22 346.029 29.095 345.914 29.0429C346.18 29.3814 346.44 29.7304 346.695 30.0793ZM348.586 58.1314C348.367 59.4648 347.893 60.97 347.331 62.4231C346.774 63.871 346.133 65.2668 345.675 66.4752C346.315 65.0689 346.029 66.2773 346.451 65.5637C346.472 64.8814 347.154 63.4075 347.701 61.8762C348.258 60.3554 348.675 58.7773 348.586 58.1314ZM348.992 60.8189C348.753 61.2043 348.518 62.1002 348.268 62.8085C348.211 62.9804 348.149 63.1418 348.091 63.2825C348.076 63.3658 348.029 63.4908 347.935 63.6887C347.899 63.7252 347.873 63.7408 347.847 63.746C347.768 63.8346 347.701 63.8398 347.643 63.7043C347.341 64.6366 347.143 64.9283 347.128 65.1783C347.388 64.9179 347.222 65.345 346.987 65.8762C346.758 66.4075 346.461 67.0273 346.529 67.1783C347.086 66.2408 346.873 66.5168 347.367 65.4075C347.612 65.3346 347.878 65.1575 348.169 64.6939C348.378 63.8554 347.487 65.4179 347.742 64.5116C348.347 63.2773 348.805 61.9127 348.992 60.8189ZM337.32 21.1835C337.237 21.0741 337.128 20.9543 337.024 20.871C336.695 20.72 336.393 20.5741 336.102 20.4283C336.513 20.6731 336.919 20.9231 337.32 21.1835ZM346.237 28.8554C346.32 28.7981 346.003 28.4752 346.149 28.4596C345.701 27.9491 345.685 28.0846 345.409 27.8241C345.086 27.5116 344.883 27.1991 344.69 26.97C344.482 26.7148 344.279 26.496 344.107 26.2668C343.529 25.7773 343.529 25.9908 342.685 25.22C342.539 25.1471 342.508 25.2043 342.498 25.2877C342.794 25.5689 343.086 25.8554 343.373 26.1471C343.393 26.1575 343.419 26.1679 343.435 26.1731C343.711 26.4335 344.07 26.7564 344.185 26.9491C344.274 26.996 344.383 27.095 344.492 27.1731C344.716 27.3293 344.716 27.3502 344.935 27.595C345.383 28.1054 345.513 28.1002 346.237 28.8554ZM345.643 67.3866C345.544 67.5325 345.456 67.6731 345.404 67.8137C345.425 67.8085 345.445 67.8241 345.456 67.8658C345.56 67.6314 345.612 67.4856 345.643 67.3866ZM346.341 66.4387C346.008 67.0168 345.623 67.6002 345.341 68.0429C345.341 68.0637 345.331 68.0898 345.331 68.1106C345.706 67.5898 346.461 66.7304 346.341 66.4387ZM345.3 70.2825C345.617 69.9439 346.029 69.2721 346.409 68.5637C346.373 68.371 346.076 68.8137 345.789 69.2877C345.508 69.7668 345.227 70.2773 345.3 70.2825ZM345.154 69.4283C345.534 68.9804 345.888 68.4023 345.982 68.0533C345.649 68.6471 345.404 68.8189 345.154 69.0064C344.904 69.1939 344.654 69.3971 344.263 70.0377C344.388 70.1835 344.779 69.8762 345.154 69.4283ZM315.341 85.0377C315.992 85.0741 315.982 84.9596 316.029 84.8606C315.253 84.8033 315.612 84.9856 315.341 85.0377ZM333.925 78.22C333.722 78.3606 333.477 78.5168 333.211 78.6887C333.357 78.7043 333.607 78.6054 333.873 78.4752C333.81 78.4231 333.867 78.3189 333.925 78.22ZM335.102 77.2825C335.279 77.1262 335.586 76.9075 335.513 76.871C334.794 77.4023 334.607 77.6106 334.612 77.7356C334.612 77.8606 334.794 77.8814 334.779 77.996C335.378 77.5637 335.378 77.4023 336.19 76.8293C336.123 76.5689 335.258 77.4231 335.102 77.2825ZM338.706 73.4648C338.794 73.3137 338.695 73.0898 338.268 73.2981C338.248 73.3241 338.227 73.345 338.206 73.3658C338.086 73.4908 337.961 73.6262 337.826 73.7616C337.847 73.845 337.977 73.8502 337.498 74.2408C337.352 74.3241 337.289 74.3502 337.258 74.345C336.597 75.0064 335.82 75.7408 335.034 76.4023C334.722 76.6679 334.409 76.9283 334.107 77.1679C334.258 77.2304 334.992 76.7512 335.883 76.0325C336.805 75.2929 337.867 74.2877 338.706 73.4648ZM338.472 75.0116C338.258 75.0221 338.529 74.72 338.341 74.7148C337.576 75.3502 337.43 75.9543 337.789 75.6575C337.732 75.5325 338.107 75.3918 338.472 75.0116ZM341.404 69.4439L341.675 69.4596C341.914 69.095 342.32 68.5429 342.242 68.4596C341.951 68.8554 341.826 68.6679 341.404 69.4439ZM344.82 70.0273C344.555 69.9908 344.055 70.7356 343.539 71.3762C343.268 71.4491 343.972 70.6054 343.815 70.5741C343.06 71.4648 342.013 72.4543 341.393 73.371C341.326 72.9179 342.419 71.7981 343.253 70.2981C343.612 69.8554 343.82 69.871 344.143 69.5012C344.419 68.8658 344.654 68.2929 345.388 67.0377C344.758 67.7616 344.003 69.0533 343.008 70.4439C342.024 71.8346 340.784 73.3137 339.409 74.4075C339.05 74.9908 338.44 75.5585 337.727 76.1002C337.018 76.6418 336.211 77.1575 335.456 77.6939C335.305 77.7981 335.149 77.9127 334.987 78.0273C335.008 78.0273 335.029 78.0325 335.05 78.0429C332.977 79.5429 331.013 80.7304 328.951 81.7252C326.883 82.7096 324.706 83.5064 322.169 84.0116C321.8 84.0846 321.43 84.1471 321.055 84.2096C321.055 84.2773 321.201 84.3346 321.112 84.3918C321.003 84.47 320.227 84.5793 320.055 84.6939C319.675 84.6991 319.195 84.7304 318.977 84.6783C318.878 84.7043 318.732 84.7096 318.602 84.7304C318.331 84.7825 318.32 84.7668 317.992 84.7512C317.315 84.7043 317.227 84.8033 316.18 84.7825C316.164 84.8814 316.612 84.8814 316.518 84.996C317.201 85.0429 317.112 84.9387 317.492 84.9231C317.945 84.9179 318.31 84.996 318.607 85.0221C318.935 85.0533 319.227 85.0637 319.518 85.1002C320.268 85.0377 320.117 84.8866 321.263 84.8293C321.503 84.7512 321.326 84.6471 321.242 84.5429C322.081 84.4283 322.268 84.5325 322.617 84.5793C323.456 84.3502 322.763 84.2043 322.55 84.0064C322.945 83.8606 323.607 83.7356 324.263 83.6366C325.008 83.5168 325.331 83.5898 325.815 83.5116C325.972 83.4804 326.06 83.4543 326.117 83.4335C325.951 83.4596 325.789 83.4752 325.659 83.47C326.654 83.1731 327.524 82.8346 327.659 82.6106C328.018 82.4908 327.904 82.6002 327.737 82.6679C327.899 82.8293 328.253 82.6835 328.623 82.5273C328.992 82.3606 329.378 82.1835 329.633 82.2929C329.513 82.345 329.388 82.3971 329.268 82.4439C329.477 82.3918 329.68 82.3398 329.857 82.3033C329.899 82.4023 329.732 82.5377 329.492 82.6835C330.065 82.4439 330.695 82.2304 330.794 82.345C331.055 82.2096 331.32 82.0637 331.591 81.9179C331.591 81.9075 331.591 81.8971 331.602 81.8866C331.633 81.8502 331.779 81.8137 331.748 81.7825C331.722 81.7564 331.914 81.6679 331.847 81.6471C332.018 81.595 332.195 81.5481 332.44 81.4335C332.742 81.2929 332.93 81.0793 333.227 80.9335C333.383 80.8502 333.602 80.7356 333.831 80.621C335.472 79.6054 337.117 78.4387 338.649 77.121C341.149 74.9856 343.31 72.47 344.82 70.0273ZM331.263 82.2773C330.597 82.6002 329.857 82.9439 329.081 83.2252C329.039 83.2564 328.998 83.2825 328.966 83.3085C328.472 83.4752 328.315 83.4439 327.899 83.5533C327.847 83.6158 327.737 83.6887 327.597 83.7512C327.607 83.8033 327.701 83.845 327.82 83.871C328.284 83.7096 328.706 83.5481 329.102 83.3971C329.867 83.1054 330.544 82.8502 331.274 82.6887C331.123 82.6366 331.003 82.6991 331.076 82.5429C330.888 82.5273 331.258 82.3762 331.331 82.3085C331.352 82.2929 331.294 82.2877 331.263 82.2773ZM326.138 84.0273L326.284 84.1575C326.529 84.1002 326.675 84.0377 326.722 83.9908C326.555 84.0116 326.409 84.0116 326.32 83.9804C326.263 83.9908 326.206 84.0064 326.138 84.0273ZM331.294 82.6991C330.675 82.996 330.039 83.2721 329.409 83.5168C329.789 83.3971 330.159 83.2877 330.529 83.1939C330.956 83.0064 330.909 82.9075 331.326 82.7096C331.315 82.7043 331.305 82.7043 331.294 82.6991ZM339.612 76.9179C338.518 77.746 337.086 78.746 335.768 79.5793C335.492 79.7564 335.227 79.9231 334.972 80.0846C335.211 79.97 335.456 79.8502 335.612 79.7668C335.909 79.6106 336.185 79.4231 336.477 79.2564C337.024 78.9387 337.628 78.5793 338.237 78.1835C338.784 77.7668 339.284 77.3346 339.612 76.9179ZM280.3 47.5898C280.284 47.7616 280.284 47.97 280.274 48.1523C280.3 48.0585 280.326 47.9335 280.341 47.7564C280.352 47.0585 280.138 47.0689 279.925 47.0793C279.873 47.5221 279.909 48.1366 279.977 48.6991C280.076 48.6002 280.003 47.871 280.05 47.5585C280.149 47.4596 280.248 47.3814 280.3 47.5898ZM348.597 64.9648C347.289 67.9648 345.508 70.8918 343.274 73.5533C342.284 74.7304 341.201 75.8554 340.039 76.9127C340.201 76.7929 340.362 76.6627 340.529 76.5325C340.852 76.2877 341.815 75.5325 342.289 75.121C342.768 74.6991 343.086 74.4023 343.341 74.1627C344.149 73.2252 344.914 72.2408 345.633 71.2096C347.024 69.2148 348.222 67.0585 349.154 64.8085C350.091 62.5585 350.763 60.22 351.143 57.8971L351.315 57.8189C351.294 58.6366 351.034 60.1575 350.56 61.6887C350.097 63.2252 349.414 64.7564 348.852 65.6731C348.102 67.7148 346.633 70.47 344.451 73.1887C344.456 73.1835 344.461 73.1835 344.466 73.1731C344.555 73.1054 344.633 72.996 344.654 73.0377C345.07 72.8762 344.461 73.5064 344.628 73.5377C344.857 73.2616 345.076 72.9856 345.284 72.7148C345.326 72.5325 345.659 72.1158 345.633 71.9856C345.914 71.6575 346.232 71.2877 346.347 71.0533C346.331 71.0793 346.492 70.7929 346.419 70.8918C346.607 70.6314 346.685 70.6262 346.836 70.4179C346.935 70.2877 346.909 70.2564 347.029 70.095C347.175 69.8918 347.274 69.7929 347.399 69.6366C347.888 68.8398 348.31 68.0898 348.654 67.4127C349.373 65.8918 349.617 64.746 350.3 63.8658L351.086 60.7825C351.383 59.6106 351.638 58.6106 351.841 58.7981C352.034 57.8033 351.987 57.7773 351.961 57.7252C351.925 57.6783 351.909 57.6054 352.055 56.5064C352.138 57.0898 352.044 57.1418 352.31 56.371C352.279 55.3762 352.107 56.4231 352.175 55.4856C352.289 54.8398 352.326 55.3502 352.419 55.3398C352.393 55.1002 352.373 54.4804 352.503 54.3137C352.503 53.845 352.367 54.371 352.315 54.7564C352.159 54.1106 352.534 52.871 352.347 52.0689C352.472 51.8814 352.482 52.2981 352.581 52.246C352.623 51.6418 352.607 51.3554 352.602 51.0533C352.586 50.7512 352.581 50.4387 352.591 49.7825C352.44 50.8241 352.56 51.4752 352.248 50.7616C352.117 51.5221 352.149 52.9596 352.055 54.3346C351.972 55.7043 351.763 57.0064 351.456 57.4439C351.685 56.9543 351.602 56.2981 351.419 57.1523C351.399 56.7096 351.55 55.3866 351.654 54.1054C351.763 52.8241 351.831 51.5846 351.956 51.3241C351.784 51.3085 351.779 50.3554 351.716 49.4127C351.659 48.47 351.544 47.5377 351.367 47.5533C351.612 50.1471 351.591 52.9856 351.159 55.9439C350.737 58.8971 349.904 61.9648 348.597 64.9648ZM351.138 52.7148C351.242 52.5168 351.357 52.3658 351.341 51.7616C351.112 51.6835 351.19 52.7721 350.951 52.6835C350.956 53.1679 350.878 53.9127 350.977 53.9543C350.956 53.1575 351.039 52.9127 351.138 52.7148ZM358.57 53.8241C358.55 54.0689 358.524 54.7616 358.498 55.2043C358.472 55.6054 358.472 55.8762 358.393 56.1418C358.461 57.0221 358.258 58.2252 358.029 59.6991C357.878 60.6575 357.711 61.8033 357.524 62.5481C357.513 62.5898 357.477 62.595 357.435 62.7825C357.425 62.8398 357.409 62.9439 357.388 62.996C357.331 63.2096 357.201 63.6418 357.055 64.1106C356.925 64.5273 356.951 64.72 356.831 65.1575C356.841 65.121 356.758 65.2668 356.722 65.3866C356.649 65.6471 356.57 65.9804 356.477 66.2356C356.461 66.2877 356.43 66.2721 356.367 66.4596C356.258 66.8033 356.222 66.8293 356.117 67.1054C355.956 67.5533 355.873 67.8762 355.69 68.3554C355.508 68.8189 355.263 69.2981 355.034 69.8189C354.758 70.4543 354.399 71.371 354.091 71.6575C353.867 72.121 353.899 72.2252 353.56 72.8293C353.378 73.0221 353.112 73.5273 352.893 73.8189C352.305 74.9283 351.742 75.7668 351.138 76.6366C351.008 76.7564 350.836 76.996 350.669 77.1887C350.591 77.2773 350.383 77.47 350.32 77.5481C350.149 77.746 349.977 78.0481 349.805 78.2564C349.742 78.3346 349.477 78.5585 349.44 78.6054C349.201 78.8918 348.888 79.3346 348.628 79.6366C348.565 79.5846 348.185 80.1314 347.966 80.3033C347.774 80.4543 347.643 80.6366 347.341 80.9543C347.034 81.2825 346.945 81.2929 346.555 81.7512C346.347 81.996 346.393 81.9856 346.102 82.2252C345.836 82.4387 345.675 82.6679 345.123 83.1366C345.065 83.1887 345.07 83.1314 344.914 83.2773C344.701 83.4804 344.57 83.4908 344.336 83.7043C344.294 83.7408 344.216 83.8189 344.175 83.8502L343.258 84.5481C342.701 84.9752 341.998 85.4491 341.492 85.7096C341.128 86.0064 340.794 86.2096 340.399 86.4648C340.169 86.6158 339.669 86.9491 339.461 87.0637C339.341 87.1366 339.195 87.1679 339.008 87.2668C338.826 87.3658 338.654 87.5064 338.597 87.4856C338.149 87.7668 337.638 88.1054 337.258 88.2512C337.07 88.3241 336.914 88.4179 336.649 88.5533C336.508 88.6262 336.445 88.621 336.414 88.6366C335.909 88.8918 335.659 89.0585 335.227 89.22C335.149 89.2512 334.675 89.47 334.602 89.4856C334.472 89.5221 333.706 89.8033 333.149 90.0689C333.018 90.0637 332.732 90.1835 332.623 90.1627C331.55 90.6262 331.138 90.621 330.091 91.0012C329.784 90.9752 328.998 91.2252 328.623 91.2148C326.508 91.8502 324.456 92.1731 323.867 91.8762C324.07 91.8398 324.284 91.8033 324.492 91.7616C324.039 91.6575 325.112 91.4387 324.404 91.4439C323.841 91.5689 324.352 91.6627 323.55 91.8033C323.086 91.8918 322.758 91.9127 322.649 91.8554C322.013 91.9648 322.503 91.8189 322.373 91.8137C322.248 91.8033 321.758 91.8502 321.466 91.8398C321.107 91.8293 321.018 91.7825 320.742 91.7877C320.623 91.7877 320.451 91.8189 320.326 91.8241C320.263 91.8241 319.998 91.8033 320.086 91.7981C319.972 91.8085 319.695 91.9075 319.732 91.9075C319.076 91.9231 318.982 91.7512 318.388 91.845C318.19 91.7981 318.513 91.7877 318.852 91.7877C319.19 91.7877 319.55 91.7929 319.43 91.7981C319.675 91.7877 320.539 91.621 320.857 91.6523C320.878 91.6523 320.862 91.6887 320.888 91.6887C320.972 91.6887 321.242 91.6418 321.305 91.6471C321.643 91.6835 322.253 91.5168 322.581 91.5325C322.836 91.5481 323.018 91.496 323.44 91.4439C323.732 91.4127 324.347 91.3346 325.117 91.1783C325.289 91.1418 325.357 91.1731 325.565 91.1262C325.539 91.1314 325.607 91.0741 325.732 91.0429C325.862 91.0116 326.123 90.9908 326.378 90.9335C326.753 90.845 327.242 90.7929 327.669 90.6783C328.201 90.5377 328.466 90.3606 329.227 90.1627C329.393 90.1158 329.607 90.095 329.857 89.9908C329.899 89.9752 330.138 89.8554 330.013 89.8918C330.492 89.746 330.763 89.72 331.117 89.6158C331.737 89.2408 332.654 89.0116 333.466 88.6627C334.248 88.3241 334.982 87.9023 335.883 87.4283C335.992 87.4543 336.154 87.4335 336.425 87.3085C336.451 87.4804 336.498 87.5064 336.836 87.496C337.565 87.0898 337.643 86.9335 338.409 86.4804C338.716 86.1679 338.68 85.996 338.862 85.7356C339.347 85.3866 339.492 85.4127 339.977 85.0481C340.034 85.1262 339.972 85.2616 339.925 85.3918C339.727 85.6418 340.383 85.22 340.451 85.2043C340.602 85.1835 340.237 85.5637 340.742 85.2981C341.164 84.8658 341.279 84.5846 341.263 84.3762C341.852 83.9856 342.123 83.5429 342.399 83.4439C342.586 83.1939 343.003 82.7981 343.143 82.5637C343.789 82.0793 343.94 81.8085 344.649 81.121C344.987 80.9491 345.05 81.0116 344.847 81.3293C345.242 81.1418 345.789 80.5377 346.237 79.9648C346.102 79.97 345.633 80.5377 345.383 80.72C345.237 80.72 345.117 80.7043 345.227 80.5221C345.55 80.2512 345.966 79.7929 346.039 79.9439C346.341 79.4387 346.742 79.1106 347.159 78.5064C347.482 78.0689 347.518 78.1991 347.706 78.0273C348.003 77.6418 348.3 77.2564 348.586 76.8606C348.8 76.7096 349.102 76.345 349.248 76.3502C349.513 75.9439 349.675 75.6314 349.852 75.3033C350.003 74.996 349.852 75.0221 350.097 74.6106C350.789 73.6835 351.169 72.8346 351.742 72.2252C352.414 71.0793 352.779 70.1523 352.847 69.6106C352.914 69.4335 353.029 69.2096 353.086 69.0325C353.112 68.97 353.143 68.7929 353.117 68.8554C353.232 68.5637 353.326 68.47 353.399 68.2616C353.503 67.9439 353.445 67.7877 353.716 67.1523C353.649 67.2773 353.581 67.4023 353.524 67.5168C353.258 67.7356 353.284 67.7096 353.268 67.5533C353.263 67.5064 353.544 66.9075 353.274 67.1991C353.534 66.7148 353.508 66.6106 353.675 66.2356C353.399 66.5689 353.097 66.9752 352.763 67.4491C352.508 67.7252 352.841 66.9804 352.56 67.4752C352.435 67.5846 352.279 67.7721 352.149 67.8814C351.836 68.7043 352.669 67.7877 352.852 67.97C352.732 68.1939 352.857 68.121 352.899 68.1418C352.815 68.3606 352.675 68.6523 352.393 69.0898C352.117 69.6002 352.326 69.5429 351.899 70.2043C351.607 70.4283 351.237 71.1262 350.55 72.0429C350.097 72.6471 349.586 73.2616 349.065 73.9752C348.93 73.9491 348.654 74.0533 348.794 73.7825C348.706 73.6314 348.206 74.0168 348.331 73.7616C348.919 72.9543 348.893 73.3502 349.44 72.5689C349.982 71.9231 349.524 72.2252 349.758 71.871C349.607 71.8762 349.076 72.6939 348.815 72.9075C348.414 73.3606 348.659 73.2408 348.56 73.4231C348.222 73.8398 348.05 73.9335 347.758 74.2512C347.664 74.3866 347.534 74.5637 347.576 74.5846C347.675 74.6418 347.878 74.3293 347.779 74.6054C347.753 74.6627 347.633 74.7564 347.685 74.7721C347.737 74.7877 347.633 75.0273 347.649 75.121C347.44 75.4543 347.456 75.3346 347.055 75.7721C346.669 76.1887 346.998 76.0533 346.852 76.2825C346.404 76.8033 346.404 76.6002 346.081 76.8971C345.498 77.4283 345.466 77.5585 345.227 77.8346C344.581 78.345 344.404 78.6366 343.805 79.0012C343.32 79.5273 342.742 79.845 342.128 80.4075C342.076 80.4023 341.873 80.5637 341.727 80.6627C341.326 80.8346 341.065 80.845 340.617 81.0637C340.107 81.4387 339.664 81.6835 339.336 81.9283C338.992 82.1783 339.232 82.1575 338.732 82.4543L338.591 82.3971C338.185 82.6783 338.242 82.7721 337.831 83.0481C336.899 83.6158 336.284 83.8658 335.44 84.2877C335.175 84.3241 334.768 84.4648 334.722 84.3189C334.524 84.371 334.44 84.4335 334.076 84.5741C333.857 84.6627 333.581 84.7356 333.227 84.9075C333.07 84.9856 333.065 85.0168 332.862 85.1054C332.633 85.22 332.503 85.3085 332.586 85.3502C332.477 85.4387 332.279 85.5429 332.055 85.6523C331.039 86.0377 331.268 85.7668 330.966 85.7929C330.367 86.0064 329.623 86.2773 329.248 86.3241C328.711 86.4908 329.112 86.5377 328.565 86.6991C326.815 87.1991 325.216 87.4752 324.055 87.5168C323.117 87.7981 321.753 87.8189 320.477 87.8814C320.263 87.8918 319.919 87.9752 319.841 87.9648C319.57 87.9387 319.451 87.9752 318.706 87.9804C318.216 87.9804 317.789 87.996 316.904 87.9648C316.503 87.9491 316.07 87.9283 315.602 87.8918C315.56 87.8918 315.518 87.8918 315.472 87.8866C314.294 87.8606 313.164 87.746 312.472 87.5325C312.003 87.4543 311.529 87.3658 311.034 87.2773C310.565 87.1939 310.326 87.1627 309.919 87.0481C309.8 87.0116 309.919 87.0116 309.68 86.9596C309.305 86.8814 309.227 86.9127 308.836 86.8346C308.466 86.7564 308.336 86.6939 307.951 86.5898C307.529 86.4804 306.909 86.345 306.659 86.2616C306.169 86.1054 305.81 85.9335 305.331 85.746C305.274 85.7304 305.216 85.7096 305.154 85.6939C305.274 85.7564 305.388 85.8398 305.492 85.8971L306.435 86.3971C306.638 86.5116 307.487 86.6679 307.711 86.7877C307.732 86.7981 307.701 86.8241 307.727 86.8346C307.794 86.8606 308.044 86.9127 308.091 86.9387C308.107 86.9439 308.091 86.9804 308.107 86.9856C308.451 87.1054 308.893 87.2096 309.232 87.3137C309.3 87.3346 309.56 87.3814 309.602 87.4023C309.623 87.4075 309.597 87.4387 309.617 87.4491C309.69 87.47 309.945 87.5064 309.992 87.5273C310.253 87.6471 310.706 87.6991 311.154 87.8398C311.347 87.9023 311.466 87.9179 311.737 87.9804C311.909 88.0116 312.076 88.0585 312.326 88.1054C312.43 88.1262 312.56 88.1835 312.539 88.1783C312.685 88.2043 312.961 88.1939 312.899 88.1835C313.19 88.2408 313.404 88.2981 313.701 88.3554C313.805 88.3814 313.695 88.3971 313.914 88.4179C313.966 88.4231 314.055 88.4283 314.107 88.4387C314.388 88.4908 315.315 88.6314 316.07 88.6418C316.727 88.8033 317.659 88.871 318.237 89.0168C318.498 89.2043 318.107 89.2825 318.128 89.4283C317.972 89.47 317.711 89.4856 317.367 89.4804C317.576 89.7408 316.305 89.72 316.055 89.8762C314.909 89.8241 314.414 89.9023 313.565 89.8762C313.237 89.8814 312.914 89.8814 313.081 90.0273C312.169 90.0012 311.05 89.8814 309.758 89.621C309.477 89.3814 310.081 89.496 310.216 89.4179C310.091 89.2929 309.456 89.2616 309.664 89.3918C309.253 89.2096 309.529 89.2304 309.899 89.2668C310.268 89.3033 310.727 89.3502 310.69 89.2564C311.133 89.4283 311.461 89.3814 311.847 89.4127C312.341 89.3866 312.508 89.2564 312.831 89.1731C313.44 89.2043 313.175 89.3502 313.685 89.3918C314.07 89.3918 313.727 89.1106 313.503 89.0429C312.862 88.9439 312.534 88.9283 312.242 88.9231C311.956 88.9231 311.706 88.9283 311.232 88.8554C311.102 88.9335 310.503 88.8346 310.789 89.0689C310.268 89.0012 310.357 88.9023 309.972 88.8241C309.607 88.7356 310.003 88.97 309.852 88.97C309.774 88.97 309.503 88.9856 309.341 89.0273C309.029 88.97 308.987 88.9075 308.737 88.845C308.456 88.8502 308.211 88.871 308.274 89.0273C307.909 88.9908 307.378 88.8762 306.961 88.7981C307.055 88.9908 307.081 89.1471 306.919 89.2148C306.591 89.121 306.263 89.0221 305.94 88.9179C305.737 88.9335 305.383 88.7773 304.998 88.6887C304.873 88.6575 304.742 88.6731 304.633 88.6471C304.565 88.6314 304.294 88.5116 304.248 88.5064C303.992 88.4908 302.888 88.0793 302.18 87.7981C301.893 87.6939 301.539 87.595 301.253 87.47C300.914 87.3241 300.445 87.0741 300.138 86.9231C299.8 86.7512 299.649 86.7252 299.404 86.5325C299.404 86.3137 299.409 86.2721 299.539 86.2356C299.399 86.0325 299.904 86.3398 300.065 86.3762C299.836 85.9596 300.633 86.3293 300.341 85.871C299.987 85.6471 299.951 85.746 299.82 85.6835C299.612 85.5898 299.315 85.3866 299.112 85.2929C298.893 85.1887 298.831 85.2096 298.591 85.0846C298.638 85.345 298.388 85.345 298.279 85.4752C298.352 85.6783 298.815 85.996 298.675 86.1314C298.326 86.0793 297.201 85.3606 296.378 84.8137C296.268 84.5846 296.695 84.871 296.367 84.5585C295.878 84.1002 295.331 84.1679 294.841 83.5325C294.586 83.3971 294.539 83.4439 294.336 83.3554C294.284 83.3346 294.05 83.121 294.003 83.1002C293.888 83.0533 293.961 83.1887 293.831 83.121C293.435 82.7877 292.643 82.2252 292.539 82.0064C292.232 81.7616 292.393 82.095 291.888 81.6002C291.727 81.2668 291.133 80.6679 291.18 80.4387C290.867 80.1054 290.774 79.9023 290.31 79.4596C290.206 79.2981 290.175 79.1887 290.201 79.1106C289.763 78.5846 289.82 78.7252 289.503 78.3033C288.935 77.7721 288.899 78.1002 288.3 77.4856C288.357 77.7512 288.029 77.3502 288.086 77.6158C287.956 77.5116 287.768 77.3033 287.534 77.0116C287.492 77.1575 287.143 76.746 287.055 76.8033C286.498 76.0064 286.039 75.3971 285.591 74.7877C285.143 74.1835 284.716 73.5741 284.279 72.7616C284.274 72.2981 284.878 73.3814 284.826 72.7981C284.753 72.4335 284.43 72.2252 284.185 71.7043C284.06 71.1731 284.633 71.7929 284.774 71.6575C285.206 72.1939 285.685 72.7721 285.94 72.7981C285.935 72.5012 285.602 72.2929 285.445 71.8293C285.206 71.4335 285.164 71.5637 285.05 71.4752C284.992 71.4335 284.841 71.2408 284.8 71.2043C284.774 71.1887 284.794 71.3398 284.758 71.2981C284.57 71.0741 284.159 70.6366 284.055 70.7877C283.628 69.8241 283.456 69.7043 283.065 69.0012C282.826 68.9752 282.727 69.4804 282.331 68.8866C282.05 68.1783 281.961 68.1991 281.711 67.5533C281.544 67.3085 281.3 66.6835 281.154 66.4856C280.935 65.8241 280.852 65.4335 280.55 64.6106C280.492 64.4491 280.456 64.4491 280.388 64.2408C280.222 63.6939 280.091 62.8971 279.81 62.1627C279.82 61.7668 279.904 61.7148 279.992 61.6835C280.065 61.6523 280.128 61.8866 280.222 61.9439C280.357 62.0325 280.451 61.845 280.57 61.8033C280.82 62.3918 281.143 63.4127 281.404 63.7668C281.68 64.7148 281.94 65.3085 282.195 65.8658L282.373 65.6158C282.195 65.0221 282.029 64.7929 281.904 64.5221C281.753 64.1835 281.633 63.8502 281.498 63.6471C281.435 63.4596 281.399 63.3137 281.373 63.1835C281.237 62.8398 281.107 62.4752 280.956 62.095C280.847 61.8137 280.711 61.4804 280.591 61.1627C280.57 61.1523 280.55 61.1262 280.529 61.0741C280.503 60.9752 280.482 60.8814 280.456 60.7929C280.393 60.5898 280.347 60.4075 280.331 60.2564C280.31 60.1679 280.289 60.0793 280.274 59.996C280.185 59.7721 280.117 59.6471 280.039 59.4491C280.018 59.6106 279.966 59.5273 279.987 59.8814C279.878 59.8137 279.763 59.3606 279.659 58.9752C279.597 59.6314 279.393 59.1471 279.232 58.9127C279.097 58.1783 279.279 58.2616 279.159 57.5273C279.018 56.6575 278.867 56.2564 278.779 55.2981C278.815 55.2564 278.789 55.0064 278.789 54.8293C278.82 54.7408 278.852 54.6627 278.888 54.595C278.888 54.5689 278.883 54.5481 278.878 54.5221C278.883 54.345 278.836 54.0481 278.82 53.7981C278.81 53.6783 278.82 53.4023 278.81 53.2981C278.789 53.0377 278.695 52.6991 278.675 52.4335C278.664 52.3293 278.69 51.9908 278.685 51.9283C278.649 51.5585 278.555 51.0221 278.524 50.6262C278.607 50.6158 278.487 49.9596 278.524 49.6887C278.55 49.4387 278.513 49.22 278.498 48.7825C278.487 48.3293 278.539 48.2668 278.492 47.6627C278.466 47.345 278.44 47.3866 278.477 47.0064C278.513 46.6679 278.466 46.3918 278.518 45.6679C278.529 45.595 278.56 45.6366 278.57 45.4231C278.576 45.1314 278.659 45.0273 278.675 44.7148C278.68 44.6575 278.68 44.5481 278.685 44.496L278.841 43.3554C278.93 42.6575 279.086 41.8241 279.263 41.2877C279.31 40.8137 279.404 40.4387 279.498 39.9752C279.555 39.7043 279.675 39.1158 279.737 38.8918C279.774 38.7564 279.852 38.6262 279.914 38.4231C279.972 38.2252 279.992 38.0064 280.05 37.9804C280.169 37.4596 280.284 36.8606 280.451 36.4908C280.529 36.3033 280.576 36.1314 280.669 35.845C280.716 35.6939 280.763 35.6523 280.774 35.621C280.956 35.0793 281.008 34.7877 281.201 34.3658C281.232 34.2877 281.414 33.8033 281.451 33.7408C281.518 33.6158 281.862 32.8814 282.065 32.2929C282.159 32.2043 282.284 31.9179 282.373 31.8554C282.8 30.7721 283.097 30.4804 283.565 29.47C283.805 29.2721 284.18 28.5429 284.451 28.2825C285.492 26.3398 286.711 24.6575 287.341 24.4491C287.216 24.621 287.097 24.7929 286.977 24.97C287.373 24.7252 286.768 25.6418 287.263 25.1314C287.576 24.6471 287.149 24.9439 287.612 24.2721C287.878 23.8814 288.097 23.6366 288.216 23.595C288.586 23.0689 288.341 23.5221 288.44 23.4335C288.534 23.3502 288.847 22.97 289.06 22.7773C289.32 22.5273 289.419 22.496 289.607 22.2981C289.69 22.2148 289.794 22.0689 289.878 21.9804C289.919 21.9283 290.117 21.7564 290.065 21.8241C290.138 21.7356 290.263 21.47 290.237 21.496C290.69 21.0221 290.878 21.0741 291.232 20.5898C291.404 20.4856 291.185 20.72 290.945 20.9596C290.706 21.1991 290.445 21.4491 290.524 21.3606C290.362 21.5377 289.873 22.2721 289.623 22.4752C289.607 22.4856 289.591 22.4491 289.576 22.47C289.518 22.5273 289.357 22.7512 289.31 22.7929C289.044 23.0064 288.737 23.5585 288.492 23.7773C288.294 23.9491 288.206 24.1158 287.945 24.4491C287.763 24.6783 287.388 25.1679 286.951 25.8241C286.857 25.9752 286.789 26.0012 286.675 26.1783C286.685 26.1575 286.68 26.246 286.612 26.3554C286.539 26.47 286.373 26.6679 286.232 26.8918C286.029 27.22 285.722 27.6054 285.503 27.9804C285.227 28.4648 285.164 28.7773 284.768 29.4543C284.685 29.6054 284.55 29.7668 284.445 30.0221C284.425 30.0585 284.341 30.3137 284.404 30.1991C284.169 30.6418 283.998 30.8554 283.82 31.1783C283.649 31.8814 283.164 32.6887 282.841 33.5168C282.524 34.3033 282.305 35.121 282.008 36.095C281.909 36.1523 281.81 36.2825 281.706 36.5689C281.565 36.4596 281.513 36.4752 281.284 36.7252C281.055 37.5273 281.112 37.6939 280.893 38.5533C280.899 38.9856 281.039 39.0846 281.102 39.3814C281.331 38.7304 281.55 38.1939 281.701 37.9231C281.831 37.6783 282.003 37.5533 282.097 37.2773C282.565 36.8762 282.232 38.0064 282.753 37.3085C283.081 36.2773 283.555 35.1679 283.289 35.0637C283.669 34.3241 284.044 33.6835 284.414 33.1366L284.675 33.1054C284.81 32.8398 284.945 32.5741 285.091 32.3137C284.961 32.4023 284.831 32.4804 284.8 32.3918C284.961 31.97 285.003 31.9023 285.373 31.4648C285.425 31.2825 285.3 31.2981 285.352 31.1158C285.612 30.6991 285.893 30.4804 286.081 30.0221C286.154 29.8606 286.117 29.9491 286.586 29.3137C287.018 28.7356 287.524 28.0012 288.112 27.4075C288.19 27.4387 288.237 27.4543 288.268 27.4804C289.263 26.1991 290.341 24.9908 291.492 23.8606C291.617 23.7043 291.748 23.5377 291.826 23.4179C292.289 23.0377 292.576 22.7616 293.159 22.2825C293.164 22.2148 293.169 22.1418 293.123 22.1054C293.206 21.9752 293.378 21.7773 293.623 21.5325C293.294 21.5012 294.206 20.6158 294.274 20.3241C295.117 19.5481 295.409 19.1471 296.029 18.5637C296.258 18.3293 296.482 18.1002 296.258 18.1158C296.925 17.4856 297.8 16.7773 298.893 16.0481C299.268 16.0168 298.758 16.3606 298.716 16.5116C298.893 16.5116 299.367 16.0846 299.123 16.1418C299.544 15.9804 299.336 16.1627 299.05 16.3971C298.763 16.6314 298.404 16.9231 298.492 16.9648C298.06 17.1575 297.862 17.4231 297.57 17.6783C297.237 18.0377 297.216 18.2512 297.044 18.5429C296.591 18.9491 296.68 18.6575 296.289 18.9908C296.018 19.2616 296.456 19.22 296.664 19.1054C297.185 18.7252 297.43 18.5012 297.633 18.2981C297.841 18.095 298.013 17.9127 298.399 17.6314C298.435 17.4856 298.925 17.1314 298.56 17.1679C298.972 16.845 298.982 16.9752 299.31 16.7616C299.628 16.5637 299.185 16.6783 299.294 16.5741C299.347 16.5221 299.524 16.3137 299.612 16.1679C299.873 15.9908 299.945 16.0064 300.164 15.871C300.362 15.6679 300.518 15.4804 300.362 15.4127C300.649 15.1835 301.107 14.8866 301.456 14.6471C301.248 14.5793 301.123 14.4856 301.19 14.3241C301.487 14.1575 301.789 13.996 302.091 13.8398C302.222 13.6887 302.581 13.5429 302.919 13.3346C303.029 13.2668 303.112 13.1627 303.201 13.1054C303.263 13.0689 303.544 12.9596 303.576 12.9335C303.768 12.7616 304.836 12.2721 305.539 11.9648C305.81 11.8398 306.133 11.6575 306.425 11.5429C306.763 11.4075 307.274 11.246 307.602 11.1366C307.956 11.0221 308.086 10.9335 308.393 10.8918C308.55 11.0481 308.576 11.0793 308.513 11.1991C308.753 11.2408 308.18 11.3814 308.039 11.4752C308.498 11.6054 307.669 11.9075 308.201 12.0273C308.612 11.9335 308.565 11.8398 308.701 11.7877C308.914 11.7043 309.274 11.6418 309.482 11.5637C309.706 11.4804 309.732 11.4231 309.992 11.3398C309.774 11.1887 309.951 11.0116 309.935 10.845C309.742 10.7512 309.19 10.8554 309.19 10.6627C309.477 10.4491 310.779 10.1627 311.753 9.96476C311.987 10.0481 311.482 10.1471 311.93 10.1366C312.607 10.1158 312.945 9.6783 313.737 9.78247C314.018 9.69914 314.013 9.62622 314.222 9.54289C314.274 9.52726 314.591 9.51164 314.638 9.4908C314.748 9.44393 314.602 9.39705 314.742 9.35539C315.258 9.31372 316.216 9.14705 316.445 9.22518C316.836 9.18351 316.487 9.05851 317.19 9.0533C317.544 9.1783 318.383 9.1783 318.513 9.37101C318.966 9.38664 319.185 9.45955 319.826 9.44393C320.013 9.4856 320.112 9.54289 320.143 9.6158C320.826 9.6783 320.685 9.61581 321.211 9.69393C321.992 9.66789 321.784 9.40747 322.643 9.41789C322.409 9.27205 322.93 9.31893 322.695 9.1731C322.867 9.15747 323.149 9.16789 323.513 9.20955C323.445 9.07935 323.982 9.12101 323.998 9.01685C324.961 9.18872 325.716 9.29289 326.461 9.40226C327.206 9.51685 327.935 9.64185 328.826 9.90226C329.154 10.2252 327.966 9.89185 328.414 10.2668C328.722 10.47 329.097 10.3866 329.638 10.5846C330.107 10.871 329.263 10.8398 329.258 11.0325C328.57 10.9648 327.826 10.8918 327.628 11.0533C327.841 11.2616 328.222 11.1731 328.664 11.3866C329.112 11.5012 329.05 11.3762 329.19 11.3554C329.258 11.3502 329.508 11.3814 329.56 11.371C329.591 11.3658 329.466 11.2721 329.524 11.2773C329.81 11.3033 330.414 11.3189 330.378 11.1366C331.362 11.5168 331.57 11.4804 332.347 11.6991C332.534 11.5481 332.248 11.121 332.94 11.2616C333.649 11.5637 333.69 11.4804 334.326 11.7616C334.617 11.8137 335.232 12.0846 335.477 12.1262C336.097 12.4335 336.435 12.6523 337.227 13.0168C337.383 13.0898 337.409 13.0637 337.607 13.1679C338.112 13.4283 338.768 13.9023 339.487 14.2252C339.758 14.5116 339.737 14.6054 339.695 14.6887C339.664 14.7616 339.456 14.6471 339.347 14.6679C339.19 14.7043 339.258 14.9023 339.201 15.0168C338.612 14.7773 337.659 14.2825 337.222 14.22C336.357 13.746 335.758 13.5116 335.18 13.2981L335.232 13.595C335.779 13.8918 336.06 13.9335 336.336 14.0377C336.685 14.1731 337.008 14.3189 337.242 14.371C337.701 14.6002 337.826 14.7356 338.164 14.9283C338.597 15.1731 338.883 15.1939 339.414 15.6262C339.706 15.746 339.456 15.3814 339.753 15.496C340.586 16.0012 341.086 16.3033 341.847 16.9231C342.097 16.97 341.409 16.4804 341.331 16.4023C341.086 16.1471 341.3 16.2408 340.977 15.9596C341.102 15.9283 341.503 16.1679 341.847 16.3658C341.43 15.8554 341.919 16.0585 342.195 16.1054C342.815 16.5325 342.623 16.6002 343.232 17.0325C343.94 17.5481 344.336 17.7252 345.076 18.3398C345.081 18.3918 345.274 18.5533 345.399 18.6731C345.524 18.9231 345.581 19.1366 345.508 19.2773C344.742 18.6887 344.472 18.746 344.326 18.9387C344.388 19.1106 345.107 19.6471 345.425 19.9804C345.857 20.3346 345.961 20.2616 346.086 20.2096C346.274 20.371 346.518 20.6523 346.695 20.8085C346.956 21.0325 347.013 20.9023 347.477 21.3762C347.456 21.2304 347.097 20.8606 346.904 20.6106C347.123 20.6939 347.024 20.3293 347.284 20.4648C347.654 20.7929 347.93 21.1887 348.169 21.4543C348.367 21.6731 348.638 21.8866 348.753 22.1002C348.68 22.3814 348.623 22.6523 349.31 23.5168C349.654 23.9335 349.623 23.6835 349.659 23.5533C349.768 23.6835 349.81 23.6679 349.94 23.8398C349.987 23.8971 350.138 24.1418 350.065 24.0637C350.477 24.5273 350.409 24.246 350.909 24.9023C351.076 25.1731 350.867 25.1106 351.097 25.4439C351.487 26.0585 351.326 25.5377 351.539 25.7825C351.748 26.0533 351.737 26.1418 351.888 26.371C352.07 26.6418 352.185 26.6731 352.404 27.0012C352.539 27.2096 352.742 27.5221 352.862 27.7408C352.951 27.9075 352.956 27.97 353.07 28.1627C353.477 28.8814 354.003 29.8033 354.435 30.6575C354.867 31.5116 355.211 32.2877 355.32 32.6731C355.399 32.9387 355.367 33.1471 355.498 33.4075C355.451 34.0221 354.883 32.9908 355.013 33.8554C355.508 34.8137 355.961 35.9335 356.222 35.8189C356.477 36.6106 356.664 37.3293 356.794 37.9752L356.602 38.2148C356.597 38.3398 356.597 38.4648 356.649 38.7096C356.695 38.9439 356.623 38.9283 356.69 39.2043C356.93 39.7252 356.836 38.6679 357.05 38.7721C357.232 39.1887 357.253 39.2616 357.3 39.8346C357.393 39.996 357.472 39.8971 357.56 40.0637C357.675 40.5481 357.628 40.8971 357.82 41.3554C357.888 41.5168 357.847 41.4283 357.966 42.2148C358.07 42.9283 358.237 43.8033 358.237 44.6366C358.05 44.7148 358.05 44.7616 357.852 44.5116C357.758 44.4075 357.81 45.0793 357.8 45.2512C357.815 45.3346 357.893 45.6262 357.893 45.6731C357.899 45.6939 357.857 45.6783 357.862 45.7096C357.878 45.7929 357.956 46.0793 357.961 46.1418C357.961 46.3866 358.008 46.3293 358.091 46.7877C358.091 46.7668 358.076 46.9023 358.102 47.0429C358.18 47.496 358.222 47.7981 358.326 48.6054C358.409 49.2408 358.445 49.9231 358.503 50.6471C358.539 51.1679 358.555 51.2929 358.555 51.7773C358.565 52.1262 358.623 53.3085 358.57 53.8241ZM338.091 76.8346C337.284 77.1679 337.159 77.4856 337.315 76.8971C336.336 77.6366 336.404 77.8241 335.383 78.5116C335.612 78.5377 336.18 78.2668 336.742 77.9075C337.31 77.5481 337.862 77.1002 338.091 76.8346ZM342.763 72.4179C341.623 73.8502 340.222 75.3346 338.695 76.6158C337.175 77.9023 335.534 78.9804 334.044 79.7148C334.248 79.2721 335.716 78.1158 337.18 76.8137C337.914 76.1679 338.654 75.4856 339.289 74.8971C339.93 74.3137 340.461 73.8189 340.815 73.5637C341.216 73.2721 340.982 74.0793 341.669 73.4023C340.711 74.5012 340.013 74.9023 339.378 75.2096C338.794 75.7877 339.409 75.6106 338.815 76.1835C339.258 76.0429 340.055 75.3033 340.81 74.4856C341.57 73.6679 342.289 72.7773 342.763 72.4179ZM333.409 80.1575C333.659 80.1002 333.945 80.0116 334.492 79.6054C334.565 79.8866 333.831 80.0637 332.914 80.6835C332.81 80.4596 332.123 80.8658 332.492 80.4804C332.935 80.2356 333.154 80.2148 333.409 80.1575Z" fill="#E1F16B"/>
</g>
<path d="M0 87.6043V1.04175H19.8542C26.5729 1.04175 31.1719 3.08341 33.6458 7.16675C36.1302 11.2501 37.4375 17.3438 37.5625 25.4376V27.2501C37.5625 35.849 36.3385 42.3699 33.8958 46.8126C31.4635 51.2605 26.9375 53.4792 20.3125 53.4792H13.1667V87.6043H0ZM13.1667 42.6042H17.7083C20.4844 42.6042 22.2917 41.5365 23.125 39.3959C23.9688 37.2449 24.3958 33.1459 24.3958 27.1042V25.4376C24.3542 20.3282 23.8958 16.6772 23.0208 14.4792C22.1563 12.2709 20.4167 11.1667 17.7917 11.1667H13.1667V42.6042Z" fill="black"/>
<path d="M62.9439 63.5625C62.9439 68.6354 63.3241 72.1771 64.0898 74.1875C64.8658 76.1875 66.4491 77.1875 68.8398 77.1875C71.2408 77.1875 72.8189 76.1615 73.5689 74.1042C74.3189 72.0521 74.6939 68.5365 74.6939 63.5625V23.2292C74.6939 19.1354 74.3033 16.1406 73.5273 14.25C72.7616 12.3646 71.2564 11.4167 69.0064 11.4167C66.7668 11.4167 65.1991 12.3646 64.2981 14.25C63.3918 16.1406 62.9439 19.1146 62.9439 23.1667V63.5625ZM87.9231 63.3958C87.9231 71.8698 86.4127 78.1875 83.4023 82.3542C80.3866 86.5104 75.5585 88.5833 68.9231 88.5833C62.2825 88.5833 57.4127 86.4948 54.3189 82.3125C51.22 78.1354 49.6731 71.8281 49.6731 63.3958V23.8125C49.6731 7.9375 56.1418 0 69.0898 0C75.7825 0 80.595 2.02083 83.5273 6.0625C86.4543 10.0938 87.9231 16.0104 87.9231 23.8125V63.3958Z" fill="black"/>
<path d="M102.488 63.25V55.5417H114.988V64.25C114.988 69.0729 115.395 72.4583 116.218 74.4167C117.035 76.3646 118.572 77.3333 120.822 77.3333C123.082 77.3333 124.582 76.5313 125.322 74.9167C126.072 73.3073 126.447 70.6823 126.447 67.0417C126.447 63.4063 125.785 60.2396 124.468 57.5417C123.16 54.8333 121.077 52 118.218 49.0417L111.843 42.4583C108.853 39.3333 106.53 36.1042 104.863 32.7708C103.207 29.4271 102.384 25.5573 102.384 21.1667C102.384 14.0156 103.759 8.70313 106.509 5.22917C109.27 1.74479 114.014 0 120.738 0C127.457 0 132.009 2.03125 134.384 6.08333C136.759 10.125 137.947 16.0365 137.947 23.8125V29.1667H125.801V22.9792C125.801 18.7865 125.436 15.7812 124.718 13.9583C123.994 12.1406 122.603 11.2292 120.551 11.2292C118.509 11.2292 117.035 11.9167 116.134 13.2917C115.228 14.6667 114.78 16.7396 114.78 19.5C114.78 22.25 115.238 24.4479 116.155 26.0833C117.072 27.724 118.728 29.8229 121.134 32.375L128.259 40.0833C131.827 43.9583 134.52 47.8854 136.343 51.8542C138.16 55.8125 139.072 60.1406 139.072 64.8333C139.072 72.9323 137.707 78.9167 134.988 82.7917C132.28 86.6563 127.52 88.5833 120.718 88.5833C113.91 88.5833 109.166 86.4323 106.488 82.125C103.822 77.8073 102.488 71.5156 102.488 63.25Z" fill="black"/>
<path d="M157.473 87.6043V12.4584H147.348V1.04175H180.348V12.4584H170.598V87.6043H157.473Z" fill="black"/>
<path d="M191.96 87.6043V1.04175H220.981V12.3959H205.127V37.5834H220.189V48.7084H205.127V76.2501H221.564V87.6043H191.96Z" fill="black"/>
<path d="M253.818 46.9376L249.588 46.7292V87.6043H236.422V1.04175H258.193C262.719 1.04175 266.094 1.95321 268.318 3.77091C270.552 5.59383 272.026 8.1355 272.734 11.3959C273.443 14.6615 273.797 18.9272 273.797 24.1876C273.797 29.4532 273.234 33.4584 272.109 36.2084C270.995 38.9584 268.932 40.8126 265.922 41.7709C268.906 42.2865 270.989 44.3022 272.172 47.8126C273.349 51.3282 273.943 58.6355 273.943 69.7293C273.943 80.8282 274.109 86.7865 274.443 87.6043H261.255C260.922 86.9532 260.755 76.6043 260.755 56.5626C260.755 52.7292 260.297 50.1824 259.38 48.9167C258.463 47.6563 256.609 46.9949 253.818 46.9376ZM249.651 36.5001H254.901C256.578 36.5001 257.818 36.1251 258.609 35.3751C259.411 34.6147 259.969 33.3126 260.276 31.4792C260.594 29.6459 260.755 26.849 260.755 23.0834V22.5417C260.755 17.849 260.359 14.7813 259.568 13.3334C258.786 11.8907 256.974 11.1667 254.13 11.1667H249.651V36.5001Z" fill="black"/>
<path d="M197.156 190.604V104.042H226.865V115.5H210.344V138.521H225.698V150.021H210.344V190.604H197.156Z" fill="black"/>
<path d="M278.363 168.375C278.363 176.349 276.853 182.208 273.842 185.958C270.827 189.708 265.978 191.583 259.301 191.583C252.634 191.583 247.78 189.703 244.738 185.938C241.707 182.161 240.197 176.307 240.197 168.375V104H253.384V168.125C253.384 172.682 253.592 175.453 254.009 176.438C254.436 177.427 254.952 178.323 255.551 179.125C256.16 179.932 257.415 180.333 259.322 180.333C261.223 180.333 262.582 179.781 263.405 178.667C264.223 177.542 264.723 176.156 264.905 174.5C265.082 172.849 265.176 170.724 265.176 168.125V104H278.363V168.375Z" fill="black"/>
<path d="M295.191 190.604V104.042H305.503L323.857 155.979L322.92 132.375V104.042H334.774V190.604H325.441L306.587 136.854L307.337 159.563V190.604H295.191Z" fill="black"/>
<path d="M308.106 66.2664C306.897 66.5998 305.897 66.5112 305.106 65.9956C304.324 65.4696 303.71 64.7039 303.251 63.7039C302.793 62.7039 302.366 61.4644 301.981 59.9748L299.522 50.8081C299.012 48.9227 298.939 47.2873 299.314 45.9123C299.689 44.5269 300.668 43.6206 302.251 43.2039C302.876 43.0269 303.481 43.0164 304.064 43.1831C304.658 43.3498 305.173 43.6519 305.606 44.0789L304.147 38.5581L308.126 37.4956L315.251 64.1206L311.272 65.1831L310.71 63.0998C310.512 64.8081 309.647 65.8654 308.106 66.2664ZM306.126 59.4331C306.444 60.6727 306.804 61.5685 307.21 62.1206C307.611 62.6779 308.132 62.8706 308.772 62.7039C309.423 62.5269 309.793 62.0946 309.876 61.4123C309.96 60.7352 309.814 59.6779 309.439 58.2456L307.022 49.2248C306.522 47.381 305.939 46.3394 305.272 46.0998C304.981 45.9904 304.668 45.9852 304.335 46.0789C303.653 46.2612 303.283 46.6831 303.231 47.3498C303.173 48.0164 303.314 48.9644 303.647 50.1831L306.126 59.4331Z" fill="black"/>
<path d="M323.718 58.6932C324.343 58.5265 324.687 58.1463 324.76 57.5473C324.843 56.9536 324.739 56.1046 324.447 55.0057L321.76 44.964C321.468 43.8546 321.125 43.0577 320.739 42.5682C320.364 42.0682 319.864 41.9015 319.239 42.0682C318.614 42.2348 318.26 42.6254 318.177 43.2348C318.093 43.8338 318.203 44.6932 318.51 45.8182L321.197 55.8598C321.64 57.5161 322.182 58.4588 322.822 58.6932C323.083 58.7921 323.385 58.7921 323.718 58.6932ZM324.572 61.9015C322.447 62.4744 320.802 62.2348 319.635 61.1932C318.479 60.1411 317.583 58.4119 316.947 56.0057L314.697 47.589C313.406 42.7869 314.635 39.8807 318.385 38.8807C322.135 37.8702 324.656 39.7661 325.947 44.5682L328.197 52.9848C329.208 56.7504 328.864 59.3129 327.156 60.6723C326.5 61.214 325.64 61.6254 324.572 61.9015Z" fill="black"/>
<path d="M337.89 58.2117C336.484 58.5867 335.473 58.5763 334.848 58.17C334.223 57.7533 333.734 56.8888 333.39 55.5658L329.182 39.8367L327.348 40.3367L326.578 37.4617L328.411 36.9617L327.223 32.5867L331.203 31.5242L332.39 35.8992L334.557 35.3158L335.328 38.1908L333.161 38.7742L337.182 53.8158C337.317 54.3471 337.546 54.6492 337.869 54.7325C338.187 54.8158 338.817 54.7273 339.765 54.4617L340.578 57.4825L337.89 58.2117Z" fill="black"/>
</svg>
