<svg xmlns="http://www.w3.org/2000/svg" xmlns:xlink="http://www.w3.org/1999/xlink" width="500" zoomAndPan="magnify" viewBox="0 0 375 374.999991" height="500" preserveAspectRatio="xMidYMid meet" version="1.0"><defs><g/><clipPath id="3b298a911f"><path d="M 270.632812 118.339844 L 340.375 118.339844 L 340.375 190.6875 L 270.632812 190.6875 Z M 270.632812 118.339844 " clip-rule="nonzero"/></clipPath></defs><rect x="-37.5" width="450" fill="#ffffff" y="-37.499999" height="449.999989" fill-opacity="1"/><rect x="-37.5" width="450" fill="#ff66c4" y="-37.499999" height="449.999989" fill-opacity="1"/><g clip-path="url(#3b298a911f)"><path fill="#e1f16b" d="M 336.039062 160.269531 C 336.132812 159.875 336.222656 159.480469 336.300781 159.082031 C 336.46875 158.824219 336.617188 158.3125 336.765625 157.929688 C 336.824219 157.535156 336.589844 157.5 336.738281 157.144531 C 336.734375 156.75 336.933594 156.570312 336.875 156.914062 C 336.9375 156.828125 336.972656 156.578125 337.035156 156.507812 C 337.085938 156.074219 337.125 155.664062 337.097656 155.484375 C 337.015625 155.824219 336.957031 156.4375 336.804688 156.300781 C 336.835938 156.011719 336.863281 155.722656 336.886719 155.4375 C 337.011719 154.90625 337.09375 155.707031 337.148438 154.785156 C 337.199219 154.324219 337.097656 154.589844 337.058594 154.503906 C 337.019531 154.425781 337.007812 154.269531 336.964844 154.222656 C 336.976562 154.019531 336.964844 153.921875 336.941406 153.902344 C 336.925781 152.992188 337.058594 152.804688 337.015625 151.949219 C 337.171875 151.769531 337.128906 152.816406 337.246094 152.84375 C 337.382812 153.046875 337.335938 152.347656 337.324219 151.886719 C 337.3125 151.863281 337.300781 151.84375 337.289062 151.820312 C 337.003906 150.558594 336.878906 149.917969 336.511719 148.96875 C 336.535156 148.902344 336.441406 148.632812 336.382812 148.425781 C 336.507812 148.449219 336.289062 147.902344 336.40625 147.921875 C 336.523438 148.082031 336.707031 148.796875 336.816406 149.007812 C 336.820312 148.886719 336.835938 148.789062 336.820312 148.617188 C 336.757812 148.109375 336.675781 148.15625 336.605469 147.648438 C 336.625 147.648438 336.621094 147.597656 336.613281 147.527344 C 336.5625 147.375 336.554688 147.296875 336.5625 147.25 C 336.539062 147.121094 336.511719 146.996094 336.515625 146.941406 C 336.515625 146.851562 336.515625 146.800781 336.503906 146.75 C 336.449219 146.554688 336.390625 146.355469 336.367188 146.214844 C 336.367188 146.210938 336.367188 146.210938 336.367188 146.210938 L 336.273438 145.808594 C 336.285156 145.980469 336.296875 146.160156 336.226562 146.15625 C 336.222656 146.417969 336.433594 146.550781 336.453125 146.859375 C 336.316406 146.710938 336.117188 146.285156 335.949219 146.039062 C 335.730469 145.539062 335.714844 145.34375 335.582031 144.980469 C 335.351562 144.535156 335.617188 145.285156 335.464844 145.164062 C 335.367188 144.957031 335.3125 144.980469 335.207031 144.753906 C 335.0625 144.445312 335.035156 144.625 334.894531 144.417969 C 334.765625 144.234375 334.589844 143.71875 334.542969 143.859375 C 334.335938 143.238281 333.835938 142.683594 333.867188 142.347656 C 333.699219 142.113281 333.566406 141.996094 333.371094 141.707031 C 333.046875 141.140625 332.761719 140.640625 332.582031 140.25 C 332.351562 139.886719 332.339844 140.007812 332.070312 139.570312 C 332.066406 139.351562 331.765625 138.878906 331.894531 138.777344 C 331.464844 138.175781 331.191406 137.914062 330.886719 137.605469 C 330.75 137.441406 330.683594 137.414062 330.628906 137.40625 C 331.039062 138.003906 331.433594 138.609375 331.800781 139.230469 C 335.367188 145.273438 336.757812 152.410156 335.894531 159.136719 C 335.695312 159.730469 335.808594 159.164062 335.605469 159.304688 C 335.5 160.019531 335.78125 159.527344 335.710938 160.097656 C 335.550781 161.175781 335.316406 162.292969 335.011719 163.429688 C 335.023438 163.394531 335.035156 163.363281 335.046875 163.328125 C 335.363281 162.460938 335.628906 161.621094 335.867188 160.945312 C 335.96875 160.734375 336.0625 160.703125 336.15625 160.6875 C 336.28125 160.183594 336.019531 160.539062 336.039062 160.269531 Z M 336.074219 167.792969 L 335.941406 167.816406 C 335.808594 168.019531 335.660156 168.28125 335.472656 168.667969 C 335.535156 168.648438 335.527344 168.730469 335.515625 168.8125 C 335.707031 168.546875 335.996094 168.136719 336.074219 167.792969 Z M 293.835938 185.660156 C 293.621094 185.582031 293.488281 185.511719 293.355469 185.4375 C 293.308594 185.542969 293.8125 185.757812 293.835938 185.660156 Z M 290.757812 184.1875 C 290.019531 183.929688 289.972656 183.777344 289.601562 183.535156 C 289.515625 183.476562 289.554688 183.359375 289.28125 183.21875 C 289.128906 183.222656 288.828125 183.117188 288.800781 183.257812 C 288.773438 183.40625 289.28125 183.839844 289.085938 183.945312 C 289.546875 184.234375 289.292969 183.988281 289.757812 184.273438 C 289.359375 183.789062 289.238281 183.550781 289.5625 183.503906 C 290.179688 183.941406 290.386719 183.960938 290.757812 184.1875 Z M 278.207031 176.671875 C 278.046875 176.695312 278.488281 177.222656 278.722656 177.558594 C 278.777344 177.449219 278.46875 177.050781 278.207031 176.671875 Z M 272.046875 146.265625 C 272.054688 146.703125 272.128906 146.945312 272.230469 147.082031 C 272.339844 146.695312 272.460938 146.28125 272.585938 145.875 C 272.550781 145.824219 272.523438 145.761719 272.496094 145.703125 C 272.460938 145.425781 272.320312 146.089844 272.285156 146.144531 C 272.207031 146.25 272.191406 145.789062 272.046875 146.265625 Z M 291.097656 125.070312 C 290.988281 125.125 290.871094 125.1875 290.753906 125.253906 C 290.875 125.195312 291 125.140625 291.121094 125.085938 C 291.113281 125.078125 291.105469 125.066406 291.097656 125.070312 Z M 291.421875 124.929688 C 291.394531 124.941406 291.332031 124.980469 291.273438 125.015625 C 291.328125 124.988281 291.386719 124.964844 291.445312 124.9375 C 291.4375 124.929688 291.433594 124.925781 291.421875 124.929688 Z M 291.730469 124.816406 C 291.894531 124.746094 292.0625 124.675781 292.230469 124.605469 C 292.277344 124.574219 292.332031 124.539062 292.414062 124.496094 C 292.574219 124.417969 292.753906 124.339844 292.941406 124.261719 L 292.488281 124.402344 C 292.347656 124.441406 292 124.664062 291.730469 124.816406 Z M 293.4375 123.664062 C 293.644531 123.570312 293.789062 123.523438 293.929688 123.484375 C 293.894531 123.375 293.382812 123.582031 293.4375 123.664062 Z M 296.304688 123.128906 C 296.132812 123.175781 295.953125 123.234375 295.773438 123.300781 C 295.878906 123.265625 295.984375 123.234375 296.082031 123.203125 C 296.261719 123.222656 296.320312 123.226562 296.320312 123.253906 C 296.816406 123.125 297.316406 123.015625 297.816406 122.910156 C 298.214844 122.78125 298.105469 122.6875 298.738281 122.550781 C 299.058594 122.59375 299.71875 122.394531 300.703125 122.253906 C 301.359375 122.164062 302.050781 122.097656 302.816406 121.984375 C 302.878906 122.082031 303.117188 122.191406 302.863281 122.265625 C 302.863281 122.273438 302.867188 122.277344 302.867188 122.28125 C 303.332031 122.261719 303.792969 122.253906 304.253906 122.253906 C 304.308594 122.21875 304.371094 122.183594 304.394531 122.148438 C 304.730469 122.074219 304.644531 122.136719 305.164062 122.117188 C 305.652344 122.097656 305.367188 121.976562 305.601562 121.925781 C 306.199219 121.882812 306.074219 122.011719 306.457031 122.027344 C 307.144531 122.058594 307.238281 121.996094 307.5625 121.972656 C 308.273438 122.058594 308.5625 121.992188 309.15625 122.136719 C 309.777344 122.109375 310.332031 122.269531 311.058594 122.304688 C 311.082031 122.339844 311.308594 122.367188 311.460938 122.398438 C 311.8125 122.539062 311.980469 122.691406 312.390625 122.835938 C 312.9375 122.917969 313.359375 123.042969 313.714844 123.09375 C 314.082031 123.152344 313.917969 123.015625 314.410156 123.140625 L 314.464844 123.265625 C 314.886719 123.34375 314.910156 123.25 315.332031 123.335938 C 316.257812 123.558594 316.789062 123.78125 317.574219 124.042969 C 317.757812 124.1875 318.09375 124.355469 318.03125 124.472656 C 318.1875 124.5625 318.273438 124.574219 318.585938 124.710938 C 318.777344 124.796875 318.992188 124.917969 319.316406 125.03125 C 319.457031 125.082031 319.480469 125.0625 319.660156 125.136719 C 319.875 125.207031 320.011719 125.230469 319.984375 125.152344 C 320.105469 125.167969 320.289062 125.226562 320.496094 125.296875 C 321.359375 125.6875 321.050781 125.710938 321.253906 125.882812 C 321.757812 126.121094 322.378906 126.414062 322.640625 126.617188 C 323.074219 126.84375 322.855469 126.570312 323.292969 126.804688 C 324.679688 127.578125 325.832031 128.398438 326.574219 129.085938 C 326.597656 129.101562 326.625 129.121094 326.648438 129.132812 C 325.140625 127.761719 323.621094 126.640625 321.992188 125.65625 C 320.320312 124.652344 318.527344 123.789062 316.4375 123.074219 C 316.265625 122.976562 316.289062 122.878906 315.914062 122.746094 C 315.726562 122.683594 315.625 122.652344 315.578125 122.601562 C 315.292969 122.566406 314.753906 122.410156 314.65625 122.476562 C 313.863281 122.214844 313.710938 121.96875 312.597656 121.753906 C 312.253906 121.695312 312.621094 121.921875 312.34375 121.886719 C 312.015625 121.8125 311.835938 121.765625 311.644531 121.683594 C 311.511719 121.625 311.566406 121.5625 311.410156 121.496094 C 311.101562 121.367188 310.855469 121.238281 310.3125 121.15625 C 310.179688 121.136719 310.167969 121.179688 310.179688 121.210938 C 310.222656 121.296875 310.457031 121.367188 310.777344 121.472656 L 310.882812 121.703125 C 310.515625 121.660156 310.144531 121.699219 309.773438 121.667969 C 309.339844 121.632812 308.941406 121.523438 308.253906 121.496094 C 308.011719 121.492188 307.972656 121.515625 307.773438 121.507812 C 307.765625 121.507812 307.4375 121.464844 307.082031 121.441406 C 306.730469 121.414062 306.351562 121.402344 306.25 121.4375 C 306.082031 121.492188 305.941406 121.433594 305.414062 121.449219 C 305.144531 121.460938 305.152344 121.492188 304.9375 121.503906 C 304.527344 121.527344 303.917969 121.550781 303.445312 121.609375 C 303.1875 121.640625 302.847656 121.707031 302.644531 121.730469 C 302.664062 121.730469 302.558594 121.707031 302.453125 121.71875 C 302.398438 121.726562 302.164062 121.765625 302.125 121.761719 C 301.863281 121.75 301.96875 121.769531 301.46875 121.859375 C 300.570312 122.023438 299.601562 122.191406 298.710938 122.4375 C 298.472656 122.382812 298.367188 122.359375 298.332031 122.277344 C 298.269531 122.144531 298.777344 121.976562 298.667969 121.820312 C 298.582031 121.695312 297.894531 121.773438 297.957031 121.5625 C 297.425781 121.683594 297.730469 121.726562 297.203125 121.855469 C 297.824219 121.914062 297.980469 122.09375 297.785156 122.355469 C 297.042969 122.484375 296.804688 122.695312 296.261719 122.914062 C 296.367188 122.972656 296.445312 123.035156 296.304688 123.128906 Z M 309.84375 118.679688 C 309.886719 118.796875 310.382812 118.859375 310.835938 118.945312 C 310.933594 118.8125 310.246094 118.75 309.84375 118.679688 Z M 331.453125 130.457031 C 331.46875 130.601562 331.800781 130.988281 331.886719 131.191406 C 332.222656 131.605469 332.042969 131.617188 332.414062 132.078125 C 332.949219 132.617188 333.007812 132.273438 333.183594 132.136719 C 333.175781 132.058594 333.078125 131.90625 332.984375 131.753906 C 332.8125 131.65625 332.738281 131.734375 332.34375 131.238281 C 332.109375 130.949219 332.222656 130.9375 331.886719 130.578125 C 331.882812 130.769531 331.488281 130.3125 331.453125 130.457031 Z M 333.367188 132.5625 C 333.703125 133.019531 334.066406 133.585938 334.058594 133.347656 C 334 133.136719 333.625 132.5625 333.421875 132.394531 Z M 333.828125 141.421875 C 334.167969 142.003906 334.339844 142.171875 334.457031 142.152344 C 334.371094 141.886719 333.976562 141.214844 333.824219 141.070312 C 333.753906 141.109375 333.769531 141.246094 333.828125 141.421875 Z M 330.40625 135.996094 C 330.027344 135.570312 329.964844 135.652344 329.871094 135.679688 C 330.3125 136.195312 330.207031 135.859375 330.40625 135.996094 Z M 330.132812 136.703125 C 330.105469 136.574219 330.003906 136.355469 329.90625 136.195312 C 329.6875 135.957031 329.550781 135.847656 329.449219 135.800781 C 329.683594 136.097656 329.910156 136.398438 330.132812 136.703125 Z M 331.78125 161.167969 C 331.589844 162.328125 331.175781 163.640625 330.6875 164.90625 C 330.199219 166.171875 329.640625 167.386719 329.242188 168.441406 C 329.800781 167.214844 329.550781 168.269531 329.917969 167.648438 C 329.9375 167.050781 330.53125 165.769531 331.007812 164.433594 C 331.496094 163.105469 331.859375 161.730469 331.78125 161.167969 Z M 332.132812 163.511719 C 331.925781 163.847656 331.71875 164.625 331.503906 165.242188 C 331.453125 165.394531 331.402344 165.535156 331.351562 165.660156 C 331.335938 165.730469 331.292969 165.839844 331.214844 166.011719 C 331.179688 166.042969 331.15625 166.054688 331.136719 166.0625 C 331.066406 166.140625 331.007812 166.140625 330.957031 166.027344 C 330.695312 166.835938 330.519531 167.089844 330.507812 167.3125 C 330.738281 167.082031 330.589844 167.457031 330.390625 167.917969 C 330.1875 168.378906 329.925781 168.921875 329.988281 169.054688 C 330.476562 168.238281 330.289062 168.476562 330.714844 167.511719 C 330.933594 167.445312 331.164062 167.292969 331.414062 166.890625 C 331.597656 166.15625 330.820312 167.519531 331.046875 166.726562 C 331.570312 165.652344 331.972656 164.460938 332.132812 163.511719 Z M 321.957031 128.949219 C 321.882812 128.851562 321.789062 128.746094 321.695312 128.675781 C 321.414062 128.546875 321.148438 128.417969 320.894531 128.289062 C 321.253906 128.5 321.605469 128.71875 321.957031 128.949219 Z M 329.730469 135.636719 C 329.804688 135.585938 329.527344 135.308594 329.65625 135.292969 C 329.265625 134.84375 329.253906 134.964844 329.011719 134.738281 C 328.730469 134.464844 328.550781 134.191406 328.386719 133.992188 C 328.203125 133.769531 328.027344 133.582031 327.875 133.378906 C 327.371094 132.957031 327.375 133.140625 326.632812 132.464844 C 326.507812 132.402344 326.480469 132.453125 326.472656 132.527344 C 326.730469 132.773438 326.984375 133.023438 327.234375 133.277344 C 327.253906 133.285156 327.277344 133.292969 327.292969 133.296875 C 327.527344 133.527344 327.839844 133.808594 327.945312 133.972656 C 328.023438 134.019531 328.113281 134.105469 328.210938 134.171875 C 328.40625 134.308594 328.40625 134.324219 328.597656 134.539062 C 328.984375 134.980469 329.101562 134.976562 329.730469 135.636719 Z M 329.214844 169.238281 C 329.128906 169.363281 329.054688 169.488281 329.003906 169.605469 C 329.023438 169.605469 329.039062 169.617188 329.050781 169.652344 C 329.140625 169.449219 329.191406 169.320312 329.214844 169.238281 Z M 329.824219 168.40625 C 329.53125 168.914062 329.195312 169.421875 328.953125 169.808594 C 328.953125 169.828125 328.945312 169.847656 328.945312 169.867188 C 329.265625 169.414062 329.929688 168.664062 329.824219 168.40625 Z M 328.914062 171.757812 C 329.191406 171.46875 329.550781 170.882812 329.882812 170.261719 C 329.851562 170.09375 329.59375 170.476562 329.34375 170.894531 C 329.097656 171.308594 328.851562 171.757812 328.914062 171.757812 Z M 328.789062 171.015625 C 329.117188 170.625 329.429688 170.121094 329.511719 169.816406 C 329.21875 170.335938 329.003906 170.484375 328.789062 170.648438 C 328.570312 170.8125 328.351562 170.988281 328.011719 171.546875 C 328.121094 171.675781 328.460938 171.40625 328.789062 171.015625 Z M 302.792969 184.625 C 303.363281 184.660156 303.347656 184.558594 303.390625 184.472656 C 302.714844 184.421875 303.027344 184.582031 302.792969 184.625 Z M 318.996094 178.679688 C 318.820312 178.804688 318.605469 178.941406 318.371094 179.089844 C 318.503906 179.101562 318.71875 179.019531 318.953125 178.90625 C 318.898438 178.859375 318.945312 178.769531 318.996094 178.679688 Z M 320.023438 177.863281 C 320.175781 177.730469 320.445312 177.539062 320.378906 177.507812 C 319.753906 177.96875 319.59375 178.152344 319.59375 178.261719 C 319.597656 178.367188 319.757812 178.390625 319.742188 178.488281 C 320.261719 178.109375 320.261719 177.96875 320.96875 177.46875 C 320.914062 177.242188 320.160156 177.988281 320.023438 177.863281 Z M 323.167969 174.535156 C 323.246094 174.402344 323.15625 174.210938 322.78125 174.394531 C 322.765625 174.414062 322.746094 174.429688 322.730469 174.449219 C 322.628906 174.558594 322.515625 174.675781 322.398438 174.796875 C 322.417969 174.863281 322.53125 174.871094 322.113281 175.210938 C 321.984375 175.285156 321.929688 175.304688 321.902344 175.300781 C 321.324219 175.878906 320.648438 176.519531 319.964844 177.097656 C 319.691406 177.332031 319.417969 177.554688 319.152344 177.765625 C 319.285156 177.816406 319.929688 177.402344 320.707031 176.773438 C 321.507812 176.132812 322.433594 175.253906 323.167969 174.535156 Z M 322.964844 175.886719 C 322.773438 175.894531 323.011719 175.632812 322.847656 175.625 C 322.179688 176.179688 322.050781 176.703125 322.367188 176.449219 C 322.316406 176.335938 322.644531 176.214844 322.964844 175.886719 Z M 325.519531 171.03125 L 325.753906 171.042969 C 325.964844 170.722656 326.316406 170.242188 326.25 170.171875 C 325.996094 170.515625 325.886719 170.355469 325.519531 171.03125 Z M 328.496094 171.535156 C 328.265625 171.507812 327.828125 172.15625 327.378906 172.714844 C 327.144531 172.78125 327.757812 172.042969 327.621094 172.011719 C 326.960938 172.792969 326.050781 173.65625 325.507812 174.453125 C 325.449219 174.0625 326.40625 173.082031 327.128906 171.777344 C 327.445312 171.386719 327.625 171.402344 327.910156 171.082031 C 328.148438 170.527344 328.351562 170.023438 328.992188 168.933594 C 328.441406 169.5625 327.785156 170.691406 326.917969 171.902344 C 326.058594 173.113281 324.976562 174.402344 323.78125 175.355469 C 323.46875 175.867188 322.933594 176.359375 322.3125 176.832031 C 321.695312 177.304688 320.992188 177.757812 320.332031 178.222656 C 320.199219 178.316406 320.0625 178.414062 319.921875 178.511719 C 319.941406 178.515625 319.960938 178.515625 319.976562 178.527344 C 318.171875 179.835938 316.457031 180.871094 314.65625 181.738281 C 312.855469 182.59375 310.960938 183.289062 308.746094 183.734375 C 308.425781 183.796875 308.101562 183.851562 307.773438 183.90625 C 307.773438 183.960938 307.902344 184.011719 307.824219 184.066406 C 307.726562 184.132812 307.050781 184.226562 306.902344 184.328125 C 306.574219 184.332031 306.152344 184.355469 305.964844 184.3125 C 305.875 184.335938 305.75 184.339844 305.632812 184.363281 C 305.398438 184.402344 305.386719 184.390625 305.101562 184.375 C 304.511719 184.339844 304.4375 184.421875 303.523438 184.40625 C 303.507812 184.492188 303.902344 184.492188 303.820312 184.589844 C 304.414062 184.632812 304.335938 184.539062 304.667969 184.527344 C 305.0625 184.523438 305.378906 184.589844 305.636719 184.613281 C 305.925781 184.640625 306.183594 184.648438 306.433594 184.683594 C 307.089844 184.625 306.957031 184.496094 307.957031 184.449219 C 308.164062 184.378906 308.007812 184.285156 307.9375 184.199219 C 308.667969 184.09375 308.832031 184.1875 309.136719 184.226562 C 309.871094 184.027344 309.265625 183.898438 309.078125 183.726562 C 309.421875 183.597656 310 183.492188 310.574219 183.402344 C 311.222656 183.300781 311.503906 183.363281 311.925781 183.296875 C 312.0625 183.269531 312.140625 183.25 312.1875 183.226562 C 312.042969 183.25 311.902344 183.261719 311.785156 183.261719 C 312.65625 183.003906 313.414062 182.707031 313.535156 182.511719 C 313.84375 182.40625 313.746094 182.503906 313.597656 182.558594 C 313.742188 182.699219 314.050781 182.574219 314.375 182.4375 C 314.695312 182.296875 315.03125 182.140625 315.253906 182.234375 C 315.148438 182.28125 315.042969 182.324219 314.9375 182.367188 C 315.117188 182.320312 315.292969 182.277344 315.449219 182.242188 C 315.484375 182.328125 315.339844 182.449219 315.132812 182.574219 C 315.628906 182.367188 316.183594 182.179688 316.265625 182.28125 C 316.496094 182.160156 316.726562 182.035156 316.960938 181.910156 C 316.960938 181.898438 316.960938 181.890625 316.972656 181.878906 C 316.996094 181.847656 317.128906 181.816406 317.097656 181.785156 C 317.074219 181.765625 317.242188 181.6875 317.183594 181.671875 C 317.332031 181.628906 317.488281 181.582031 317.703125 181.480469 C 317.964844 181.363281 318.128906 181.175781 318.386719 181.046875 C 318.523438 180.976562 318.714844 180.875 318.917969 180.773438 C 320.34375 179.890625 321.78125 178.871094 323.113281 177.722656 C 325.292969 175.863281 327.183594 173.667969 328.496094 171.535156 Z M 316.675781 182.21875 C 316.09375 182.5 315.453125 182.800781 314.773438 183.046875 C 314.738281 183.074219 314.699219 183.097656 314.671875 183.117188 C 314.242188 183.265625 314.101562 183.234375 313.742188 183.332031 C 313.699219 183.390625 313.601562 183.449219 313.476562 183.507812 C 313.488281 183.550781 313.570312 183.585938 313.675781 183.609375 C 314.074219 183.46875 314.445312 183.328125 314.789062 183.195312 C 315.457031 182.941406 316.050781 182.71875 316.683594 182.578125 C 316.554688 182.53125 316.449219 182.585938 316.515625 182.453125 C 316.347656 182.4375 316.671875 182.308594 316.734375 182.246094 C 316.753906 182.234375 316.703125 182.226562 316.675781 182.21875 Z M 312.207031 183.746094 L 312.335938 183.859375 C 312.546875 183.808594 312.671875 183.757812 312.714844 183.714844 C 312.570312 183.734375 312.445312 183.734375 312.367188 183.703125 C 312.316406 183.714844 312.265625 183.726562 312.207031 183.746094 Z M 316.707031 182.585938 C 316.160156 182.84375 315.609375 183.085938 315.058594 183.304688 C 315.390625 183.195312 315.714844 183.101562 316.035156 183.019531 C 316.40625 182.855469 316.367188 182.769531 316.730469 182.597656 C 316.722656 182.59375 316.714844 182.589844 316.707031 182.585938 Z M 323.953125 177.546875 C 323.003906 178.269531 321.75 179.140625 320.605469 179.867188 C 320.367188 180.019531 320.132812 180.167969 319.910156 180.308594 C 320.117188 180.210938 320.332031 180.105469 320.46875 180.03125 C 320.726562 179.894531 320.96875 179.730469 321.21875 179.585938 C 321.699219 179.308594 322.226562 178.992188 322.757812 178.648438 C 323.234375 178.289062 323.671875 177.910156 323.953125 177.546875 Z M 272.234375 151.972656 C 272.222656 152.125 272.21875 152.304688 272.210938 152.464844 C 272.234375 152.378906 272.257812 152.273438 272.273438 152.117188 C 272.28125 151.507812 272.097656 151.515625 271.910156 151.53125 C 271.863281 151.914062 271.898438 152.453125 271.957031 152.941406 C 272.039062 152.855469 271.976562 152.21875 272.019531 151.949219 C 272.105469 151.859375 272.1875 151.792969 272.234375 151.972656 Z M 331.789062 167.125 C 330.648438 169.738281 329.097656 172.292969 327.148438 174.613281 C 326.285156 175.640625 325.339844 176.621094 324.328125 177.542969 C 324.46875 177.4375 324.609375 177.328125 324.757812 177.210938 C 325.039062 177 325.878906 176.339844 326.289062 175.976562 C 326.707031 175.613281 326.984375 175.355469 327.207031 175.144531 C 327.910156 174.324219 328.582031 173.46875 329.207031 172.570312 C 330.417969 170.832031 331.460938 168.949219 332.277344 166.988281 C 333.09375 165.027344 333.679688 162.988281 334.011719 160.960938 L 334.160156 160.890625 C 334.144531 161.605469 333.917969 162.933594 333.503906 164.269531 C 333.097656 165.605469 332.503906 166.941406 332.011719 167.738281 C 331.359375 169.519531 330.078125 171.921875 328.171875 174.296875 C 328.179688 174.292969 328.183594 174.289062 328.191406 174.285156 C 328.265625 174.222656 328.332031 174.128906 328.351562 174.160156 C 328.71875 174.023438 328.183594 174.574219 328.332031 174.601562 C 328.527344 174.359375 328.71875 174.121094 328.902344 173.878906 C 328.9375 173.722656 329.230469 173.359375 329.207031 173.246094 C 329.453125 172.960938 329.730469 172.636719 329.828125 172.429688 C 329.816406 172.457031 329.953125 172.207031 329.894531 172.292969 C 330.054688 172.0625 330.125 172.058594 330.257812 171.878906 C 330.339844 171.761719 330.316406 171.742188 330.421875 171.597656 C 330.550781 171.421875 330.636719 171.335938 330.746094 171.195312 C 331.175781 170.503906 331.539062 169.847656 331.839844 169.257812 C 332.46875 167.933594 332.679688 166.933594 333.273438 166.164062 L 333.957031 163.476562 C 334.21875 162.453125 334.441406 161.582031 334.621094 161.75 C 334.789062 160.878906 334.746094 160.855469 334.722656 160.8125 C 334.691406 160.769531 334.679688 160.707031 334.808594 159.75 C 334.878906 160.257812 334.796875 160.304688 335.027344 159.632812 C 335 158.761719 334.847656 159.675781 334.910156 158.855469 C 335.011719 158.296875 335.042969 158.738281 335.125 158.730469 C 335.097656 158.519531 335.082031 157.980469 335.195312 157.835938 C 335.199219 157.429688 335.078125 157.886719 335.035156 158.21875 C 334.894531 157.660156 335.222656 156.578125 335.0625 155.878906 C 335.171875 155.71875 335.175781 156.078125 335.261719 156.035156 C 335.300781 155.507812 335.289062 155.257812 335.28125 154.992188 C 335.269531 154.730469 335.261719 154.457031 335.273438 153.886719 C 335.144531 154.792969 335.246094 155.359375 334.976562 154.738281 C 334.859375 155.402344 334.886719 156.65625 334.804688 157.855469 C 334.730469 159.050781 334.554688 160.183594 334.28125 160.566406 C 334.484375 160.136719 334.410156 159.566406 334.253906 160.308594 C 334.230469 159.925781 334.363281 158.773438 334.453125 157.65625 C 334.554688 156.539062 334.613281 155.457031 334.71875 155.230469 C 334.570312 155.214844 334.5625 154.386719 334.507812 153.566406 C 334.460938 152.742188 334.359375 151.925781 334.207031 151.941406 C 334.417969 154.203125 334.402344 156.679688 334.027344 159.257812 C 333.65625 161.835938 332.929688 164.507812 331.789062 167.125 Z M 334.007812 156.441406 C 334.097656 156.269531 334.199219 156.136719 334.183594 155.613281 C 333.980469 155.542969 334.050781 156.492188 333.84375 156.417969 C 333.847656 156.839844 333.777344 157.488281 333.867188 157.519531 C 333.84375 156.832031 333.917969 156.617188 334.007812 156.441406 Z M 340.488281 157.40625 C 340.46875 157.625 340.445312 158.226562 340.421875 158.613281 C 340.402344 158.960938 340.402344 159.199219 340.332031 159.429688 C 340.394531 160.199219 340.214844 161.246094 340.011719 162.53125 C 339.882812 163.367188 339.738281 164.367188 339.574219 165.015625 C 339.566406 165.054688 339.535156 165.054688 339.496094 165.222656 C 339.488281 165.269531 339.472656 165.363281 339.457031 165.410156 C 339.40625 165.59375 339.292969 165.96875 339.164062 166.382812 C 339.050781 166.742188 339.074219 166.910156 338.96875 167.292969 C 338.980469 167.257812 338.90625 167.386719 338.878906 167.492188 C 338.8125 167.722656 338.742188 168.007812 338.664062 168.230469 C 338.648438 168.277344 338.617188 168.261719 338.566406 168.429688 C 338.46875 168.726562 338.4375 168.75 338.351562 168.992188 C 338.210938 169.378906 338.132812 169.664062 337.976562 170.078125 C 337.816406 170.484375 337.605469 170.902344 337.40625 171.355469 C 337.160156 171.914062 336.851562 172.710938 336.578125 172.960938 C 336.386719 173.367188 336.414062 173.453125 336.117188 173.980469 C 335.960938 174.148438 335.726562 174.589844 335.535156 174.847656 C 335.023438 175.8125 334.535156 176.542969 334.007812 177.300781 C 333.894531 177.40625 333.742188 177.617188 333.597656 177.78125 C 333.527344 177.863281 333.347656 178.027344 333.292969 178.097656 C 333.144531 178.269531 332.992188 178.535156 332.84375 178.714844 C 332.789062 178.78125 332.558594 178.976562 332.527344 179.019531 C 332.320312 179.269531 332.046875 179.65625 331.820312 179.917969 C 331.761719 179.871094 331.429688 180.351562 331.242188 180.496094 C 331.070312 180.632812 330.957031 180.789062 330.699219 181.066406 C 330.425781 181.355469 330.351562 181.359375 330.011719 181.761719 C 329.828125 181.972656 329.871094 181.964844 329.617188 182.175781 C 329.382812 182.363281 329.242188 182.558594 328.761719 182.972656 C 328.710938 183.015625 328.71875 182.964844 328.578125 183.09375 C 328.394531 183.265625 328.277344 183.28125 328.074219 183.464844 C 328.039062 183.5 327.972656 183.5625 327.933594 183.59375 L 327.136719 184.199219 C 326.648438 184.574219 326.039062 184.988281 325.597656 185.210938 C 325.277344 185.472656 324.988281 185.648438 324.644531 185.871094 C 324.441406 186.003906 324.003906 186.296875 323.824219 186.394531 C 323.71875 186.457031 323.589844 186.484375 323.425781 186.574219 C 323.269531 186.660156 323.121094 186.78125 323.070312 186.761719 C 322.679688 187.007812 322.234375 187.304688 321.902344 187.429688 C 321.742188 187.496094 321.605469 187.574219 321.371094 187.691406 C 321.246094 187.753906 321.195312 187.753906 321.167969 187.765625 C 320.722656 187.988281 320.511719 188.132812 320.132812 188.273438 C 320.0625 188.300781 319.652344 188.488281 319.589844 188.503906 C 319.472656 188.539062 318.804688 188.78125 318.316406 189.015625 C 318.207031 189.011719 317.953125 189.113281 317.859375 189.097656 C 316.925781 189.503906 316.566406 189.496094 315.652344 189.828125 C 315.382812 189.800781 314.699219 190.019531 314.371094 190.015625 C 312.53125 190.566406 310.742188 190.847656 310.226562 190.589844 C 310.40625 190.558594 310.589844 190.527344 310.769531 190.492188 C 310.378906 190.402344 311.3125 190.207031 310.695312 190.210938 C 310.203125 190.320312 310.648438 190.402344 309.949219 190.527344 C 309.542969 190.605469 309.257812 190.625 309.160156 190.574219 C 308.609375 190.667969 309.035156 190.542969 308.921875 190.535156 C 308.8125 190.527344 308.386719 190.566406 308.136719 190.554688 C 307.820312 190.546875 307.738281 190.507812 307.503906 190.511719 C 307.398438 190.511719 307.246094 190.539062 307.140625 190.542969 C 307.082031 190.546875 306.855469 190.527344 306.929688 190.523438 C 306.828125 190.53125 306.585938 190.617188 306.621094 190.617188 C 306.046875 190.632812 305.964844 190.480469 305.445312 190.5625 C 305.277344 190.519531 305.554688 190.511719 305.851562 190.511719 C 306.148438 190.511719 306.460938 190.519531 306.355469 190.523438 C 306.570312 190.515625 307.324219 190.367188 307.601562 190.394531 C 307.621094 190.398438 307.605469 190.429688 307.628906 190.429688 C 307.699219 190.425781 307.941406 190.386719 307.992188 190.390625 C 308.285156 190.421875 308.820312 190.277344 309.105469 190.292969 C 309.328125 190.304688 309.488281 190.257812 309.855469 190.214844 C 310.109375 190.1875 310.644531 190.117188 311.316406 189.980469 C 311.464844 189.949219 311.523438 189.976562 311.707031 189.933594 C 311.683594 189.9375 311.742188 189.890625 311.851562 189.863281 C 311.96875 189.835938 312.195312 189.820312 312.414062 189.769531 C 312.742188 189.691406 313.171875 189.644531 313.539062 189.546875 C 314.007812 189.421875 314.238281 189.269531 314.898438 189.097656 C 315.046875 189.054688 315.230469 189.039062 315.453125 188.945312 C 315.484375 188.933594 315.695312 188.828125 315.585938 188.863281 C 316.003906 188.734375 316.242188 188.710938 316.550781 188.621094 C 317.089844 188.292969 317.886719 188.09375 318.597656 187.785156 C 319.277344 187.496094 319.917969 187.128906 320.703125 186.710938 C 320.796875 186.734375 320.941406 186.71875 321.179688 186.605469 C 321.199219 186.757812 321.242188 186.78125 321.539062 186.773438 C 322.171875 186.417969 322.238281 186.28125 322.90625 185.882812 C 323.175781 185.609375 323.144531 185.460938 323.300781 185.234375 C 323.726562 184.929688 323.851562 184.953125 324.273438 184.636719 C 324.320312 184.703125 324.265625 184.824219 324.226562 184.933594 C 324.054688 185.15625 324.625 184.785156 324.6875 184.773438 C 324.820312 184.753906 324.503906 185.085938 324.941406 184.855469 C 325.308594 184.476562 325.40625 184.230469 325.394531 184.050781 C 325.90625 183.707031 326.144531 183.324219 326.382812 183.238281 C 326.546875 183.019531 326.910156 182.675781 327.035156 182.472656 C 327.597656 182.050781 327.726562 181.808594 328.347656 181.214844 C 328.640625 181.0625 328.695312 181.117188 328.519531 181.394531 C 328.863281 181.230469 329.34375 180.703125 329.734375 180.207031 C 329.613281 180.207031 329.207031 180.703125 328.984375 180.863281 C 328.863281 180.863281 328.757812 180.851562 328.851562 180.691406 C 329.132812 180.453125 329.496094 180.054688 329.5625 180.183594 C 329.824219 179.746094 330.175781 179.460938 330.539062 178.933594 C 330.816406 178.550781 330.847656 178.664062 331.011719 178.511719 C 331.273438 178.179688 331.53125 177.839844 331.78125 177.496094 C 331.96875 177.367188 332.230469 177.046875 332.359375 177.050781 C 332.589844 176.699219 332.730469 176.425781 332.882812 176.140625 C 333.015625 175.871094 332.886719 175.894531 333.097656 175.535156 C 333.703125 174.726562 334.035156 173.988281 334.53125 173.453125 C 335.121094 172.457031 335.4375 171.648438 335.496094 171.175781 C 335.554688 171.019531 335.65625 170.824219 335.707031 170.671875 C 335.726562 170.617188 335.753906 170.464844 335.734375 170.515625 C 335.828125 170.265625 335.914062 170.179688 335.976562 169.996094 C 336.066406 169.722656 336.019531 169.582031 336.253906 169.03125 C 336.195312 169.140625 336.136719 169.25 336.085938 169.351562 C 335.851562 169.539062 335.878906 169.519531 335.863281 169.382812 C 335.859375 169.339844 336.105469 168.816406 335.867188 169.070312 C 336.09375 168.648438 336.074219 168.558594 336.214844 168.234375 C 335.976562 168.523438 335.714844 168.875 335.425781 169.289062 C 335.199219 169.53125 335.492188 168.882812 335.246094 169.3125 C 335.136719 169.410156 335 169.570312 334.886719 169.664062 C 334.617188 170.382812 335.339844 169.585938 335.5 169.746094 C 335.398438 169.941406 335.503906 169.875 335.539062 169.894531 C 335.46875 170.085938 335.34375 170.339844 335.101562 170.722656 C 334.859375 171.164062 335.042969 171.117188 334.671875 171.691406 C 334.417969 171.890625 334.09375 172.496094 333.492188 173.292969 C 333.097656 173.820312 332.652344 174.359375 332.195312 174.980469 C 332.082031 174.957031 331.839844 175.046875 331.960938 174.816406 C 331.886719 174.679688 331.449219 175.019531 331.5625 174.792969 C 332.070312 174.089844 332.046875 174.4375 332.523438 173.757812 C 333 173.191406 332.597656 173.457031 332.804688 173.144531 C 332.671875 173.148438 332.210938 173.863281 331.980469 174.050781 C 331.632812 174.445312 331.84375 174.339844 331.757812 174.496094 C 331.464844 174.863281 331.3125 174.945312 331.058594 175.21875 C 330.976562 175.335938 330.863281 175.492188 330.898438 175.515625 C 330.984375 175.5625 331.164062 175.292969 331.074219 175.527344 C 331.054688 175.582031 330.949219 175.664062 330.996094 175.675781 C 331.039062 175.691406 330.949219 175.898438 330.960938 175.980469 C 330.78125 176.273438 330.796875 176.164062 330.445312 176.546875 C 330.109375 176.910156 330.398438 176.792969 330.269531 176.996094 C 329.878906 177.445312 329.875 177.269531 329.597656 177.527344 C 329.085938 177.992188 329.0625 178.105469 328.851562 178.347656 C 328.289062 178.792969 328.132812 179.046875 327.609375 179.363281 C 327.191406 179.824219 326.6875 180.101562 326.148438 180.589844 C 326.105469 180.582031 325.929688 180.726562 325.796875 180.8125 C 325.449219 180.960938 325.222656 180.972656 324.832031 181.160156 C 324.386719 181.488281 324 181.703125 323.714844 181.914062 C 323.414062 182.132812 323.625 182.113281 323.1875 182.375 L 323.066406 182.324219 C 322.710938 182.570312 322.761719 182.652344 322.402344 182.890625 C 321.589844 183.390625 321.054688 183.605469 320.316406 183.976562 C 320.085938 184.003906 319.730469 184.125 319.691406 184 C 319.519531 184.046875 319.445312 184.097656 319.128906 184.222656 C 318.9375 184.300781 318.695312 184.363281 318.386719 184.511719 C 318.25 184.578125 318.25 184.609375 318.070312 184.683594 C 317.867188 184.785156 317.753906 184.863281 317.828125 184.902344 C 317.734375 184.976562 317.5625 185.070312 317.367188 185.160156 C 316.480469 185.496094 316.683594 185.265625 316.417969 185.289062 C 315.894531 185.472656 315.246094 185.707031 314.917969 185.75 C 314.449219 185.898438 314.796875 185.933594 314.324219 186.078125 C 312.796875 186.511719 311.402344 186.753906 310.390625 186.789062 C 309.574219 187.035156 308.382812 187.050781 307.269531 187.105469 C 307.082031 187.117188 306.785156 187.1875 306.71875 187.179688 C 306.480469 187.15625 306.375 187.191406 305.726562 187.195312 C 305.296875 187.195312 304.925781 187.207031 304.152344 187.179688 C 303.804688 187.167969 303.429688 187.148438 303.019531 187.117188 C 302.984375 187.117188 302.945312 187.113281 302.90625 187.113281 C 301.882812 187.085938 300.890625 186.988281 300.289062 186.800781 C 299.878906 186.734375 299.46875 186.65625 299.035156 186.582031 C 298.628906 186.507812 298.417969 186.480469 298.0625 186.378906 C 297.957031 186.351562 298.0625 186.347656 297.855469 186.304688 C 297.53125 186.234375 297.460938 186.261719 297.117188 186.191406 C 296.796875 186.125 296.683594 186.070312 296.347656 185.980469 C 295.980469 185.886719 295.4375 185.769531 295.222656 185.695312 C 294.792969 185.558594 294.480469 185.410156 294.066406 185.246094 C 294.011719 185.230469 293.960938 185.214844 293.910156 185.199219 C 294.011719 185.253906 294.113281 185.324219 294.207031 185.375 L 295.027344 185.8125 C 295.203125 185.914062 295.941406 186.046875 296.140625 186.15625 C 296.15625 186.164062 296.132812 186.1875 296.152344 186.195312 C 296.210938 186.21875 296.429688 186.261719 296.472656 186.285156 C 296.484375 186.292969 296.46875 186.320312 296.484375 186.324219 C 296.785156 186.429688 297.167969 186.519531 297.464844 186.613281 C 297.523438 186.628906 297.75 186.667969 297.789062 186.6875 C 297.804688 186.695312 297.78125 186.722656 297.804688 186.726562 C 297.867188 186.746094 298.085938 186.777344 298.128906 186.800781 C 298.355469 186.902344 298.75 186.949219 299.140625 187.070312 C 299.308594 187.125 299.410156 187.136719 299.652344 187.191406 C 299.800781 187.222656 299.945312 187.261719 300.164062 187.304688 C 300.253906 187.320312 300.363281 187.371094 300.347656 187.367188 C 300.476562 187.386719 300.714844 187.382812 300.660156 187.371094 C 300.914062 187.417969 301.101562 187.46875 301.363281 187.523438 C 301.453125 187.542969 301.359375 187.558594 301.546875 187.578125 C 301.59375 187.582031 301.671875 187.585938 301.714844 187.59375 C 301.960938 187.636719 302.769531 187.761719 303.425781 187.769531 C 304 187.910156 304.816406 187.972656 305.316406 188.097656 C 305.542969 188.257812 305.207031 188.328125 305.21875 188.457031 C 305.085938 188.488281 304.859375 188.503906 304.558594 188.503906 C 304.742188 188.726562 303.632812 188.707031 303.414062 188.84375 C 302.414062 188.804688 301.984375 188.871094 301.242188 188.84375 C 300.957031 188.847656 300.675781 188.847656 300.824219 188.980469 C 300.023438 188.957031 299.050781 188.851562 297.925781 188.625 C 297.675781 188.414062 298.203125 188.515625 298.324219 188.449219 C 298.210938 188.339844 297.660156 188.3125 297.84375 188.425781 C 297.484375 188.265625 297.722656 188.28125 298.046875 188.3125 C 298.367188 188.347656 298.769531 188.386719 298.738281 188.308594 C 299.125 188.457031 299.410156 188.414062 299.746094 188.441406 C 300.175781 188.421875 300.320312 188.304688 300.605469 188.230469 C 301.136719 188.261719 300.902344 188.386719 301.347656 188.421875 C 301.683594 188.421875 301.386719 188.175781 301.1875 188.117188 C 300.632812 188.03125 300.34375 188.019531 300.089844 188.015625 C 299.839844 188.011719 299.621094 188.023438 299.210938 187.953125 C 299.09375 188.027344 298.574219 187.9375 298.820312 188.140625 C 298.371094 188.085938 298.445312 188 298.109375 187.929688 C 297.792969 187.855469 298.136719 188.058594 298.003906 188.054688 C 297.9375 188.054688 297.703125 188.070312 297.558594 188.105469 C 297.289062 188.058594 297.253906 188 297.035156 187.949219 C 296.785156 187.949219 296.574219 187.96875 296.628906 188.105469 C 296.3125 188.074219 295.847656 187.972656 295.484375 187.90625 C 295.566406 188.074219 295.589844 188.210938 295.449219 188.269531 C 295.164062 188.1875 294.878906 188.101562 294.59375 188.011719 C 294.417969 188.023438 294.105469 187.890625 293.769531 187.8125 C 293.660156 187.785156 293.550781 187.796875 293.457031 187.773438 C 293.394531 187.761719 293.160156 187.65625 293.121094 187.652344 C 292.894531 187.640625 291.933594 187.277344 291.3125 187.035156 C 291.066406 186.945312 290.757812 186.855469 290.507812 186.746094 C 290.214844 186.621094 289.800781 186.402344 289.535156 186.269531 C 289.238281 186.121094 289.109375 186.097656 288.894531 185.933594 C 288.894531 185.742188 288.898438 185.703125 289.011719 185.671875 C 288.890625 185.496094 289.328125 185.761719 289.472656 185.792969 C 289.273438 185.429688 289.964844 185.753906 289.714844 185.351562 C 289.40625 185.15625 289.371094 185.242188 289.257812 185.191406 C 289.074219 185.109375 288.816406 184.929688 288.640625 184.847656 C 288.449219 184.757812 288.394531 184.777344 288.1875 184.667969 C 288.226562 184.894531 288.007812 184.898438 287.914062 185.007812 C 287.976562 185.183594 288.378906 185.460938 288.257812 185.582031 C 287.953125 185.535156 286.976562 184.910156 286.253906 184.429688 C 286.160156 184.230469 286.535156 184.484375 286.25 184.210938 C 285.820312 183.808594 285.339844 183.867188 284.914062 183.316406 C 284.695312 183.195312 284.652344 183.238281 284.472656 183.160156 C 284.429688 183.140625 284.226562 182.953125 284.1875 182.941406 C 284.085938 182.898438 284.148438 183.015625 284.035156 182.957031 C 283.691406 182.664062 283 182.175781 282.90625 181.984375 C 282.640625 181.769531 282.78125 182.0625 282.34375 181.632812 C 282.199219 181.335938 281.683594 180.816406 281.726562 180.617188 C 281.453125 180.328125 281.367188 180.152344 280.964844 179.761719 C 280.871094 179.625 280.847656 179.527344 280.871094 179.460938 C 280.488281 179 280.539062 179.125 280.261719 178.753906 C 279.765625 178.289062 279.734375 178.574219 279.210938 178.042969 C 279.261719 178.273438 278.976562 177.925781 279.027344 178.15625 C 278.910156 178.0625 278.746094 177.882812 278.546875 177.628906 C 278.507812 177.753906 278.203125 177.398438 278.128906 177.449219 C 277.640625 176.75 277.238281 176.21875 276.851562 175.691406 C 276.460938 175.164062 276.089844 174.632812 275.703125 173.925781 C 275.699219 173.519531 276.230469 174.460938 276.183594 173.953125 C 276.121094 173.636719 275.835938 173.457031 275.625 173 C 275.515625 172.535156 276.015625 173.078125 276.136719 172.960938 C 276.515625 173.425781 276.933594 173.929688 277.15625 173.957031 C 277.148438 173.695312 276.859375 173.515625 276.722656 173.109375 C 276.511719 172.761719 276.476562 172.878906 276.378906 172.800781 C 276.328125 172.765625 276.199219 172.59375 276.160156 172.566406 C 276.136719 172.550781 276.15625 172.683594 276.121094 172.644531 C 275.960938 172.453125 275.597656 172.070312 275.511719 172.203125 C 275.140625 171.363281 274.992188 171.257812 274.648438 170.640625 C 274.4375 170.621094 274.351562 171.058594 274.007812 170.542969 C 273.761719 169.925781 273.683594 169.945312 273.464844 169.382812 C 273.320312 169.167969 273.109375 168.625 272.984375 168.449219 C 272.789062 167.875 272.71875 167.53125 272.453125 166.816406 C 272.402344 166.675781 272.371094 166.675781 272.316406 166.492188 C 272.167969 166.015625 272.054688 165.320312 271.8125 164.679688 C 271.820312 164.332031 271.890625 164.292969 271.96875 164.261719 C 272.03125 164.238281 272.089844 164.4375 272.171875 164.492188 C 272.289062 164.566406 272.367188 164.40625 272.472656 164.367188 C 272.691406 164.878906 272.972656 165.769531 273.203125 166.078125 C 273.441406 166.90625 273.667969 167.421875 273.890625 167.910156 L 274.042969 167.695312 C 273.890625 167.175781 273.742188 166.972656 273.636719 166.738281 C 273.503906 166.445312 273.398438 166.152344 273.28125 165.976562 C 273.226562 165.808594 273.195312 165.683594 273.171875 165.574219 C 273.054688 165.269531 272.9375 164.953125 272.808594 164.621094 C 272.710938 164.375 272.59375 164.085938 272.488281 163.808594 C 272.472656 163.796875 272.453125 163.777344 272.433594 163.734375 C 272.414062 163.644531 272.394531 163.566406 272.375 163.484375 C 272.316406 163.308594 272.277344 163.148438 272.261719 163.019531 C 272.246094 162.941406 272.230469 162.863281 272.214844 162.789062 C 272.136719 162.597656 272.078125 162.484375 272.011719 162.316406 C 271.988281 162.457031 271.945312 162.382812 271.964844 162.691406 C 271.867188 162.632812 271.769531 162.238281 271.679688 161.902344 C 271.625 162.476562 271.445312 162.050781 271.304688 161.847656 C 271.1875 161.207031 271.347656 161.28125 271.242188 160.636719 C 271.121094 159.878906 270.988281 159.53125 270.910156 158.695312 C 270.941406 158.660156 270.921875 158.441406 270.921875 158.289062 C 270.945312 158.210938 270.976562 158.144531 271.007812 158.082031 C 271.003906 158.058594 271 158.039062 270.996094 158.019531 C 271.003906 157.863281 270.960938 157.605469 270.945312 157.390625 C 270.9375 157.28125 270.949219 157.039062 270.9375 156.949219 C 270.917969 156.722656 270.839844 156.429688 270.816406 156.195312 C 270.808594 156.105469 270.832031 155.808594 270.828125 155.753906 C 270.796875 155.433594 270.714844 154.964844 270.691406 154.621094 C 270.761719 154.613281 270.65625 154.039062 270.6875 153.800781 C 270.710938 153.585938 270.679688 153.394531 270.667969 153.015625 C 270.65625 152.621094 270.703125 152.5625 270.660156 152.039062 C 270.636719 151.757812 270.617188 151.796875 270.648438 151.46875 C 270.675781 151.167969 270.636719 150.929688 270.683594 150.300781 C 270.691406 150.234375 270.71875 150.273438 270.726562 150.085938 C 270.734375 149.828125 270.808594 149.738281 270.820312 149.464844 C 270.820312 149.414062 270.824219 149.324219 270.828125 149.273438 L 270.964844 148.28125 C 271.042969 147.671875 271.179688 146.945312 271.332031 146.476562 C 271.375 146.066406 271.453125 145.738281 271.539062 145.335938 C 271.585938 145.097656 271.6875 144.582031 271.746094 144.386719 C 271.777344 144.269531 271.847656 144.160156 271.898438 143.980469 C 271.949219 143.804688 271.96875 143.617188 272.019531 143.59375 C 272.121094 143.140625 272.222656 142.617188 272.367188 142.292969 C 272.4375 142.132812 272.476562 141.980469 272.558594 141.734375 C 272.601562 141.597656 272.640625 141.5625 272.648438 141.539062 C 272.808594 141.066406 272.851562 140.8125 273.023438 140.441406 C 273.050781 140.375 273.207031 139.949219 273.242188 139.894531 C 273.300781 139.789062 273.597656 139.144531 273.777344 138.636719 C 273.859375 138.558594 273.964844 138.308594 274.042969 138.253906 C 274.414062 137.304688 274.671875 137.054688 275.085938 136.175781 C 275.292969 136.003906 275.621094 135.363281 275.855469 135.136719 C 276.765625 133.441406 277.828125 131.976562 278.375 131.792969 C 278.269531 131.945312 278.164062 132.09375 278.0625 132.246094 C 278.402344 132.035156 277.878906 132.832031 278.308594 132.390625 C 278.582031 131.964844 278.210938 132.226562 278.613281 131.640625 C 278.847656 131.300781 279.035156 131.085938 279.136719 131.050781 C 279.460938 130.59375 279.25 130.984375 279.335938 130.910156 C 279.414062 130.835938 279.691406 130.507812 279.875 130.335938 C 280.101562 130.121094 280.1875 130.089844 280.351562 129.917969 C 280.425781 129.84375 280.511719 129.71875 280.585938 129.640625 C 280.625 129.597656 280.796875 129.449219 280.75 129.503906 C 280.8125 129.429688 280.921875 129.195312 280.902344 129.222656 C 281.292969 128.804688 281.460938 128.855469 281.769531 128.429688 C 281.917969 128.335938 281.726562 128.542969 281.519531 128.75 C 281.308594 128.960938 281.082031 129.175781 281.152344 129.101562 C 281.007812 129.257812 280.582031 129.894531 280.367188 130.070312 C 280.351562 130.082031 280.339844 130.050781 280.324219 130.066406 C 280.273438 130.117188 280.132812 130.316406 280.09375 130.351562 C 279.863281 130.539062 279.589844 131.019531 279.378906 131.210938 C 279.210938 131.359375 279.132812 131.503906 278.902344 131.792969 C 278.742188 131.996094 278.414062 132.421875 278.035156 132.996094 C 277.953125 133.125 277.894531 133.144531 277.796875 133.304688 C 277.804688 133.285156 277.800781 133.359375 277.742188 133.457031 C 277.679688 133.558594 277.53125 133.730469 277.410156 133.925781 C 277.234375 134.210938 276.964844 134.546875 276.773438 134.875 C 276.53125 135.296875 276.476562 135.566406 276.132812 136.15625 C 276.058594 136.292969 275.941406 136.433594 275.851562 136.652344 C 275.835938 136.6875 275.761719 136.910156 275.8125 136.8125 C 275.609375 137.195312 275.460938 137.378906 275.304688 137.660156 C 275.15625 138.277344 274.738281 138.980469 274.449219 139.703125 C 274.175781 140.390625 273.984375 141.101562 273.726562 141.953125 C 273.640625 142.003906 273.554688 142.113281 273.464844 142.363281 C 273.34375 142.269531 273.296875 142.285156 273.09375 142.5 C 272.894531 143.199219 272.945312 143.34375 272.753906 144.09375 C 272.757812 144.46875 272.878906 144.558594 272.933594 144.816406 C 273.132812 144.25 273.324219 143.78125 273.457031 143.542969 C 273.570312 143.332031 273.722656 143.222656 273.800781 142.984375 C 274.210938 142.632812 273.921875 143.617188 274.375 143.007812 C 274.664062 142.109375 275.074219 141.140625 274.84375 141.050781 C 275.175781 140.40625 275.503906 139.847656 275.824219 139.371094 L 276.050781 139.34375 C 276.167969 139.113281 276.285156 138.878906 276.414062 138.652344 C 276.300781 138.730469 276.1875 138.800781 276.160156 138.71875 C 276.300781 138.351562 276.335938 138.292969 276.660156 137.914062 C 276.703125 137.753906 276.59375 137.765625 276.640625 137.609375 C 276.867188 137.242188 277.113281 137.054688 277.277344 136.65625 C 277.339844 136.515625 277.308594 136.59375 277.71875 136.035156 C 278.097656 135.53125 278.535156 134.890625 279.050781 134.375 C 279.117188 134.402344 279.160156 134.417969 279.1875 134.4375 C 280.054688 133.320312 280.992188 132.265625 281.996094 131.285156 C 282.105469 131.144531 282.21875 131 282.289062 130.894531 C 282.691406 130.5625 282.941406 130.324219 283.449219 129.90625 C 283.453125 129.84375 283.457031 129.785156 283.417969 129.753906 C 283.492188 129.636719 283.640625 129.464844 283.851562 129.253906 C 283.566406 129.222656 284.363281 128.453125 284.421875 128.199219 C 285.15625 127.523438 285.410156 127.171875 285.953125 126.664062 C 286.152344 126.457031 286.347656 126.257812 286.152344 126.269531 C 286.734375 125.722656 287.496094 125.105469 288.449219 124.46875 C 288.777344 124.441406 288.332031 124.742188 288.292969 124.875 C 288.449219 124.875 288.859375 124.503906 288.652344 124.550781 C 289.015625 124.410156 288.835938 124.570312 288.585938 124.773438 C 288.335938 124.976562 288.023438 125.234375 288.101562 125.265625 C 287.722656 125.433594 287.550781 125.667969 287.296875 125.890625 C 287.007812 126.207031 286.988281 126.390625 286.839844 126.644531 C 286.441406 126.996094 286.519531 126.746094 286.179688 127.035156 C 285.941406 127.273438 286.324219 127.238281 286.507812 127.136719 C 286.960938 126.804688 287.171875 126.609375 287.351562 126.433594 C 287.53125 126.257812 287.679688 126.09375 288.019531 125.851562 C 288.050781 125.722656 288.480469 125.414062 288.160156 125.445312 C 288.519531 125.164062 288.527344 125.28125 288.8125 125.089844 C 289.089844 124.917969 288.703125 125.019531 288.796875 124.925781 C 288.84375 124.882812 289 124.703125 289.074219 124.574219 C 289.300781 124.417969 289.367188 124.433594 289.558594 124.316406 C 289.734375 124.136719 289.867188 123.976562 289.734375 123.917969 C 289.980469 123.714844 290.378906 123.457031 290.683594 123.246094 C 290.503906 123.1875 290.390625 123.105469 290.453125 122.964844 C 290.710938 122.820312 290.972656 122.679688 291.238281 122.542969 C 291.351562 122.410156 291.667969 122.285156 291.960938 122.101562 C 292.054688 122.042969 292.128906 121.953125 292.207031 121.902344 C 292.257812 121.871094 292.503906 121.777344 292.53125 121.753906 C 292.699219 121.601562 293.632812 121.179688 294.242188 120.910156 C 294.484375 120.800781 294.761719 120.640625 295.015625 120.542969 C 295.3125 120.421875 295.757812 120.28125 296.042969 120.1875 C 296.355469 120.085938 296.464844 120.007812 296.734375 119.972656 C 296.867188 120.109375 296.894531 120.136719 296.835938 120.242188 C 297.046875 120.277344 296.546875 120.402344 296.425781 120.480469 C 296.824219 120.597656 296.101562 120.859375 296.5625 120.964844 C 296.921875 120.882812 296.882812 120.796875 297.003906 120.753906 C 297.1875 120.683594 297.5 120.625 297.679688 120.558594 C 297.878906 120.488281 297.902344 120.4375 298.128906 120.363281 C 297.9375 120.234375 298.09375 120.078125 298.078125 119.933594 C 297.910156 119.851562 297.429688 119.941406 297.429688 119.773438 C 297.679688 119.589844 298.8125 119.335938 299.660156 119.164062 C 299.867188 119.238281 299.425781 119.324219 299.820312 119.316406 C 300.40625 119.296875 300.703125 118.914062 301.394531 119.003906 C 301.636719 118.929688 301.636719 118.871094 301.816406 118.800781 C 301.859375 118.78125 302.136719 118.769531 302.175781 118.753906 C 302.277344 118.710938 302.148438 118.671875 302.269531 118.632812 C 302.722656 118.597656 303.554688 118.453125 303.757812 118.523438 C 304.097656 118.484375 303.792969 118.375 304.40625 118.371094 C 304.710938 118.476562 305.445312 118.476562 305.558594 118.648438 C 305.953125 118.660156 306.140625 118.726562 306.699219 118.710938 C 306.863281 118.746094 306.953125 118.796875 306.980469 118.859375 C 307.578125 118.914062 307.453125 118.863281 307.910156 118.929688 C 308.589844 118.90625 308.410156 118.679688 309.160156 118.6875 C 308.957031 118.558594 309.40625 118.601562 309.207031 118.476562 C 309.355469 118.457031 309.597656 118.472656 309.917969 118.507812 C 309.859375 118.394531 310.324219 118.429688 310.34375 118.339844 C 311.179688 118.488281 311.839844 118.578125 312.488281 118.671875 C 313.140625 118.773438 313.777344 118.882812 314.550781 119.109375 C 314.835938 119.390625 313.800781 119.101562 314.191406 119.429688 C 314.457031 119.605469 314.789062 119.535156 315.261719 119.703125 C 315.664062 119.957031 314.929688 119.925781 314.925781 120.097656 C 314.328125 120.035156 313.679688 119.976562 313.503906 120.117188 C 313.691406 120.292969 314.023438 120.21875 314.410156 120.40625 C 314.800781 120.503906 314.746094 120.394531 314.871094 120.378906 C 314.929688 120.371094 315.144531 120.398438 315.1875 120.390625 C 315.21875 120.386719 315.109375 120.304688 315.160156 120.308594 C 315.410156 120.332031 315.933594 120.34375 315.90625 120.1875 C 316.765625 120.519531 316.941406 120.488281 317.621094 120.679688 C 317.785156 120.542969 317.53125 120.175781 318.140625 120.292969 C 318.753906 120.558594 318.792969 120.488281 319.347656 120.730469 C 319.597656 120.78125 320.136719 121.015625 320.347656 121.046875 C 320.890625 121.316406 321.183594 121.507812 321.878906 121.824219 C 322.015625 121.890625 322.035156 121.867188 322.207031 121.957031 C 322.648438 122.1875 323.21875 122.597656 323.84375 122.878906 C 324.085938 123.128906 324.0625 123.210938 324.03125 123.285156 C 324.003906 123.347656 323.820312 123.246094 323.726562 123.265625 C 323.589844 123.296875 323.644531 123.46875 323.597656 123.566406 C 323.082031 123.363281 322.253906 122.929688 321.875 122.875 C 321.117188 122.464844 320.59375 122.257812 320.089844 122.074219 L 320.136719 122.332031 C 320.609375 122.589844 320.859375 122.628906 321.101562 122.71875 C 321.402344 122.832031 321.683594 122.964844 321.890625 123.007812 C 322.289062 123.203125 322.398438 123.328125 322.691406 123.492188 C 323.070312 123.707031 323.316406 123.726562 323.78125 124.101562 C 324.039062 124.207031 323.820312 123.886719 324.078125 123.988281 C 324.808594 124.429688 325.242188 124.691406 325.902344 125.230469 C 326.121094 125.273438 325.523438 124.847656 325.453125 124.777344 C 325.242188 124.554688 325.425781 124.636719 325.144531 124.390625 C 325.253906 124.367188 325.605469 124.574219 325.90625 124.746094 C 325.539062 124.300781 325.964844 124.476562 326.207031 124.519531 C 326.746094 124.890625 326.582031 124.949219 327.109375 125.328125 C 327.730469 125.78125 328.074219 125.933594 328.722656 126.464844 C 328.722656 126.511719 328.894531 126.652344 329 126.761719 C 329.109375 126.976562 329.160156 127.164062 329.097656 127.285156 C 328.429688 126.769531 328.191406 126.820312 328.066406 126.992188 C 328.121094 127.140625 328.75 127.609375 329.023438 127.898438 C 329.402344 128.210938 329.492188 128.144531 329.601562 128.101562 C 329.765625 128.242188 329.976562 128.484375 330.132812 128.621094 C 330.359375 128.816406 330.410156 128.703125 330.8125 129.117188 C 330.792969 128.988281 330.484375 128.667969 330.316406 128.449219 C 330.503906 128.519531 330.417969 128.203125 330.644531 128.320312 C 330.96875 128.605469 331.210938 128.949219 331.417969 129.183594 C 331.589844 129.375 331.828125 129.5625 331.925781 129.746094 C 331.863281 129.992188 331.8125 130.226562 332.410156 130.980469 C 332.714844 131.347656 332.683594 131.125 332.71875 131.015625 C 332.8125 131.128906 332.851562 131.113281 332.964844 131.265625 C 333 131.316406 333.132812 131.527344 333.070312 131.457031 C 333.425781 131.863281 333.371094 131.617188 333.804688 132.1875 C 333.949219 132.425781 333.769531 132.375 333.972656 132.664062 C 334.3125 133.199219 334.171875 132.742188 334.355469 132.960938 C 334.535156 133.195312 334.527344 133.273438 334.660156 133.46875 C 334.820312 133.707031 334.917969 133.734375 335.109375 134.023438 C 335.230469 134.203125 335.402344 134.472656 335.511719 134.667969 C 335.589844 134.8125 335.59375 134.863281 335.6875 135.035156 C 336.046875 135.660156 336.503906 136.464844 336.878906 137.207031 C 337.257812 137.953125 337.554688 138.628906 337.652344 138.964844 C 337.722656 139.199219 337.695312 139.382812 337.808594 139.605469 C 337.765625 140.144531 337.273438 139.242188 337.382812 139.996094 C 337.816406 140.832031 338.214844 141.808594 338.4375 141.707031 C 338.660156 142.398438 338.824219 143.023438 338.9375 143.589844 L 338.769531 143.796875 C 338.769531 143.910156 338.765625 144.019531 338.8125 144.230469 C 338.855469 144.433594 338.789062 144.421875 338.847656 144.660156 C 339.058594 145.117188 338.976562 144.195312 339.160156 144.285156 C 339.320312 144.644531 339.339844 144.714844 339.378906 145.207031 C 339.460938 145.355469 339.527344 145.265625 339.609375 145.414062 C 339.707031 145.832031 339.664062 146.136719 339.832031 146.535156 C 339.890625 146.679688 339.859375 146.601562 339.960938 147.285156 C 340.050781 147.910156 340.195312 148.671875 340.199219 149.398438 C 340.03125 149.46875 340.03125 149.507812 339.859375 149.289062 C 339.777344 149.199219 339.820312 149.78125 339.8125 149.9375 C 339.832031 150.007812 339.898438 150.261719 339.898438 150.300781 C 339.898438 150.320312 339.867188 150.308594 339.871094 150.332031 C 339.882812 150.40625 339.953125 150.65625 339.953125 150.710938 C 339.957031 150.921875 339.996094 150.875 340.070312 151.277344 C 340.066406 151.257812 340.054688 151.375 340.078125 151.5 C 340.148438 151.890625 340.183594 152.15625 340.273438 152.859375 C 340.347656 153.410156 340.375 154.007812 340.425781 154.640625 C 340.460938 155.089844 340.472656 155.203125 340.476562 155.625 C 340.480469 155.929688 340.535156 156.957031 340.488281 157.40625 Z M 322.632812 177.476562 C 321.925781 177.765625 321.816406 178.039062 321.953125 177.53125 C 321.101562 178.175781 321.15625 178.335938 320.269531 178.9375 C 320.46875 178.960938 320.964844 178.722656 321.457031 178.410156 C 321.945312 178.097656 322.429688 177.707031 322.632812 177.476562 Z M 326.703125 173.625 C 325.710938 174.871094 324.488281 176.167969 323.15625 177.285156 C 321.828125 178.40625 320.398438 179.347656 319.101562 179.984375 C 319.277344 179.597656 320.558594 178.59375 321.832031 177.457031 C 322.476562 176.890625 323.121094 176.300781 323.675781 175.785156 C 324.230469 175.273438 324.699219 174.84375 325.007812 174.625 C 325.351562 174.371094 325.148438 175.074219 325.75 174.484375 C 324.914062 175.441406 324.308594 175.789062 323.75 176.058594 C 323.246094 176.5625 323.777344 176.40625 323.257812 176.90625 C 323.648438 176.785156 324.339844 176.140625 325 175.425781 C 325.664062 174.714844 326.289062 173.933594 326.703125 173.625 Z M 318.546875 180.371094 C 318.765625 180.320312 319.015625 180.246094 319.488281 179.890625 C 319.554688 180.132812 318.914062 180.289062 318.113281 180.832031 C 318.023438 180.636719 317.425781 180.988281 317.75 180.652344 C 318.132812 180.441406 318.328125 180.417969 318.546875 180.371094 " fill-opacity="1" fill-rule="evenodd"/></g><path stroke-linecap="butt" transform="matrix(0.75, 0, 0, 0.75, 22.152216, 105.771087)" fill="none" stroke-linejoin="miter" d="M 7.547046 108.99794 L 7.547046 8.357302 L 30.651216 8.357302 C 38.463717 8.357302 43.812676 10.732303 46.687676 15.477095 C 49.567885 20.221887 51.08351 27.305221 51.234552 36.721889 L 51.234552 38.836473 C 51.234552 48.826057 49.817885 56.398975 46.974135 61.565642 C 44.135593 66.73231 38.864758 69.315643 31.166841 69.315643 L 22.875173 69.315643 L 22.875173 108.99794 Z M 22.875173 56.680225 L 28.13559 56.680225 C 31.375174 56.680225 33.479341 55.430225 34.4533 52.930225 C 35.42205 50.435433 35.911633 45.680224 35.911633 38.664598 L 35.911633 36.721889 C 35.869966 30.773972 35.349133 26.523971 34.338716 23.971888 C 33.328299 21.414596 31.297049 20.138554 28.250174 20.138554 L 22.875173 20.138554 Z M 80.744972 81.039603 C 80.744972 86.945854 81.192889 91.065646 82.088722 93.388563 C 82.984556 95.716689 84.823098 96.878147 87.609556 96.878147 C 90.390807 96.878147 92.218932 95.685439 93.099141 93.30523 C 93.974141 90.919813 94.411641 86.831271 94.411641 81.039603 L 94.411641 34.148972 C 94.411641 29.383347 93.963724 25.904179 93.067891 23.711471 C 92.172057 21.518762 90.416849 20.425012 87.807473 20.425012 C 85.198098 20.425012 83.364764 21.518762 82.317889 23.711471 C 81.271014 25.904179 80.744972 29.362513 80.744972 34.091681 Z M 109.791851 80.867728 C 109.791851 90.701063 108.041851 98.039606 104.531434 102.883356 C 101.026225 107.721898 95.411641 110.143774 87.69289 110.143774 C 79.974139 110.143774 74.31268 107.711482 70.708513 102.852106 C 67.109554 97.992731 65.30747 90.664605 65.30747 80.867728 L 65.30747 34.836472 C 65.30747 16.383345 72.833513 7.159385 87.890807 7.159385 C 95.672058 7.159385 101.265808 9.503136 104.677267 14.190636 C 108.088726 18.878137 109.791851 25.763554 109.791851 34.836472 Z M 126.724145 80.695853 L 126.724145 71.716685 L 141.250188 71.716685 L 141.250188 81.836478 C 141.250188 87.440646 141.724147 91.378146 142.677272 93.64898 C 143.630397 95.914605 145.422064 97.050022 148.052273 97.050022 C 150.682481 97.050022 152.427273 96.112522 153.286648 94.247938 C 154.140815 92.378146 154.573107 89.331271 154.573107 85.096895 C 154.573107 80.867728 153.807482 77.180228 152.286648 74.034394 C 150.760606 70.88856 148.338731 67.602102 145.021022 64.169809 L 137.58873 56.50835 C 134.119979 52.88335 131.422062 49.128141 129.494979 45.242724 C 127.573103 41.352098 126.609562 36.852098 126.609562 31.74793 C 126.609562 23.435429 128.20852 17.258345 131.411645 13.216678 C 134.614771 9.180219 140.125188 7.159385 147.937689 7.159385 C 155.755399 7.159385 161.041858 9.513552 163.807483 14.221886 C 166.5679 18.93022 167.953317 25.800013 167.953317 34.836472 L 167.953317 41.06564 L 153.828315 41.06564 L 153.828315 33.862514 C 153.828315 28.982305 153.40644 25.482304 152.567898 23.367721 C 151.729356 21.253137 150.119981 20.195845 147.739773 20.195845 C 145.354356 20.195845 143.640814 20.997929 142.593939 22.596887 C 141.541855 24.195846 141.021022 26.602096 141.021022 29.800013 C 141.021022 33.003139 141.552272 35.560431 142.61998 37.466681 C 143.687689 39.372931 145.614772 41.810432 148.396023 44.78439 L 156.68769 53.763558 C 160.843941 58.25835 163.979358 62.815643 166.093942 67.430227 C 168.208525 72.039602 169.265817 77.070853 169.265817 82.523978 C 169.265817 91.940646 167.687692 98.898981 164.521025 103.393773 C 161.359566 107.893773 155.817899 110.143774 147.911648 110.143774 C 140.000188 110.143774 134.489771 107.638565 131.385604 102.622939 C 128.276228 97.612522 126.724145 90.300021 126.724145 80.695853 Z M 190.656445 108.99794 L 190.656445 21.622929 L 178.875193 21.622929 L 178.875193 8.357302 L 217.24499 8.357302 L 217.24499 21.622929 L 205.92728 21.622929 L 205.92728 108.99794 Z M 230.744992 108.99794 L 230.744992 8.357302 L 264.484579 8.357302 L 264.484579 21.565637 L 246.073119 21.565637 L 246.073119 50.846891 L 263.567913 50.846891 L 263.567913 63.768768 L 246.073119 63.768768 L 246.073119 95.789605 L 265.172079 95.789605 L 265.172079 108.99794 Z M 302.682501 61.711476 L 297.765834 61.482309 L 297.765834 108.99794 L 282.442915 108.99794 L 282.442915 8.357302 L 307.776252 8.357302 C 313.036669 8.357302 316.963753 9.414594 319.552295 11.534386 C 322.146045 13.64897 323.854379 16.602095 324.672087 20.393762 C 325.489796 24.190638 325.901254 29.143763 325.901254 35.263556 C 325.901254 41.383348 325.255421 46.039599 323.958545 49.242724 C 322.66167 52.44585 320.260628 54.6021 316.750211 55.706267 C 320.218962 56.315642 322.640837 58.659392 324.015837 62.737518 C 325.385629 66.820851 326.073129 75.310436 326.073129 88.216688 C 326.073129 101.117731 326.265837 108.044815 326.646046 108.99794 L 311.317919 108.99794 C 310.93771 108.237523 310.75021 96.21148 310.75021 72.919811 C 310.75021 68.456268 310.213752 65.492726 309.146044 64.023976 C 308.078335 62.560434 305.927293 61.784392 302.682501 61.711476 Z M 297.823125 49.586474 L 303.942918 49.586474 C 305.885626 49.586474 307.328335 49.148974 308.260627 48.273974 C 309.192919 47.393766 309.84396 45.888557 310.203335 43.75314 C 310.567919 41.617723 310.75021 38.362514 310.75021 33.977097 L 310.75021 33.346889 C 310.75021 27.893763 310.291877 24.331263 309.37521 22.654179 C 308.458543 20.977096 306.34396 20.138554 303.026251 20.138554 L 297.823125 20.138554 Z M 297.823125 49.586474 " stroke="#e2f74d" stroke-width="12.00398" stroke-opacity="1" stroke-miterlimit="4"/><path stroke-linecap="butt" transform="matrix(0.75, 0, 0, 0.75, 22.152216, 105.771087)" fill="none" stroke-linejoin="miter" d="M 236.786659 228.997956 L 236.786659 128.357318 L 271.32833 128.357318 L 271.32833 141.680236 L 252.114786 141.680236 L 252.114786 168.445865 L 269.95333 168.445865 L 269.95333 181.826075 L 252.114786 181.826075 L 252.114786 228.997956 Z M 331.19813 203.154202 C 331.19813 212.41462 329.448129 219.23233 325.937712 223.596913 C 322.432504 227.961497 316.797086 230.143789 309.041877 230.143789 C 301.281459 230.143789 295.640833 227.951081 292.114791 223.565663 C 288.588749 219.185455 286.828332 212.378162 286.828332 203.154202 L 286.828332 128.300026 L 302.151251 128.300026 L 302.151251 202.867744 C 302.151251 208.16462 302.401251 211.388579 302.896043 212.529204 C 303.390834 213.675037 303.989793 214.711496 304.698126 215.648996 C 305.401251 216.581288 306.859585 217.050038 309.067919 217.050038 C 311.28146 217.050038 312.864794 216.398996 313.817919 215.102121 C 314.771044 213.810454 315.349169 212.19587 315.562711 210.273995 C 315.771044 208.346911 315.875211 205.878161 315.875211 202.867744 L 315.875211 128.300026 L 331.19813 128.300026 Z M 350.760632 228.997956 L 350.760632 128.357318 L 362.765842 128.357318 L 384.099178 188.742742 L 383.010636 161.294822 L 383.010636 128.357318 L 396.791888 128.357318 L 396.791888 228.997956 L 385.927303 228.997956 L 364.026259 166.497948 L 364.885634 192.919826 L 364.885634 228.997956 Z M 350.760632 228.997956 " stroke="#e2f74d" stroke-width="12.00398" stroke-opacity="1" stroke-miterlimit="4"/><g fill="#000000" fill-opacity="1"><g transform="translate(22.152216, 187.521076)"><g><path d="M 5.65625 0 L 5.65625 -75.484375 L 22.984375 -75.484375 C 28.847656 -75.484375 32.859375 -73.703125 35.015625 -70.140625 C 37.171875 -66.578125 38.304688 -61.265625 38.421875 -54.203125 L 38.421875 -52.625 C 38.421875 -45.132812 37.351562 -39.453125 35.21875 -35.578125 C 33.09375 -31.703125 29.144531 -29.765625 23.375 -29.765625 L 17.15625 -29.765625 L 17.15625 0 Z M 17.15625 -39.234375 L 21.09375 -39.234375 C 23.53125 -39.234375 25.113281 -40.171875 25.84375 -42.046875 C 26.570312 -43.921875 26.9375 -47.488281 26.9375 -52.75 L 26.9375 -54.203125 C 26.90625 -58.660156 26.507812 -61.847656 25.75 -63.765625 C 24.988281 -65.679688 23.46875 -66.640625 21.1875 -66.640625 L 17.15625 -66.640625 Z M 17.15625 -39.234375 "/></g></g></g><g fill="#000000" fill-opacity="1"><g transform="translate(66.41415, 187.521076)"><g><path d="M 16.296875 -20.96875 C 16.296875 -16.539062 16.628906 -13.453125 17.296875 -11.703125 C 17.972656 -9.960938 19.351562 -9.09375 21.4375 -9.09375 C 23.53125 -9.09375 24.90625 -9.984375 25.5625 -11.765625 C 26.21875 -13.554688 26.546875 -16.625 26.546875 -20.96875 L 26.546875 -56.140625 C 26.546875 -59.710938 26.207031 -62.316406 25.53125 -63.953125 C 24.863281 -65.597656 23.550781 -66.421875 21.59375 -66.421875 C 19.632812 -66.421875 18.257812 -65.597656 17.46875 -63.953125 C 16.6875 -62.316406 16.296875 -59.722656 16.296875 -56.171875 Z M 38.078125 -21.09375 C 38.078125 -13.71875 36.757812 -8.210938 34.125 -4.578125 C 31.5 -0.953125 27.289062 0.859375 21.5 0.859375 C 15.71875 0.859375 11.472656 -0.960938 8.765625 -4.609375 C 6.066406 -8.253906 4.71875 -13.75 4.71875 -21.09375 L 4.71875 -55.625 C 4.71875 -69.457031 10.363281 -76.375 21.65625 -76.375 C 27.488281 -76.375 31.679688 -74.613281 34.234375 -71.09375 C 36.796875 -67.582031 38.078125 -62.425781 38.078125 -55.625 Z M 38.078125 -21.09375 "/></g></g></g><g fill="#000000" fill-opacity="1"><g transform="translate(113.034859, 187.521076)"><g><path d="M 4.15625 -21.234375 L 4.15625 -27.953125 L 15.046875 -27.953125 L 15.046875 -20.375 C 15.046875 -16.164062 15.40625 -13.210938 16.125 -11.515625 C 16.84375 -9.816406 18.1875 -8.96875 20.15625 -8.96875 C 22.125 -8.96875 23.429688 -9.664062 24.078125 -11.0625 C 24.722656 -12.46875 25.046875 -14.753906 25.046875 -17.921875 C 25.046875 -21.097656 24.472656 -23.863281 23.328125 -26.21875 C 22.179688 -28.582031 20.367188 -31.050781 17.890625 -33.625 L 12.3125 -39.375 C 9.707031 -42.082031 7.679688 -44.894531 6.234375 -47.8125 C 4.796875 -50.726562 4.078125 -54.101562 4.078125 -57.9375 C 4.078125 -64.164062 5.273438 -68.796875 7.671875 -71.828125 C 10.078125 -74.859375 14.207031 -76.375 20.0625 -76.375 C 25.925781 -76.375 29.894531 -74.609375 31.96875 -71.078125 C 34.039062 -67.546875 35.078125 -62.394531 35.078125 -55.625 L 35.078125 -50.953125 L 24.484375 -50.953125 L 24.484375 -56.34375 C 24.484375 -60.007812 24.164062 -62.632812 23.53125 -64.21875 C 22.90625 -65.800781 21.695312 -66.59375 19.90625 -66.59375 C 18.125 -66.59375 16.835938 -65.992188 16.046875 -64.796875 C 15.265625 -63.597656 14.875 -61.796875 14.875 -59.390625 C 14.875 -56.992188 15.273438 -55.078125 16.078125 -53.640625 C 16.878906 -52.210938 18.320312 -50.382812 20.40625 -48.15625 L 26.625 -41.421875 C 29.75 -38.046875 32.101562 -34.628906 33.6875 -31.171875 C 35.269531 -27.710938 36.0625 -23.941406 36.0625 -19.859375 C 36.0625 -12.796875 34.875 -7.578125 32.5 -4.203125 C 30.132812 -0.828125 25.984375 0.859375 20.046875 0.859375 C 14.117188 0.859375 9.988281 -1.019531 7.65625 -4.78125 C 5.320312 -8.539062 4.15625 -14.023438 4.15625 -21.234375 Z M 4.15625 -21.234375 "/></g></g></g><g fill="#000000" fill-opacity="1"><g transform="translate(155.624219, 187.521076)"><g><path d="M 9.515625 0 L 9.515625 -65.53125 L 0.6875 -65.53125 L 0.6875 -75.484375 L 29.46875 -75.484375 L 29.46875 -65.53125 L 20.96875 -65.53125 L 20.96875 0 Z M 9.515625 0 "/></g></g></g><g fill="#000000" fill-opacity="1"><g transform="translate(189.550453, 187.521076)"><g><path d="M 5.65625 0 L 5.65625 -75.484375 L 30.96875 -75.484375 L 30.96875 -65.578125 L 17.15625 -65.578125 L 17.15625 -43.609375 L 30.28125 -43.609375 L 30.28125 -33.921875 L 17.15625 -33.921875 L 17.15625 -9.90625 L 31.484375 -9.90625 L 31.484375 0 Z M 5.65625 0 "/></g></g></g><g fill="#000000" fill-opacity="1"><g transform="translate(228.322882, 187.521076)"><g><path d="M 20.84375 -35.46875 L 17.15625 -35.640625 L 17.15625 0 L 5.65625 0 L 5.65625 -75.484375 L 24.65625 -75.484375 C 28.601562 -75.484375 31.546875 -74.6875 33.484375 -73.09375 C 35.429688 -71.507812 36.710938 -69.296875 37.328125 -66.453125 C 37.941406 -63.609375 38.25 -59.890625 38.25 -55.296875 C 38.25 -50.710938 37.765625 -47.21875 36.796875 -44.8125 C 35.828125 -42.414062 34.023438 -40.800781 31.390625 -39.96875 C 33.992188 -39.507812 35.804688 -37.75 36.828125 -34.6875 C 37.859375 -31.632812 38.375 -25.269531 38.375 -15.59375 C 38.375 -5.914062 38.519531 -0.71875 38.8125 0 L 27.3125 0 C 27.03125 -0.570312 26.890625 -9.59375 26.890625 -27.0625 C 26.890625 -30.40625 26.488281 -32.625 25.6875 -33.71875 C 24.882812 -34.820312 23.269531 -35.40625 20.84375 -35.46875 Z M 17.203125 -44.5625 L 21.78125 -44.5625 C 23.238281 -44.5625 24.316406 -44.890625 25.015625 -45.546875 C 25.722656 -46.203125 26.210938 -47.328125 26.484375 -48.921875 C 26.753906 -50.523438 26.890625 -52.972656 26.890625 -56.265625 L 26.890625 -56.734375 C 26.890625 -60.828125 26.546875 -63.5 25.859375 -64.75 C 25.171875 -66.007812 23.582031 -66.640625 21.09375 -66.640625 L 17.203125 -66.640625 Z M 17.203125 -44.5625 "/></g></g></g><g fill="#000000" fill-opacity="1"><g transform="translate(194.124854, 277.521064)"><g><path d="M 5.625 0 L 5.625 -75.484375 L 31.515625 -75.484375 L 31.515625 -65.484375 L 17.109375 -65.484375 L 17.109375 -45.421875 L 30.484375 -45.421875 L 30.484375 -35.375 L 17.109375 -35.375 L 17.109375 0 Z M 5.625 0 "/></g></g></g><g fill="#000000" fill-opacity="1"><g transform="translate(232.039552, 277.521064)"><g><path d="M 38.515625 -19.390625 C 38.515625 -12.441406 37.195312 -7.328125 34.5625 -4.046875 C 31.9375 -0.773438 27.710938 0.859375 21.890625 0.859375 C 16.078125 0.859375 11.847656 -0.78125 9.203125 -4.0625 C 6.554688 -7.351562 5.234375 -12.460938 5.234375 -19.390625 L 5.234375 -75.515625 L 16.71875 -75.515625 L 16.71875 -19.59375 C 16.71875 -15.625 16.90625 -13.207031 17.28125 -12.34375 C 17.65625 -11.488281 18.101562 -10.710938 18.625 -10.015625 C 19.15625 -9.316406 20.25 -8.96875 21.90625 -8.96875 C 23.570312 -8.96875 24.757812 -9.453125 25.46875 -10.421875 C 26.1875 -11.390625 26.625 -12.59375 26.78125 -14.03125 C 26.9375 -15.476562 27.015625 -17.332031 27.015625 -19.59375 L 27.015625 -75.515625 L 38.515625 -75.515625 Z M 38.515625 -19.390625 "/></g></g></g><g fill="#000000" fill-opacity="1"><g transform="translate(279.560876, 277.521064)"><g><path d="M 5.65625 0 L 5.65625 -75.484375 L 14.671875 -75.484375 L 30.65625 -30.1875 L 29.84375 -50.78125 L 29.84375 -75.484375 L 40.1875 -75.484375 L 40.1875 0 L 32.03125 0 L 15.609375 -46.875 L 16.25 -27.0625 L 16.25 0 Z M 5.65625 0 "/></g></g></g><g fill="#000000" fill-opacity="1"><g transform="translate(291.378089, 169.421723)"><g><path d="M 5.109375 -1.15625 C 4.046875 -0.875 3.175781 -0.957031 2.5 -1.40625 C 1.820312 -1.863281 1.28125 -2.523438 0.875 -3.390625 C 0.476562 -4.265625 0.109375 -5.351562 -0.234375 -6.65625 L -2.390625 -14.65625 C -2.828125 -16.289062 -2.882812 -17.710938 -2.5625 -18.921875 C -2.238281 -20.128906 -1.382812 -20.914062 0 -21.28125 C 0.53125 -21.425781 1.054688 -21.425781 1.578125 -21.28125 C 2.109375 -21.144531 2.554688 -20.882812 2.921875 -20.5 L 1.640625 -25.328125 L 5.109375 -26.25 L 11.328125 -3.03125 L 7.859375 -2.109375 L 7.375 -3.921875 C 7.207031 -2.429688 6.453125 -1.507812 5.109375 -1.15625 Z M 3.390625 -7.125 C 3.679688 -6.039062 3.992188 -5.253906 4.328125 -4.765625 C 4.671875 -4.285156 5.125 -4.117188 5.6875 -4.265625 C 6.257812 -4.421875 6.582031 -4.796875 6.65625 -5.390625 C 6.726562 -5.984375 6.59375 -6.90625 6.25 -8.15625 L 4.15625 -16.015625 C 3.71875 -17.628906 3.207031 -18.535156 2.625 -18.734375 C 2.382812 -18.828125 2.117188 -18.832031 1.828125 -18.75 C 1.242188 -18.59375 0.925781 -18.222656 0.875 -17.640625 C 0.820312 -17.066406 0.9375 -16.253906 1.21875 -15.203125 Z M 3.390625 -7.125 "/></g></g></g><g fill="#000000" fill-opacity="1"><g transform="translate(304.428796, 165.924495)"><g><path d="M 5.671875 -4.265625 C 6.210938 -4.410156 6.515625 -4.742188 6.578125 -5.265625 C 6.648438 -5.796875 6.554688 -6.535156 6.296875 -7.484375 L 3.953125 -16.265625 C 3.691406 -17.222656 3.398438 -17.910156 3.078125 -18.328125 C 2.753906 -18.753906 2.320312 -18.894531 1.78125 -18.75 C 1.238281 -18.601562 0.929688 -18.269531 0.859375 -17.75 C 0.785156 -17.226562 0.878906 -16.484375 1.140625 -15.515625 L 3.484375 -6.734375 C 3.867188 -5.296875 4.34375 -4.476562 4.90625 -4.28125 C 5.132812 -4.195312 5.390625 -4.191406 5.671875 -4.265625 Z M 6.421875 -1.46875 C 4.566406 -0.96875 3.132812 -1.175781 2.125 -2.09375 C 1.113281 -3.019531 0.328125 -4.53125 -0.234375 -6.625 L -2.203125 -13.953125 C -3.328125 -18.148438 -2.253906 -20.6875 1.015625 -21.5625 C 4.285156 -22.4375 6.484375 -20.773438 7.609375 -16.578125 L 9.578125 -9.25 C 10.453125 -5.976562 10.148438 -3.742188 8.671875 -2.546875 C 8.097656 -2.078125 7.347656 -1.71875 6.421875 -1.46875 Z M 6.421875 -1.46875 "/></g></g></g><g fill="#000000" fill-opacity="1"><g transform="translate(317.113351, 162.525386)"><g><path d="M 5.328125 -1.28125 C 4.109375 -0.957031 3.222656 -0.972656 2.671875 -1.328125 C 2.128906 -1.679688 1.707031 -2.429688 1.40625 -3.578125 L -2.28125 -17.296875 L -3.859375 -16.875 L -4.515625 -19.390625 L -2.9375 -19.8125 L -3.96875 -23.625 L -0.5 -24.546875 L 0.53125 -20.734375 L 2.453125 -21.25 L 3.109375 -18.734375 L 1.1875 -18.21875 L 4.703125 -5.109375 C 4.828125 -4.640625 5.03125 -4.375 5.3125 -4.3125 C 5.59375 -4.25 6.148438 -4.328125 6.984375 -4.546875 L 7.6875 -1.90625 Z M 5.328125 -1.28125 "/></g></g></g></svg>