<svg xmlns="http://www.w3.org/2000/svg" xmlns:xlink="http://www.w3.org/1999/xlink" width="500" zoomAndPan="magnify" viewBox="0 0 375 374.999991" height="500" preserveAspectRatio="xMidYMid meet" version="1.0"><defs><g/><clipPath id="fb66b2bf23"><path d="M 242.921875 128.65625 L 302.90625 128.65625 L 302.90625 190.882812 L 242.921875 190.882812 Z M 242.921875 128.65625 " clip-rule="nonzero"/></clipPath></defs><rect x="-37.5" width="450" fill="#ffffff" y="-37.499999" height="449.999989" fill-opacity="1"/><rect x="-37.5" width="450" fill="#ffffff" y="-37.499999" height="449.999989" fill-opacity="1"/><g clip-path="url(#fb66b2bf23)"><path fill="#e1f16b" d="M 299.179688 164.722656 C 299.257812 164.382812 299.335938 164.042969 299.402344 163.699219 C 299.546875 163.480469 299.675781 163.035156 299.800781 162.710938 C 299.851562 162.371094 299.652344 162.339844 299.777344 162.03125 C 299.773438 161.691406 299.945312 161.539062 299.898438 161.835938 C 299.949219 161.761719 299.980469 161.546875 300.035156 161.484375 C 300.082031 161.113281 300.113281 160.761719 300.089844 160.605469 C 300.019531 160.898438 299.96875 161.425781 299.835938 161.308594 C 299.863281 161.058594 299.886719 160.8125 299.90625 160.566406 C 300.011719 160.109375 300.085938 160.796875 300.132812 160.003906 C 300.175781 159.609375 300.089844 159.835938 300.054688 159.761719 C 300.019531 159.695312 300.011719 159.558594 299.972656 159.519531 C 299.984375 159.34375 299.976562 159.261719 299.953125 159.242188 C 299.941406 158.460938 300.054688 158.300781 300.019531 157.566406 C 300.152344 157.410156 300.117188 158.3125 300.214844 158.335938 C 300.332031 158.507812 300.296875 157.910156 300.28125 157.511719 C 300.273438 157.492188 300.261719 157.472656 300.253906 157.453125 C 300.007812 156.371094 299.898438 155.816406 299.582031 155 C 299.605469 154.941406 299.523438 154.710938 299.476562 154.535156 C 299.582031 154.554688 299.390625 154.082031 299.496094 154.101562 C 299.597656 154.238281 299.75 154.855469 299.847656 155.035156 C 299.851562 154.929688 299.863281 154.847656 299.851562 154.699219 C 299.796875 154.261719 299.726562 154.304688 299.664062 153.867188 C 299.679688 153.867188 299.679688 153.824219 299.671875 153.761719 C 299.625 153.632812 299.621094 153.566406 299.628906 153.523438 C 299.605469 153.414062 299.585938 153.304688 299.585938 153.257812 C 299.585938 153.179688 299.585938 153.136719 299.578125 153.09375 C 299.53125 152.925781 299.480469 152.753906 299.457031 152.632812 C 299.460938 152.632812 299.460938 152.628906 299.460938 152.628906 L 299.378906 152.285156 C 299.390625 152.429688 299.398438 152.585938 299.339844 152.582031 C 299.335938 152.808594 299.519531 152.921875 299.535156 153.1875 C 299.414062 153.058594 299.246094 152.695312 299.101562 152.480469 C 298.910156 152.050781 298.902344 151.882812 298.785156 151.570312 C 298.585938 151.1875 298.816406 151.832031 298.6875 151.730469 C 298.601562 151.550781 298.550781 151.574219 298.460938 151.375 C 298.335938 151.109375 298.3125 151.265625 298.191406 151.089844 C 298.085938 150.929688 297.933594 150.484375 297.890625 150.609375 C 297.714844 150.070312 297.285156 149.59375 297.308594 149.308594 C 297.164062 149.105469 297.050781 149.003906 296.882812 148.753906 C 296.605469 148.269531 296.359375 147.839844 296.203125 147.503906 C 296.007812 147.1875 295.996094 147.296875 295.761719 146.917969 C 295.761719 146.726562 295.503906 146.324219 295.613281 146.234375 C 295.242188 145.71875 295.007812 145.496094 294.746094 145.226562 C 294.628906 145.085938 294.574219 145.066406 294.527344 145.058594 C 294.878906 145.570312 295.21875 146.089844 295.53125 146.628906 C 298.601562 151.824219 299.796875 157.960938 299.054688 163.746094 C 298.882812 164.257812 298.976562 163.769531 298.804688 163.890625 C 298.714844 164.507812 298.953125 164.082031 298.898438 164.574219 C 298.757812 165.5 298.554688 166.464844 298.292969 167.4375 C 298.304688 167.410156 298.316406 167.382812 298.324219 167.355469 C 298.597656 166.605469 298.824219 165.882812 299.03125 165.300781 C 299.117188 165.121094 299.199219 165.09375 299.28125 165.082031 C 299.386719 164.648438 299.160156 164.953125 299.179688 164.722656 Z M 299.207031 171.195312 L 299.09375 171.214844 C 298.980469 171.386719 298.851562 171.613281 298.691406 171.945312 C 298.746094 171.929688 298.738281 172 298.730469 172.070312 C 298.894531 171.839844 299.140625 171.488281 299.207031 171.195312 Z M 262.878906 186.5625 C 262.695312 186.492188 262.578125 186.433594 262.46875 186.371094 C 262.425781 186.457031 262.859375 186.644531 262.878906 186.5625 Z M 260.230469 185.296875 C 260.230469 185.292969 260.230469 185.292969 260.230469 185.292969 C 259.59375 185.070312 259.554688 184.941406 259.238281 184.730469 C 259.160156 184.683594 259.195312 184.582031 258.960938 184.460938 C 258.828125 184.460938 258.570312 184.371094 258.550781 184.496094 C 258.523438 184.621094 258.960938 184.996094 258.792969 185.085938 C 259.191406 185.335938 258.972656 185.125 259.371094 185.367188 C 259.03125 184.953125 258.921875 184.746094 259.203125 184.707031 C 259.734375 185.082031 259.914062 185.097656 260.230469 185.296875 Z M 249.4375 178.828125 C 249.300781 178.851562 249.675781 179.304688 249.878906 179.59375 C 249.925781 179.496094 249.660156 179.15625 249.4375 178.828125 Z M 244.140625 152.675781 C 244.144531 153.054688 244.207031 153.261719 244.296875 153.378906 C 244.390625 153.042969 244.492188 152.691406 244.601562 152.339844 C 244.574219 152.296875 244.550781 152.242188 244.523438 152.191406 C 244.492188 151.953125 244.371094 152.527344 244.34375 152.570312 C 244.273438 152.664062 244.265625 152.265625 244.140625 152.675781 Z M 260.523438 134.449219 C 260.429688 134.492188 260.328125 134.546875 260.226562 134.605469 C 260.332031 134.554688 260.4375 134.507812 260.542969 134.457031 C 260.539062 134.453125 260.53125 134.445312 260.523438 134.449219 Z M 260.804688 134.324219 C 260.777344 134.335938 260.722656 134.367188 260.671875 134.398438 C 260.722656 134.378906 260.773438 134.355469 260.820312 134.332031 C 260.816406 134.324219 260.8125 134.320312 260.804688 134.324219 Z M 261.066406 134.226562 C 261.210938 134.167969 261.351562 134.105469 261.496094 134.046875 C 261.539062 134.019531 261.582031 133.988281 261.65625 133.953125 C 261.792969 133.886719 261.949219 133.816406 262.109375 133.753906 L 261.71875 133.871094 C 261.601562 133.90625 261.300781 134.097656 261.066406 134.226562 Z M 262.535156 133.238281 C 262.714844 133.15625 262.839844 133.117188 262.960938 133.082031 C 262.929688 132.988281 262.492188 133.164062 262.535156 133.238281 Z M 265.003906 132.777344 C 264.851562 132.816406 264.699219 132.867188 264.542969 132.921875 C 264.636719 132.894531 264.726562 132.867188 264.8125 132.839844 C 264.964844 132.855469 265.015625 132.863281 265.015625 132.882812 C 265.441406 132.773438 265.871094 132.675781 266.304688 132.589844 C 266.648438 132.476562 266.550781 132.398438 267.09375 132.28125 C 267.371094 132.316406 267.9375 132.144531 268.785156 132.023438 C 269.347656 131.945312 269.945312 131.890625 270.601562 131.792969 C 270.65625 131.875 270.859375 131.96875 270.644531 132.035156 C 270.640625 132.039062 270.644531 132.042969 270.644531 132.050781 C 271.046875 132.03125 271.441406 132.023438 271.839844 132.023438 C 271.886719 131.992188 271.941406 131.960938 271.960938 131.933594 C 272.25 131.867188 272.175781 131.925781 272.621094 131.90625 C 273.042969 131.890625 272.796875 131.785156 273 131.742188 C 273.511719 131.707031 273.402344 131.816406 273.734375 131.828125 C 274.324219 131.855469 274.40625 131.804688 274.683594 131.785156 C 275.296875 131.859375 275.546875 131.796875 276.054688 131.921875 C 276.589844 131.898438 277.066406 132.039062 277.691406 132.066406 C 277.714844 132.097656 277.90625 132.121094 278.039062 132.148438 C 278.339844 132.269531 278.488281 132.398438 278.839844 132.523438 C 279.308594 132.59375 279.671875 132.703125 279.976562 132.746094 C 280.292969 132.796875 280.152344 132.679688 280.574219 132.789062 L 280.621094 132.894531 C 280.984375 132.960938 281.003906 132.878906 281.367188 132.953125 C 282.164062 133.144531 282.621094 133.339844 283.292969 133.5625 C 283.453125 133.6875 283.742188 133.832031 283.691406 133.929688 C 283.824219 134.007812 283.898438 134.019531 284.167969 134.136719 C 284.328125 134.210938 284.515625 134.316406 284.792969 134.414062 C 284.917969 134.457031 284.9375 134.4375 285.089844 134.503906 C 285.273438 134.5625 285.390625 134.585938 285.367188 134.519531 C 285.472656 134.53125 285.632812 134.578125 285.808594 134.640625 C 286.550781 134.976562 286.285156 134.996094 286.460938 135.144531 C 286.894531 135.351562 287.429688 135.601562 287.652344 135.777344 C 288.027344 135.972656 287.835938 135.738281 288.214844 135.9375 C 289.40625 136.605469 290.398438 137.308594 291.035156 137.902344 C 291.058594 137.914062 291.082031 137.929688 291.101562 137.941406 C 289.804688 136.761719 288.496094 135.796875 287.097656 134.953125 C 285.660156 134.089844 284.117188 133.347656 282.320312 132.730469 C 282.167969 132.644531 282.191406 132.558594 281.867188 132.449219 C 281.707031 132.394531 281.621094 132.367188 281.582031 132.324219 C 281.332031 132.292969 280.871094 132.15625 280.785156 132.214844 C 280.105469 131.992188 279.972656 131.777344 279.015625 131.59375 C 278.722656 131.542969 279.035156 131.738281 278.796875 131.707031 C 278.515625 131.644531 278.363281 131.605469 278.199219 131.53125 C 278.082031 131.484375 278.128906 131.429688 277.996094 131.375 C 277.730469 131.261719 277.515625 131.152344 277.050781 131.078125 C 276.933594 131.066406 276.925781 131.101562 276.9375 131.125 C 276.972656 131.203125 277.175781 131.261719 277.449219 131.351562 L 277.542969 131.550781 C 277.222656 131.511719 276.90625 131.546875 276.585938 131.519531 C 276.210938 131.492188 275.871094 131.394531 275.28125 131.375 C 275.070312 131.367188 275.035156 131.386719 274.867188 131.382812 C 274.859375 131.382812 274.578125 131.34375 274.273438 131.324219 C 273.96875 131.300781 273.644531 131.292969 273.554688 131.320312 C 273.410156 131.367188 273.292969 131.316406 272.835938 131.332031 C 272.605469 131.34375 272.613281 131.367188 272.429688 131.378906 C 272.074219 131.398438 271.550781 131.421875 271.144531 131.46875 C 270.921875 131.496094 270.628906 131.554688 270.457031 131.574219 C 270.472656 131.574219 270.382812 131.554688 270.289062 131.5625 C 270.246094 131.570312 270.042969 131.605469 270.007812 131.601562 C 269.78125 131.59375 269.875 131.609375 269.441406 131.6875 C 268.671875 131.828125 267.835938 131.96875 267.070312 132.179688 C 266.863281 132.136719 266.777344 132.117188 266.746094 132.042969 C 266.695312 131.929688 267.128906 131.785156 267.035156 131.648438 C 266.960938 131.542969 266.367188 131.609375 266.421875 131.429688 C 265.964844 131.535156 266.226562 131.570312 265.773438 131.679688 C 266.308594 131.730469 266.445312 131.886719 266.277344 132.113281 C 265.636719 132.222656 265.429688 132.402344 264.964844 132.59375 C 265.054688 132.640625 265.125 132.695312 265.003906 132.777344 Z M 276.648438 128.949219 C 276.683594 129.050781 277.113281 129.105469 277.5 129.175781 C 277.582031 129.066406 276.992188 129.011719 276.648438 128.949219 Z M 295.234375 139.082031 C 295.246094 139.203125 295.535156 139.535156 295.605469 139.710938 C 295.894531 140.066406 295.738281 140.078125 296.0625 140.472656 C 296.519531 140.9375 296.570312 140.640625 296.722656 140.523438 C 296.714844 140.457031 296.632812 140.324219 296.550781 140.195312 C 296.402344 140.109375 296.339844 140.175781 296 139.75 C 295.796875 139.503906 295.898438 139.492188 295.609375 139.183594 C 295.601562 139.347656 295.261719 138.957031 295.234375 139.082031 Z M 296.878906 140.890625 C 297.167969 141.28125 297.480469 141.773438 297.476562 141.566406 C 297.421875 141.382812 297.101562 140.890625 296.925781 140.746094 Z M 297.277344 148.507812 C 297.570312 149.011719 297.71875 149.15625 297.816406 149.140625 C 297.742188 148.910156 297.40625 148.332031 297.273438 148.207031 C 297.210938 148.242188 297.226562 148.359375 297.277344 148.507812 Z M 294.332031 143.84375 C 294.007812 143.476562 293.953125 143.546875 293.875 143.574219 C 294.253906 144.015625 294.164062 143.726562 294.332031 143.84375 Z M 294.097656 144.453125 C 294.074219 144.339844 293.988281 144.152344 293.902344 144.015625 C 293.714844 143.808594 293.597656 143.714844 293.511719 143.675781 C 293.710938 143.929688 293.90625 144.191406 294.097656 144.453125 Z M 295.515625 165.492188 C 295.351562 166.492188 294.996094 167.621094 294.574219 168.710938 C 294.15625 169.796875 293.675781 170.84375 293.332031 171.75 C 293.8125 170.695312 293.597656 171.601562 293.914062 171.066406 C 293.929688 170.554688 294.441406 169.449219 294.851562 168.300781 C 295.269531 167.160156 295.582031 165.976562 295.515625 165.492188 Z M 295.820312 167.507812 C 295.640625 167.796875 295.464844 168.46875 295.277344 169 C 295.234375 169.128906 295.1875 169.25 295.144531 169.355469 C 295.132812 169.417969 295.097656 169.511719 295.027344 169.660156 C 295 169.6875 294.980469 169.699219 294.960938 169.703125 C 294.902344 169.769531 294.851562 169.773438 294.808594 169.671875 C 294.582031 170.371094 294.433594 170.589844 294.421875 170.777344 C 294.617188 170.582031 294.492188 170.902344 294.316406 171.300781 C 294.144531 171.699219 293.921875 172.164062 293.972656 172.277344 C 294.390625 171.574219 294.230469 171.78125 294.601562 170.949219 C 294.785156 170.894531 294.984375 170.761719 295.203125 170.414062 C 295.359375 169.785156 294.691406 170.957031 294.882812 170.277344 C 295.335938 169.351562 295.679688 168.328125 295.820312 167.507812 Z M 287.066406 137.78125 C 287.003906 137.699219 286.921875 137.609375 286.84375 137.546875 C 286.597656 137.433594 286.371094 137.324219 286.152344 137.214844 C 286.460938 137.398438 286.765625 137.585938 287.066406 137.78125 Z M 293.753906 143.535156 C 293.816406 143.492188 293.578125 143.25 293.6875 143.238281 C 293.351562 142.855469 293.339844 142.957031 293.132812 142.761719 C 292.890625 142.527344 292.738281 142.292969 292.59375 142.121094 C 292.4375 141.929688 292.285156 141.765625 292.15625 141.59375 C 291.722656 141.226562 291.722656 141.386719 291.089844 140.808594 C 290.980469 140.753906 290.957031 140.796875 290.949219 140.859375 C 291.171875 141.070312 291.390625 141.285156 291.605469 141.503906 C 291.621094 141.511719 291.640625 141.519531 291.652344 141.523438 C 291.859375 141.71875 292.128906 141.960938 292.214844 142.105469 C 292.28125 142.140625 292.363281 142.214844 292.445312 142.273438 C 292.613281 142.390625 292.613281 142.40625 292.777344 142.589844 C 293.113281 142.972656 293.210938 142.96875 293.753906 143.535156 Z M 293.308594 172.433594 C 293.234375 172.542969 293.167969 172.648438 293.128906 172.753906 C 293.144531 172.75 293.160156 172.761719 293.167969 172.792969 C 293.246094 172.617188 293.285156 172.507812 293.308594 172.433594 Z M 293.832031 171.722656 C 293.582031 172.15625 293.292969 172.59375 293.082031 172.925781 C 293.082031 172.941406 293.074219 172.960938 293.074219 172.976562 C 293.355469 172.585938 293.921875 171.941406 293.832031 171.722656 Z M 293.050781 174.605469 C 293.289062 174.351562 293.597656 173.847656 293.882812 173.316406 C 293.855469 173.171875 293.632812 173.503906 293.417969 173.859375 C 293.207031 174.21875 292.996094 174.601562 293.050781 174.605469 Z M 292.941406 173.964844 C 293.226562 173.628906 293.492188 173.195312 293.5625 172.933594 C 293.3125 173.378906 293.128906 173.507812 292.941406 173.648438 C 292.753906 173.789062 292.566406 173.941406 292.273438 174.421875 C 292.367188 174.53125 292.660156 174.300781 292.941406 173.964844 Z M 270.582031 185.671875 C 271.070312 185.699219 271.0625 185.613281 271.097656 185.539062 C 270.515625 185.496094 270.785156 185.632812 270.582031 185.671875 Z M 284.519531 180.558594 C 284.367188 180.664062 284.183594 180.78125 283.984375 180.910156 C 284.09375 180.921875 284.28125 180.847656 284.480469 180.75 C 284.433594 180.710938 284.476562 180.632812 284.519531 180.558594 Z M 285.402344 179.855469 C 285.535156 179.738281 285.765625 179.574219 285.710938 179.546875 C 285.171875 179.945312 285.03125 180.101562 285.035156 180.195312 C 285.035156 180.289062 285.171875 180.304688 285.160156 180.390625 C 285.609375 180.066406 285.609375 179.945312 286.21875 179.515625 C 286.167969 179.320312 285.519531 179.960938 285.402344 179.855469 Z M 288.105469 176.992188 C 288.171875 176.878906 288.097656 176.710938 287.777344 176.867188 C 287.761719 176.886719 287.746094 176.902344 287.730469 176.917969 C 287.640625 177.011719 287.546875 177.113281 287.445312 177.214844 C 287.460938 177.277344 287.558594 177.28125 287.199219 177.574219 C 287.089844 177.636719 287.042969 177.65625 287.019531 177.652344 C 286.523438 178.148438 285.941406 178.699219 285.351562 179.195312 C 285.117188 179.394531 284.882812 179.589844 284.65625 179.769531 C 284.769531 179.816406 285.320312 179.457031 285.988281 178.917969 C 286.679688 178.363281 287.476562 177.609375 288.105469 176.992188 Z M 287.929688 178.152344 C 287.769531 178.160156 287.972656 177.933594 287.832031 177.929688 C 287.257812 178.40625 287.148438 178.859375 287.417969 178.636719 C 287.375 178.542969 287.65625 178.4375 287.929688 178.152344 Z M 290.128906 173.976562 L 290.332031 173.988281 C 290.511719 173.714844 290.816406 173.300781 290.757812 173.238281 C 290.539062 173.535156 290.445312 173.394531 290.128906 173.976562 Z M 292.691406 174.414062 C 292.492188 174.386719 292.117188 174.945312 291.730469 175.425781 C 291.527344 175.480469 292.054688 174.847656 291.9375 174.824219 C 291.371094 175.492188 290.585938 176.234375 290.121094 176.921875 C 290.070312 176.582031 290.890625 175.742188 291.515625 174.617188 C 291.785156 174.285156 291.941406 174.296875 292.183594 174.019531 C 292.390625 173.542969 292.566406 173.113281 293.117188 172.171875 C 292.644531 172.714844 292.078125 173.683594 291.332031 174.726562 C 290.59375 175.769531 289.664062 176.878906 288.632812 177.699219 C 288.363281 178.136719 287.90625 178.5625 287.371094 178.96875 C 286.839844 179.375 286.234375 179.761719 285.667969 180.164062 C 285.554688 180.242188 285.4375 180.328125 285.316406 180.414062 C 285.332031 180.414062 285.347656 180.417969 285.363281 180.425781 C 283.808594 181.550781 282.335938 182.441406 280.789062 183.1875 C 279.238281 183.925781 277.605469 184.523438 275.703125 184.902344 C 275.425781 184.957031 275.148438 185.003906 274.867188 185.050781 C 274.867188 185.101562 274.976562 185.144531 274.910156 185.1875 C 274.828125 185.246094 274.246094 185.328125 274.117188 185.414062 C 273.832031 185.417969 273.472656 185.441406 273.308594 185.402344 C 273.234375 185.421875 273.125 185.425781 273.027344 185.441406 C 272.824219 185.480469 272.816406 185.46875 272.570312 185.457031 C 272.0625 185.421875 271.996094 185.496094 271.210938 185.480469 C 271.199219 185.554688 271.535156 185.554688 271.464844 185.640625 C 271.976562 185.675781 271.910156 185.597656 272.195312 185.585938 C 272.535156 185.582031 272.808594 185.640625 273.03125 185.660156 C 273.277344 185.683594 273.496094 185.691406 273.714844 185.71875 C 274.277344 185.671875 274.164062 185.558594 275.023438 185.515625 C 275.203125 185.457031 275.070312 185.378906 275.007812 185.300781 C 275.636719 185.214844 275.777344 185.292969 276.039062 185.328125 C 276.667969 185.15625 276.148438 185.046875 275.988281 184.898438 C 276.285156 184.789062 276.78125 184.695312 277.273438 184.621094 C 277.832031 184.53125 278.074219 184.585938 278.4375 184.527344 C 278.554688 184.503906 278.621094 184.484375 278.664062 184.46875 C 278.539062 184.488281 278.417969 184.5 278.320312 184.496094 C 279.066406 184.273438 279.71875 184.019531 279.820312 183.851562 C 280.089844 183.761719 280.003906 183.84375 279.878906 183.894531 C 280 184.015625 280.265625 183.90625 280.542969 183.789062 C 280.820312 183.664062 281.109375 183.53125 281.300781 183.613281 C 281.210938 183.652344 281.117188 183.691406 281.027344 183.726562 C 281.183594 183.6875 281.335938 183.648438 281.46875 183.621094 C 281.5 183.695312 281.375 183.796875 281.195312 183.90625 C 281.625 183.726562 282.097656 183.566406 282.171875 183.652344 C 282.367188 183.550781 282.566406 183.441406 282.769531 183.332031 C 282.769531 183.324219 282.769531 183.316406 282.777344 183.308594 C 282.800781 183.28125 282.910156 183.253906 282.886719 183.230469 C 282.867188 183.210938 283.011719 183.144531 282.960938 183.128906 C 283.089844 183.089844 283.222656 183.054688 283.40625 182.96875 C 283.632812 182.863281 283.773438 182.703125 283.996094 182.59375 C 284.113281 182.53125 284.277344 182.445312 284.449219 182.359375 C 285.679688 181.597656 286.914062 180.722656 288.0625 179.734375 C 289.9375 178.132812 291.558594 176.246094 292.691406 174.414062 Z M 282.523438 183.601562 C 282.023438 183.84375 281.46875 184.101562 280.886719 184.3125 C 280.855469 184.335938 280.824219 184.355469 280.800781 184.375 C 280.429688 184.5 280.3125 184.476562 280 184.558594 C 279.960938 184.605469 279.878906 184.660156 279.773438 184.707031 C 279.78125 184.746094 279.851562 184.777344 279.941406 184.796875 C 280.289062 184.675781 280.605469 184.554688 280.902344 184.441406 C 281.476562 184.222656 281.984375 184.03125 282.53125 183.910156 C 282.417969 183.871094 282.328125 183.917969 282.382812 183.800781 C 282.242188 183.789062 282.519531 183.675781 282.574219 183.625 C 282.589844 183.613281 282.546875 183.609375 282.523438 183.601562 Z M 278.679688 184.914062 L 278.789062 185.011719 C 278.972656 184.96875 279.082031 184.921875 279.117188 184.886719 C 278.992188 184.902344 278.882812 184.902344 278.816406 184.878906 C 278.773438 184.886719 278.730469 184.898438 278.679688 184.914062 Z M 282.546875 183.917969 C 282.082031 184.140625 281.605469 184.347656 281.132812 184.53125 C 281.417969 184.441406 281.695312 184.359375 281.972656 184.289062 C 282.292969 184.148438 282.257812 184.074219 282.570312 183.925781 C 282.5625 183.921875 282.554688 183.921875 282.546875 183.917969 Z M 288.785156 179.582031 C 287.964844 180.203125 286.890625 180.953125 285.902344 181.578125 C 285.695312 181.710938 285.496094 181.835938 285.304688 181.957031 C 285.484375 181.871094 285.667969 181.78125 285.785156 181.71875 C 286.007812 181.601562 286.214844 181.460938 286.433594 181.335938 C 286.84375 181.097656 287.296875 180.828125 287.753906 180.53125 C 288.164062 180.21875 288.539062 179.894531 288.785156 179.582031 Z M 244.300781 157.585938 C 244.289062 157.714844 244.289062 157.871094 244.28125 158.007812 C 244.300781 157.9375 244.320312 157.84375 244.332031 157.710938 C 244.339844 157.1875 244.179688 157.195312 244.019531 157.203125 C 243.980469 157.535156 244.007812 157.996094 244.058594 158.417969 C 244.132812 158.34375 244.078125 157.796875 244.113281 157.5625 C 244.1875 157.488281 244.261719 157.429688 244.300781 157.585938 Z M 295.523438 170.617188 C 294.542969 172.867188 293.207031 175.0625 291.53125 177.058594 C 290.789062 177.941406 289.976562 178.785156 289.105469 179.578125 C 289.226562 179.488281 289.347656 179.390625 289.472656 179.292969 C 289.714844 179.109375 290.4375 178.542969 290.792969 178.234375 C 291.152344 177.917969 291.390625 177.695312 291.582031 177.515625 C 292.1875 176.8125 292.761719 176.074219 293.300781 175.300781 C 294.34375 173.804688 295.242188 172.1875 295.941406 170.5 C 296.644531 168.8125 297.148438 167.058594 297.433594 165.316406 L 297.5625 165.257812 C 297.546875 165.871094 297.351562 167.011719 296.996094 168.160156 C 296.648438 169.3125 296.136719 170.460938 295.714844 171.148438 C 295.152344 172.679688 294.050781 174.746094 292.414062 176.785156 C 292.417969 176.78125 292.421875 176.78125 292.425781 176.773438 C 292.492188 176.722656 292.550781 176.640625 292.566406 176.671875 C 292.878906 176.550781 292.421875 177.023438 292.546875 177.046875 C 292.71875 176.839844 292.882812 176.632812 293.039062 176.429688 C 293.070312 176.292969 293.320312 175.980469 293.300781 175.882812 C 293.511719 175.636719 293.75 175.359375 293.835938 175.183594 C 293.824219 175.203125 293.945312 174.988281 293.890625 175.0625 C 294.03125 174.867188 294.089844 174.863281 294.203125 174.707031 C 294.277344 174.609375 294.257812 174.585938 294.347656 174.464844 C 294.457031 174.3125 294.53125 174.238281 294.625 174.121094 C 294.992188 173.523438 295.308594 172.960938 295.566406 172.453125 C 296.105469 171.3125 296.289062 170.453125 296.800781 169.792969 L 297.390625 167.480469 C 297.613281 166.601562 297.804688 165.851562 297.957031 165.992188 C 298.101562 165.246094 298.066406 165.226562 298.046875 165.1875 C 298.019531 165.152344 298.007812 165.097656 298.117188 164.273438 C 298.179688 164.710938 298.109375 164.75 298.308594 164.171875 C 298.285156 163.425781 298.15625 164.210938 298.207031 163.507812 C 298.292969 163.023438 298.320312 163.40625 298.390625 163.398438 C 298.371094 163.21875 298.355469 162.753906 298.453125 162.628906 C 298.453125 162.277344 298.351562 162.671875 298.3125 162.960938 C 298.195312 162.476562 298.476562 161.546875 298.335938 160.945312 C 298.429688 160.804688 298.4375 161.117188 298.511719 161.078125 C 298.542969 160.625 298.53125 160.410156 298.527344 160.183594 C 298.515625 159.957031 298.511719 159.722656 298.519531 159.230469 C 298.40625 160.011719 298.496094 160.5 298.261719 159.964844 C 298.164062 160.535156 298.1875 161.613281 298.117188 162.644531 C 298.054688 163.671875 297.898438 164.648438 297.667969 164.976562 C 297.839844 164.609375 297.777344 164.117188 297.640625 164.757812 C 297.625 164.425781 297.738281 163.433594 297.816406 162.472656 C 297.898438 161.511719 297.949219 160.582031 298.042969 160.386719 C 297.914062 160.375 297.910156 159.660156 297.863281 158.953125 C 297.820312 158.246094 297.734375 157.546875 297.601562 157.558594 C 297.785156 159.503906 297.769531 161.632812 297.445312 163.851562 C 297.128906 166.066406 296.503906 168.367188 295.523438 170.617188 Z M 297.429688 161.429688 C 297.507812 161.28125 297.59375 161.167969 297.582031 160.714844 C 297.410156 160.65625 297.46875 161.472656 297.289062 161.40625 C 297.292969 161.769531 297.234375 162.328125 297.308594 162.359375 C 297.292969 161.761719 297.355469 161.578125 297.429688 161.429688 Z M 303.003906 162.261719 C 302.988281 162.445312 302.96875 162.964844 302.949219 163.296875 C 302.929688 163.597656 302.929688 163.800781 302.871094 164 C 302.921875 164.660156 302.769531 165.5625 302.597656 166.667969 C 302.484375 167.386719 302.359375 168.246094 302.21875 168.804688 C 302.210938 168.835938 302.183594 168.839844 302.152344 168.980469 C 302.144531 169.023438 302.132812 169.101562 302.117188 169.140625 C 302.074219 169.300781 301.976562 169.625 301.867188 169.976562 C 301.769531 170.289062 301.789062 170.433594 301.699219 170.761719 C 301.707031 170.734375 301.644531 170.84375 301.617188 170.933594 C 301.5625 171.128906 301.503906 171.378906 301.433594 171.570312 C 301.421875 171.609375 301.398438 171.597656 301.351562 171.738281 C 301.269531 171.996094 301.242188 172.015625 301.164062 172.222656 C 301.042969 172.558594 300.980469 172.800781 300.84375 173.160156 C 300.707031 173.507812 300.523438 173.867188 300.351562 174.257812 C 300.144531 174.734375 299.875 175.421875 299.644531 175.636719 C 299.476562 175.984375 299.5 176.0625 299.246094 176.515625 C 299.109375 176.660156 298.910156 177.039062 298.746094 177.257812 C 298.304688 178.089844 297.882812 178.71875 297.429688 179.371094 C 297.332031 179.460938 297.203125 179.640625 297.078125 179.785156 C 297.019531 179.851562 296.863281 179.996094 296.816406 180.054688 C 296.6875 180.203125 296.558594 180.433594 296.429688 180.585938 C 296.382812 180.644531 296.183594 180.8125 296.15625 180.847656 C 295.976562 181.0625 295.742188 181.394531 295.546875 181.621094 C 295.5 181.582031 295.214844 181.992188 295.050781 182.121094 C 294.90625 182.234375 294.808594 182.371094 294.582031 182.609375 C 294.351562 182.855469 294.285156 182.863281 293.992188 183.207031 C 293.835938 183.390625 293.871094 183.382812 293.652344 183.5625 C 293.453125 183.722656 293.332031 183.894531 292.917969 184.246094 C 292.875 184.285156 292.878906 184.242188 292.761719 184.351562 C 292.601562 184.503906 292.503906 184.511719 292.328125 184.671875 C 292.296875 184.699219 292.238281 184.757812 292.207031 184.78125 L 291.519531 185.304688 C 291.101562 185.625 290.574219 185.980469 290.195312 186.175781 C 289.921875 186.398438 289.671875 186.550781 289.375 186.742188 C 289.203125 186.855469 288.828125 187.105469 288.671875 187.191406 C 288.582031 187.246094 288.472656 187.269531 288.332031 187.34375 C 288.195312 187.417969 288.066406 187.523438 288.023438 187.507812 C 287.6875 187.71875 287.304688 187.976562 287.019531 188.082031 C 286.878906 188.136719 286.761719 188.207031 286.5625 188.308594 C 286.457031 188.363281 286.410156 188.359375 286.386719 188.371094 C 286.007812 188.5625 285.820312 188.6875 285.496094 188.808594 C 285.4375 188.832031 285.082031 188.996094 285.027344 189.007812 C 284.929688 189.035156 284.355469 189.246094 283.9375 189.445312 C 283.839844 189.441406 283.625 189.53125 283.542969 189.515625 C 282.738281 189.863281 282.429688 189.859375 281.644531 190.144531 C 281.414062 190.125 280.824219 190.3125 280.542969 190.304688 C 278.957031 190.78125 277.417969 191.023438 276.976562 190.800781 C 277.128906 190.773438 277.289062 190.746094 277.445312 190.714844 C 277.105469 190.636719 277.910156 190.472656 277.378906 190.476562 C 276.957031 190.570312 277.339844 190.640625 276.738281 190.746094 C 276.390625 190.8125 276.144531 190.828125 276.0625 190.785156 C 275.585938 190.867188 275.953125 190.757812 275.855469 190.753906 C 275.761719 190.746094 275.394531 190.78125 275.175781 190.773438 C 274.90625 190.765625 274.839844 190.730469 274.632812 190.734375 C 274.542969 190.734375 274.414062 190.757812 274.320312 190.761719 C 274.273438 190.761719 274.074219 190.746094 274.140625 190.742188 C 274.054688 190.75 273.847656 190.824219 273.875 190.824219 C 273.382812 190.835938 273.3125 190.707031 272.867188 190.777344 C 272.71875 190.742188 272.960938 190.734375 273.214844 190.734375 C 273.46875 190.734375 273.738281 190.738281 273.648438 190.742188 C 273.832031 190.734375 274.480469 190.609375 274.71875 190.632812 C 274.734375 190.632812 274.722656 190.660156 274.742188 190.660156 C 274.804688 190.660156 275.007812 190.625 275.054688 190.628906 C 275.308594 190.65625 275.765625 190.53125 276.011719 190.542969 C 276.203125 190.554688 276.339844 190.515625 276.65625 190.476562 C 276.875 190.453125 277.335938 190.394531 277.914062 190.277344 C 278.042969 190.25 278.09375 190.273438 278.25 190.238281 C 278.230469 190.242188 278.28125 190.199219 278.375 190.175781 C 278.472656 190.152344 278.667969 190.136719 278.859375 190.09375 C 279.140625 190.027344 279.507812 189.988281 279.828125 189.902344 C 280.226562 189.796875 280.425781 189.664062 280.996094 189.515625 C 281.121094 189.480469 281.28125 189.464844 281.46875 189.386719 C 281.5 189.375 281.679688 189.285156 281.585938 189.3125 C 281.945312 189.203125 282.148438 189.183594 282.414062 189.105469 C 282.878906 188.824219 283.566406 188.652344 284.175781 188.390625 C 284.761719 188.136719 285.3125 187.820312 285.988281 187.464844 C 286.070312 187.484375 286.191406 187.46875 286.394531 187.375 C 286.414062 187.503906 286.449219 187.523438 286.703125 187.515625 C 287.25 187.210938 287.308594 187.09375 287.882812 186.753906 C 288.113281 186.519531 288.085938 186.390625 288.222656 186.195312 C 288.585938 185.933594 288.695312 185.953125 289.058594 185.679688 C 289.101562 185.738281 289.054688 185.839844 289.019531 185.9375 C 288.871094 186.125 289.363281 185.808594 289.414062 185.796875 C 289.527344 185.78125 289.253906 186.066406 289.632812 185.867188 C 289.949219 185.542969 290.035156 185.332031 290.023438 185.175781 C 290.464844 184.882812 290.667969 184.550781 290.875 184.476562 C 291.015625 184.289062 291.328125 183.992188 291.433594 183.816406 C 291.917969 183.453125 292.03125 183.25 292.5625 182.734375 C 292.816406 182.605469 292.863281 182.652344 292.710938 182.890625 C 293.007812 182.75 293.417969 182.296875 293.753906 181.867188 C 293.652344 181.871094 293.300781 182.296875 293.113281 182.433594 C 293.003906 182.433594 292.914062 182.421875 292.996094 182.285156 C 293.238281 182.082031 293.550781 181.738281 293.605469 181.851562 C 293.832031 181.472656 294.132812 181.226562 294.445312 180.773438 C 294.6875 180.445312 294.714844 180.542969 294.855469 180.414062 C 295.078125 180.125 295.300781 179.835938 295.515625 179.539062 C 295.675781 179.425781 295.902344 179.152344 296.011719 179.15625 C 296.210938 178.851562 296.332031 178.617188 296.464844 178.371094 C 296.578125 178.140625 296.464844 178.160156 296.648438 177.851562 C 297.167969 177.15625 297.453125 176.519531 297.882812 176.0625 C 298.386719 175.203125 298.660156 174.507812 298.710938 174.101562 C 298.761719 173.96875 298.847656 173.800781 298.890625 173.667969 C 298.910156 173.621094 298.933594 173.488281 298.914062 173.535156 C 299 173.316406 299.070312 173.246094 299.125 173.089844 C 299.203125 172.851562 299.160156 172.734375 299.363281 172.257812 C 299.3125 172.351562 299.261719 172.445312 299.21875 172.53125 C 299.019531 172.695312 299.039062 172.675781 299.027344 172.558594 C 299.023438 172.523438 299.234375 172.074219 299.03125 172.292969 C 299.226562 171.929688 299.207031 171.851562 299.332031 171.570312 C 299.125 171.820312 298.898438 172.125 298.648438 172.480469 C 298.457031 172.6875 298.707031 172.128906 298.496094 172.5 C 298.402344 172.582031 298.285156 172.722656 298.1875 172.804688 C 297.953125 173.421875 298.578125 172.734375 298.714844 172.871094 C 298.625 173.039062 298.71875 172.984375 298.75 173 C 298.6875 173.164062 298.582031 173.382812 298.371094 173.710938 C 298.164062 174.09375 298.320312 174.050781 298 174.546875 C 297.78125 174.714844 297.503906 175.238281 296.988281 175.925781 C 296.648438 176.378906 296.265625 176.839844 295.875 177.375 C 295.773438 177.355469 295.566406 177.433594 295.671875 177.230469 C 295.605469 177.117188 295.230469 177.40625 295.324219 177.214844 C 295.765625 176.609375 295.746094 176.90625 296.15625 176.320312 C 296.5625 175.835938 296.21875 176.0625 296.394531 175.796875 C 296.28125 175.800781 295.882812 176.414062 295.6875 176.574219 C 295.386719 176.914062 295.570312 176.824219 295.496094 176.960938 C 295.242188 177.273438 295.113281 177.34375 294.894531 177.582031 C 294.824219 177.683594 294.726562 177.816406 294.757812 177.832031 C 294.832031 177.875 294.984375 177.640625 294.910156 177.847656 C 294.890625 177.890625 294.800781 177.960938 294.839844 177.972656 C 294.878906 177.984375 294.800781 178.164062 294.8125 178.234375 C 294.65625 178.484375 294.667969 178.394531 294.367188 178.722656 C 294.078125 179.035156 294.324219 178.933594 294.214844 179.105469 C 293.878906 179.496094 293.878906 179.34375 293.636719 179.566406 C 293.199219 179.964844 293.175781 180.0625 292.996094 180.269531 C 292.511719 180.652344 292.378906 180.871094 291.929688 181.144531 C 291.566406 181.539062 291.132812 181.777344 290.671875 182.199219 C 290.632812 182.195312 290.480469 182.316406 290.371094 182.390625 C 290.070312 182.519531 289.875 182.527344 289.539062 182.691406 C 289.15625 182.972656 288.824219 183.15625 288.578125 183.339844 C 288.320312 183.527344 288.5 183.511719 288.125 183.734375 L 288.019531 183.691406 C 287.714844 183.902344 287.757812 183.972656 287.449219 184.179688 C 286.75 184.605469 286.289062 184.792969 285.65625 185.113281 C 285.457031 185.136719 285.152344 185.242188 285.117188 185.132812 C 284.96875 185.171875 284.90625 185.21875 284.632812 185.324219 C 284.46875 185.390625 284.261719 185.445312 283.996094 185.574219 C 283.878906 185.632812 283.875 185.65625 283.722656 185.722656 C 283.550781 185.808594 283.453125 185.875 283.515625 185.90625 C 283.433594 185.972656 283.285156 186.050781 283.117188 186.132812 C 282.355469 186.421875 282.527344 186.21875 282.300781 186.238281 C 281.851562 186.398438 281.292969 186.601562 281.011719 186.636719 C 280.609375 186.761719 280.910156 186.796875 280.5 186.917969 C 279.1875 187.292969 277.988281 187.5 277.117188 187.53125 C 276.414062 187.742188 275.390625 187.757812 274.433594 187.804688 C 274.273438 187.8125 274.015625 187.875 273.957031 187.867188 C 273.753906 187.847656 273.664062 187.875 273.105469 187.878906 C 272.738281 187.878906 272.417969 187.890625 271.753906 187.867188 C 271.453125 187.855469 271.128906 187.839844 270.777344 187.8125 C 270.746094 187.8125 270.714844 187.8125 270.679688 187.808594 C 269.796875 187.789062 268.949219 187.703125 268.429688 187.542969 C 268.078125 187.484375 267.722656 187.417969 267.351562 187.351562 C 267 187.289062 266.820312 187.265625 266.515625 187.179688 C 266.425781 187.152344 266.515625 187.152344 266.335938 187.113281 C 266.054688 187.054688 265.996094 187.078125 265.703125 187.019531 C 265.425781 186.960938 265.328125 186.914062 265.039062 186.835938 C 264.722656 186.753906 264.257812 186.652344 264.070312 186.589844 C 263.703125 186.472656 263.433594 186.34375 263.074219 186.203125 C 263.03125 186.191406 262.988281 186.175781 262.941406 186.164062 C 263.03125 186.210938 263.117188 186.273438 263.195312 186.316406 L 263.902344 186.691406 C 264.054688 186.777344 264.691406 186.894531 264.859375 186.984375 C 264.875 186.992188 264.851562 187.011719 264.871094 187.019531 C 264.921875 187.039062 265.109375 187.078125 265.144531 187.097656 C 265.15625 187.101562 265.144531 187.128906 265.15625 187.132812 C 265.414062 187.222656 265.746094 187.300781 266 187.378906 C 266.050781 187.394531 266.246094 187.429688 266.277344 187.445312 C 266.292969 187.449219 266.273438 187.472656 266.289062 187.480469 C 266.34375 187.496094 266.535156 187.523438 266.570312 187.539062 C 266.765625 187.628906 267.105469 187.667969 267.441406 187.773438 C 267.585938 187.820312 267.675781 187.832031 267.878906 187.878906 C 268.007812 187.902344 268.132812 187.9375 268.320312 187.976562 C 268.398438 187.988281 268.496094 188.03125 268.480469 188.027344 C 268.589844 188.046875 268.796875 188.039062 268.75 188.03125 C 268.96875 188.074219 269.128906 188.117188 269.351562 188.160156 C 269.429688 188.179688 269.347656 188.191406 269.511719 188.207031 C 269.550781 188.210938 269.617188 188.214844 269.65625 188.222656 C 269.867188 188.261719 270.5625 188.367188 271.128906 188.375 C 271.621094 188.496094 272.320312 188.546875 272.753906 188.65625 C 272.949219 188.796875 272.65625 188.855469 272.671875 188.964844 C 272.554688 188.996094 272.359375 189.007812 272.101562 189.003906 C 272.257812 189.199219 271.304688 189.183594 271.117188 189.300781 C 270.257812 189.261719 269.886719 189.320312 269.25 189.300781 C 269.003906 189.304688 268.761719 189.304688 268.886719 189.414062 C 268.203125 189.394531 267.363281 189.304688 266.394531 189.109375 C 266.183594 188.929688 266.636719 189.015625 266.738281 188.957031 C 266.644531 188.863281 266.167969 188.839844 266.324219 188.9375 C 266.015625 188.800781 266.222656 188.816406 266.5 188.84375 C 266.777344 188.871094 267.121094 188.90625 267.09375 188.835938 C 267.425781 188.964844 267.671875 188.929688 267.960938 188.953125 C 268.332031 188.933594 268.457031 188.835938 268.699219 188.773438 C 269.15625 188.796875 268.957031 188.90625 269.339844 188.9375 C 269.628906 188.9375 269.371094 188.726562 269.203125 188.675781 C 268.722656 188.601562 268.476562 188.589844 268.257812 188.585938 C 268.042969 188.585938 267.855469 188.589844 267.5 188.535156 C 267.402344 188.59375 266.953125 188.519531 267.167969 188.695312 C 266.777344 188.644531 266.84375 188.570312 266.554688 188.511719 C 266.28125 188.445312 266.578125 188.621094 266.464844 188.621094 C 266.40625 188.621094 266.203125 188.632812 266.082031 188.664062 C 265.847656 188.621094 265.816406 188.574219 265.628906 188.527344 C 265.417969 188.53125 265.234375 188.546875 265.28125 188.664062 C 265.007812 188.636719 264.609375 188.550781 264.296875 188.492188 C 264.367188 188.636719 264.386719 188.753906 264.265625 188.804688 C 264.019531 188.734375 263.773438 188.660156 263.53125 188.582031 C 263.378906 188.59375 263.113281 188.476562 262.824219 188.410156 C 262.730469 188.386719 262.632812 188.398438 262.550781 188.378906 C 262.5 188.367188 262.296875 188.277344 262.261719 188.273438 C 262.070312 188.261719 261.242188 187.953125 260.710938 187.742188 C 260.496094 187.664062 260.230469 187.589844 260.015625 187.496094 C 259.761719 187.386719 259.410156 187.199219 259.179688 187.085938 C 258.925781 186.957031 258.8125 186.9375 258.628906 186.792969 C 258.628906 186.628906 258.632812 186.597656 258.730469 186.570312 C 258.625 186.417969 259.003906 186.648438 259.125 186.675781 C 258.953125 186.363281 259.550781 186.640625 259.332031 186.296875 C 259.066406 186.128906 259.039062 186.203125 258.941406 186.15625 C 258.785156 186.085938 258.5625 185.933594 258.410156 185.863281 C 258.246094 185.785156 258.199219 185.800781 258.019531 185.707031 C 258.054688 185.902344 257.867188 185.902344 257.785156 186 C 257.839844 186.152344 258.1875 186.390625 258.082031 186.492188 C 257.820312 186.453125 256.976562 185.914062 256.359375 185.503906 C 256.277344 185.332031 256.597656 185.546875 256.351562 185.3125 C 255.984375 184.96875 255.574219 185.019531 255.207031 184.542969 C 255.015625 184.441406 254.980469 184.476562 254.828125 184.410156 C 254.789062 184.394531 254.613281 184.234375 254.578125 184.21875 C 254.492188 184.183594 254.546875 184.285156 254.449219 184.234375 C 254.152344 183.984375 253.558594 183.5625 253.480469 183.398438 C 253.25 183.214844 253.371094 183.464844 252.992188 183.09375 C 252.871094 182.84375 252.425781 182.394531 252.460938 182.222656 C 252.226562 181.972656 252.15625 181.820312 251.808594 181.488281 C 251.730469 181.367188 251.707031 181.285156 251.726562 181.230469 C 251.398438 180.832031 251.441406 180.9375 251.203125 180.621094 C 250.777344 180.222656 250.75 180.46875 250.300781 180.007812 C 250.34375 180.207031 250.097656 179.90625 250.140625 180.105469 C 250.042969 180.027344 249.902344 179.871094 249.726562 179.652344 C 249.695312 179.761719 249.433594 179.453125 249.367188 179.496094 C 248.949219 178.898438 248.605469 178.441406 248.269531 177.984375 C 247.933594 177.53125 247.613281 177.074219 247.285156 176.464844 C 247.28125 176.117188 247.734375 176.929688 247.695312 176.492188 C 247.640625 176.21875 247.398438 176.0625 247.214844 175.671875 C 247.121094 175.273438 247.550781 175.738281 247.65625 175.636719 C 247.980469 176.039062 248.339844 176.472656 248.53125 176.492188 C 248.527344 176.269531 248.277344 176.113281 248.160156 175.765625 C 247.980469 175.46875 247.949219 175.566406 247.863281 175.5 C 247.820312 175.46875 247.707031 175.324219 247.675781 175.296875 C 247.65625 175.285156 247.671875 175.398438 247.644531 175.367188 C 247.503906 175.203125 247.195312 174.871094 247.117188 174.984375 C 246.796875 174.261719 246.667969 174.171875 246.375 173.644531 C 246.195312 173.625 246.121094 174.003906 245.824219 173.558594 C 245.613281 173.027344 245.546875 173.042969 245.359375 172.558594 C 245.234375 172.375 245.050781 171.90625 244.941406 171.757812 C 244.777344 171.261719 244.714844 170.96875 244.488281 170.351562 C 244.445312 170.230469 244.417969 170.230469 244.367188 170.074219 C 244.242188 169.664062 244.144531 169.066406 243.933594 168.515625 C 243.941406 168.21875 244.003906 168.179688 244.070312 168.15625 C 244.125 168.132812 244.171875 168.308594 244.242188 168.351562 C 244.34375 168.417969 244.414062 168.277344 244.503906 168.246094 C 244.691406 168.6875 244.933594 169.453125 245.128906 169.71875 C 245.335938 170.429688 245.53125 170.875 245.722656 171.292969 L 245.855469 171.105469 C 245.722656 170.660156 245.597656 170.488281 245.503906 170.285156 C 245.390625 170.03125 245.300781 169.78125 245.199219 169.628906 C 245.152344 169.488281 245.125 169.378906 245.105469 169.28125 C 245.003906 169.023438 244.90625 168.75 244.792969 168.464844 C 244.710938 168.253906 244.609375 168.003906 244.519531 167.765625 C 244.503906 167.757812 244.488281 167.738281 244.472656 167.699219 C 244.453125 167.625 244.4375 167.554688 244.417969 167.488281 C 244.371094 167.335938 244.335938 167.199219 244.324219 167.085938 C 244.308594 167.019531 244.292969 166.953125 244.28125 166.890625 C 244.214844 166.722656 244.164062 166.628906 244.105469 166.480469 C 244.089844 166.601562 244.050781 166.539062 244.066406 166.804688 C 243.984375 166.753906 243.898438 166.414062 243.820312 166.125 C 243.773438 166.617188 243.621094 166.253906 243.5 166.078125 C 243.398438 165.527344 243.535156 165.589844 243.445312 165.039062 C 243.339844 164.386719 243.226562 164.085938 243.160156 163.367188 C 243.1875 163.335938 243.167969 163.148438 243.167969 163.015625 C 243.191406 162.949219 243.214844 162.890625 243.242188 162.839844 C 243.242188 162.820312 243.238281 162.804688 243.234375 162.785156 C 243.238281 162.652344 243.203125 162.429688 243.191406 162.242188 C 243.183594 162.152344 243.191406 161.945312 243.183594 161.867188 C 243.167969 161.671875 243.097656 161.417969 243.082031 161.21875 C 243.074219 161.140625 243.09375 160.886719 243.089844 160.839844 C 243.0625 160.5625 242.992188 160.160156 242.96875 159.863281 C 243.03125 159.855469 242.941406 159.363281 242.96875 159.160156 C 242.988281 158.972656 242.960938 158.808594 242.949219 158.480469 C 242.941406 158.140625 242.980469 158.09375 242.945312 157.640625 C 242.925781 157.402344 242.90625 157.433594 242.933594 157.148438 C 242.960938 156.894531 242.925781 156.6875 242.964844 156.144531 C 242.972656 156.089844 242.996094 156.121094 243.003906 155.960938 C 243.007812 155.742188 243.070312 155.664062 243.082031 155.429688 C 243.085938 155.386719 243.085938 155.304688 243.089844 155.265625 L 243.207031 154.410156 C 243.273438 153.886719 243.390625 153.261719 243.523438 152.859375 C 243.558594 152.503906 243.628906 152.222656 243.699219 151.875 C 243.742188 151.671875 243.832031 151.230469 243.878906 151.0625 C 243.90625 150.960938 243.964844 150.863281 244.011719 150.710938 C 244.054688 150.5625 244.070312 150.398438 244.113281 150.378906 C 244.203125 149.988281 244.289062 149.539062 244.414062 149.261719 C 244.472656 149.121094 244.507812 148.992188 244.578125 148.777344 C 244.613281 148.664062 244.648438 148.632812 244.65625 148.609375 C 244.792969 148.203125 244.832031 147.984375 244.976562 147.667969 C 245 147.609375 245.136719 147.246094 245.164062 147.199219 C 245.214844 147.105469 245.472656 146.554688 245.625 146.113281 C 245.695312 146.046875 245.789062 145.832031 245.855469 145.785156 C 246.175781 144.972656 246.398438 144.753906 246.75 143.996094 C 246.929688 143.847656 247.210938 143.300781 247.414062 143.105469 C 248.195312 141.648438 249.109375 140.386719 249.582031 140.230469 C 249.488281 140.359375 249.398438 140.488281 249.308594 140.621094 C 249.605469 140.4375 249.152344 141.125 249.523438 140.742188 C 249.757812 140.378906 249.4375 140.601562 249.785156 140.097656 C 249.984375 139.804688 250.148438 139.621094 250.238281 139.589844 C 250.515625 139.195312 250.332031 139.535156 250.40625 139.46875 C 250.476562 139.40625 250.710938 139.121094 250.871094 138.976562 C 251.066406 138.789062 251.140625 138.765625 251.28125 138.617188 C 251.34375 138.554688 251.421875 138.445312 251.484375 138.378906 C 251.515625 138.339844 251.664062 138.210938 251.625 138.261719 C 251.679688 138.195312 251.773438 137.996094 251.753906 138.015625 C 252.09375 137.660156 252.234375 137.699219 252.5 137.335938 C 252.628906 137.257812 252.464844 137.433594 252.285156 137.613281 C 252.105469 137.792969 251.910156 137.980469 251.96875 137.914062 C 251.847656 138.046875 251.480469 138.597656 251.292969 138.75 C 251.28125 138.757812 251.269531 138.730469 251.257812 138.746094 C 251.214844 138.789062 251.09375 138.957031 251.058594 138.988281 C 250.859375 139.148438 250.628906 139.5625 250.445312 139.726562 C 250.296875 139.855469 250.230469 139.980469 250.035156 140.230469 C 249.898438 140.402344 249.617188 140.769531 249.289062 141.261719 C 249.21875 141.375 249.167969 141.394531 249.082031 141.527344 C 249.089844 141.511719 249.085938 141.578125 249.035156 141.660156 C 248.980469 141.746094 248.855469 141.894531 248.75 142.0625 C 248.597656 142.308594 248.367188 142.597656 248.203125 142.878906 C 247.996094 143.242188 247.949219 143.476562 247.652344 143.984375 C 247.589844 144.097656 247.488281 144.21875 247.410156 144.410156 C 247.394531 144.4375 247.332031 144.628906 247.378906 144.542969 C 247.203125 144.875 247.074219 145.035156 246.941406 145.277344 C 246.8125 145.804688 246.449219 146.410156 246.207031 147.03125 C 245.96875 147.621094 245.804688 148.234375 245.582031 148.964844 C 245.507812 149.007812 245.433594 149.105469 245.355469 149.320312 C 245.25 149.238281 245.210938 149.25 245.039062 149.4375 C 244.867188 150.039062 244.910156 150.164062 244.746094 150.808594 C 244.75 151.132812 244.855469 151.207031 244.902344 151.429688 C 245.074219 150.941406 245.238281 150.539062 245.351562 150.335938 C 245.449219 150.152344 245.578125 150.058594 245.648438 149.851562 C 246 149.550781 245.75 150.398438 246.140625 149.875 C 246.386719 149.101562 246.742188 148.269531 246.542969 148.191406 C 246.828125 147.636719 247.109375 147.15625 247.386719 146.746094 L 247.582031 146.722656 C 247.683594 146.523438 247.785156 146.324219 247.894531 146.128906 C 247.796875 146.195312 247.699219 146.253906 247.675781 146.1875 C 247.796875 145.871094 247.828125 145.820312 248.105469 145.492188 C 248.144531 145.355469 248.050781 145.367188 248.089844 145.230469 C 248.285156 144.917969 248.496094 144.753906 248.636719 144.410156 C 248.691406 144.289062 248.664062 144.355469 249.015625 143.878906 C 249.339844 143.445312 249.71875 142.894531 250.160156 142.449219 C 250.21875 142.472656 250.253906 142.484375 250.277344 142.503906 C 251.023438 141.542969 251.832031 140.636719 252.695312 139.789062 C 252.789062 139.671875 252.886719 139.546875 252.945312 139.457031 C 253.292969 139.171875 253.507812 138.964844 253.945312 138.605469 C 253.949219 138.554688 253.953125 138.5 253.917969 138.472656 C 253.980469 138.375 254.109375 138.226562 254.292969 138.042969 C 254.046875 138.019531 254.730469 137.355469 254.78125 137.136719 C 255.414062 136.554688 255.632812 136.253906 256.097656 135.816406 C 256.269531 135.640625 256.4375 135.46875 256.269531 135.480469 C 256.769531 135.007812 257.425781 134.476562 258.246094 133.929688 C 258.527344 133.90625 258.144531 134.164062 258.113281 134.277344 C 258.246094 134.277344 258.601562 133.957031 258.417969 134 C 258.734375 133.878906 258.578125 134.015625 258.363281 134.191406 C 258.148438 134.367188 257.878906 134.585938 257.945312 134.617188 C 257.621094 134.761719 257.472656 134.960938 257.253906 135.152344 C 257.003906 135.421875 256.988281 135.582031 256.859375 135.800781 C 256.519531 136.105469 256.585938 135.886719 256.292969 136.136719 C 256.089844 136.339844 256.417969 136.308594 256.574219 136.222656 C 256.964844 135.9375 257.148438 135.769531 257.300781 135.617188 C 257.457031 135.464844 257.585938 135.328125 257.875 135.117188 C 257.902344 135.007812 258.269531 134.742188 257.996094 134.769531 C 258.304688 134.527344 258.3125 134.625 258.558594 134.464844 C 258.796875 134.316406 258.464844 134.402344 258.546875 134.324219 C 258.585938 134.285156 258.71875 134.128906 258.785156 134.019531 C 258.980469 133.886719 259.035156 133.898438 259.199219 133.796875 C 259.347656 133.644531 259.464844 133.503906 259.347656 133.453125 C 259.5625 133.28125 259.90625 133.058594 260.167969 132.878906 C 260.011719 132.828125 259.917969 132.757812 259.96875 132.636719 C 260.191406 132.511719 260.417969 132.390625 260.644531 132.273438 C 260.742188 132.160156 261.011719 132.050781 261.265625 131.894531 C 261.347656 131.84375 261.410156 131.765625 261.476562 131.722656 C 261.523438 131.695312 261.734375 131.613281 261.757812 131.59375 C 261.902344 131.464844 262.703125 131.097656 263.230469 130.867188 C 263.433594 130.773438 263.675781 130.636719 263.894531 130.550781 C 264.148438 130.449219 264.53125 130.328125 264.777344 130.246094 C 265.042969 130.160156 265.140625 130.09375 265.371094 130.0625 C 265.488281 130.179688 265.507812 130.203125 265.460938 130.292969 C 265.640625 130.324219 265.210938 130.429688 265.105469 130.5 C 265.449219 130.597656 264.828125 130.824219 265.226562 130.914062 C 265.535156 130.84375 265.5 130.773438 265.601562 130.734375 C 265.761719 130.671875 266.03125 130.625 266.1875 130.566406 C 266.355469 130.503906 266.375 130.460938 266.570312 130.398438 C 266.40625 130.285156 266.539062 130.152344 266.527344 130.027344 C 266.382812 129.957031 265.96875 130.035156 265.96875 129.890625 C 266.183594 129.730469 267.160156 129.515625 267.890625 129.367188 C 268.066406 129.429688 267.6875 129.503906 268.023438 129.496094 C 268.53125 129.480469 268.785156 129.152344 269.378906 129.230469 C 269.589844 129.167969 269.585938 129.113281 269.742188 129.050781 C 269.78125 129.039062 270.019531 129.027344 270.054688 129.011719 C 270.136719 128.976562 270.027344 128.941406 270.132812 128.910156 C 270.519531 128.878906 271.238281 128.753906 271.410156 128.8125 C 271.703125 128.78125 271.441406 128.6875 271.96875 128.683594 C 272.234375 128.777344 272.863281 128.777344 272.960938 128.921875 C 273.300781 128.933594 273.464844 128.988281 273.945312 128.976562 C 274.085938 129.007812 274.160156 129.050781 274.183594 129.105469 C 274.695312 129.152344 274.589844 129.105469 274.984375 129.164062 C 275.570312 129.144531 275.414062 128.949219 276.058594 128.957031 C 275.882812 128.847656 276.273438 128.882812 276.097656 128.773438 C 276.226562 128.761719 276.4375 128.769531 276.710938 128.800781 C 276.660156 128.703125 277.0625 128.734375 277.074219 128.65625 C 277.796875 128.785156 278.363281 128.863281 278.921875 128.945312 C 279.480469 129.03125 280.027344 129.125 280.695312 129.320312 C 280.941406 129.5625 280.050781 129.3125 280.386719 129.59375 C 280.617188 129.746094 280.898438 129.683594 281.304688 129.832031 C 281.65625 130.046875 281.023438 130.023438 281.019531 130.167969 C 280.503906 130.117188 279.945312 130.0625 279.796875 130.183594 C 279.957031 130.339844 280.242188 130.273438 280.574219 130.433594 C 280.910156 130.519531 280.863281 130.425781 280.96875 130.410156 C 281.019531 130.40625 281.207031 130.429688 281.246094 130.421875 C 281.269531 130.417969 281.175781 130.347656 281.21875 130.351562 C 281.433594 130.371094 281.886719 130.382812 281.859375 130.246094 C 282.597656 130.53125 282.753906 130.503906 283.335938 130.667969 C 283.476562 130.554688 283.261719 130.234375 283.78125 130.339844 C 284.3125 130.566406 284.34375 130.503906 284.820312 130.714844 C 285.039062 130.753906 285.5 130.957031 285.683594 130.988281 C 286.148438 131.21875 286.402344 131.382812 286.996094 131.65625 C 287.113281 131.710938 287.132812 131.691406 287.28125 131.769531 C 287.660156 131.964844 288.152344 132.320312 288.691406 132.5625 C 288.894531 132.777344 288.878906 132.847656 288.847656 132.910156 C 288.824219 132.964844 288.667969 132.878906 288.585938 132.894531 C 288.46875 132.921875 288.519531 133.070312 288.476562 133.15625 C 288.035156 132.976562 287.320312 132.605469 286.992188 132.558594 C 286.34375 132.203125 285.894531 132.027344 285.460938 131.867188 L 285.5 132.089844 C 285.910156 132.3125 286.121094 132.34375 286.328125 132.421875 C 286.589844 132.523438 286.832031 132.632812 287.007812 132.671875 C 287.351562 132.84375 287.445312 132.945312 287.699219 133.089844 C 288.023438 133.273438 288.238281 133.289062 288.636719 133.613281 C 288.855469 133.703125 288.667969 133.429688 288.890625 133.515625 C 289.515625 133.894531 289.890625 134.121094 290.460938 134.585938 C 290.648438 134.621094 290.132812 134.253906 290.074219 134.195312 C 289.890625 134.003906 290.050781 134.074219 289.808594 133.863281 C 289.902344 133.839844 290.203125 134.019531 290.460938 134.167969 C 290.148438 133.785156 290.515625 133.9375 290.722656 133.972656 C 291.1875 134.292969 291.042969 134.34375 291.5 134.667969 C 292.03125 135.054688 292.328125 135.1875 292.882812 135.648438 C 292.886719 135.6875 293.03125 135.808594 293.125 135.898438 C 293.21875 136.085938 293.261719 136.246094 293.207031 136.351562 C 292.632812 135.910156 292.429688 135.953125 292.320312 136.097656 C 292.367188 136.226562 292.90625 136.628906 293.144531 136.878906 C 293.46875 137.144531 293.546875 137.089844 293.640625 137.050781 C 293.78125 137.171875 293.964844 137.382812 294.097656 137.5 C 294.292969 137.667969 294.335938 137.570312 294.683594 137.925781 C 294.667969 137.816406 294.398438 137.539062 294.253906 137.351562 C 294.417969 137.414062 294.34375 137.140625 294.539062 137.242188 C 294.816406 137.488281 295.023438 137.785156 295.203125 137.984375 C 295.351562 138.152344 295.554688 138.308594 295.640625 138.46875 C 295.585938 138.679688 295.542969 138.882812 296.058594 139.53125 C 296.316406 139.84375 296.292969 139.65625 296.320312 139.558594 C 296.402344 139.65625 296.433594 139.644531 296.53125 139.773438 C 296.566406 139.816406 296.679688 140 296.625 139.941406 C 296.933594 140.289062 296.882812 140.078125 297.257812 140.570312 C 297.382812 140.773438 297.226562 140.726562 297.398438 140.976562 C 297.691406 141.4375 297.570312 141.046875 297.730469 141.230469 C 297.886719 141.433594 297.878906 141.5 297.992188 141.671875 C 298.128906 141.875 298.214844 141.898438 298.378906 142.144531 C 298.480469 142.300781 298.632812 142.535156 298.722656 142.699219 C 298.789062 142.824219 298.792969 142.871094 298.878906 143.015625 C 299.183594 143.554688 299.578125 144.246094 299.902344 144.886719 C 300.226562 145.527344 300.484375 146.109375 300.566406 146.398438 C 300.625 146.597656 300.601562 146.753906 300.699219 146.949219 C 300.664062 147.410156 300.238281 146.636719 300.335938 147.285156 C 300.707031 148.003906 301.046875 148.84375 301.242188 148.757812 C 301.433594 149.351562 301.574219 149.890625 301.671875 150.375 L 301.527344 150.554688 C 301.523438 150.648438 301.523438 150.742188 301.5625 150.925781 C 301.597656 151.101562 301.542969 151.089844 301.59375 151.296875 C 301.773438 151.6875 301.703125 150.894531 301.863281 150.972656 C 302 151.285156 302.015625 151.339844 302.050781 151.769531 C 302.121094 151.890625 302.179688 151.816406 302.246094 151.941406 C 302.332031 152.304688 302.296875 152.566406 302.441406 152.910156 C 302.492188 153.03125 302.460938 152.964844 302.550781 153.554688 C 302.628906 154.089844 302.753906 154.746094 302.753906 155.371094 C 302.613281 155.429688 302.613281 155.464844 302.464844 155.277344 C 302.394531 155.199219 302.433594 155.703125 302.425781 155.832031 C 302.4375 155.894531 302.496094 156.113281 302.496094 156.148438 C 302.5 156.164062 302.46875 156.152344 302.472656 156.175781 C 302.484375 156.238281 302.542969 156.453125 302.546875 156.5 C 302.546875 156.683594 302.582031 156.640625 302.644531 156.984375 C 302.644531 156.96875 302.632812 157.070312 302.652344 157.175781 C 302.710938 157.515625 302.742188 157.742188 302.820312 158.347656 C 302.882812 158.824219 302.910156 159.335938 302.953125 159.878906 C 302.980469 160.269531 302.992188 160.363281 302.992188 160.726562 C 303 160.988281 303.042969 161.875 303.003906 162.261719 Z M 287.644531 179.519531 C 287.039062 179.769531 286.945312 180.007812 287.0625 179.566406 C 286.328125 180.121094 286.378906 180.261719 285.613281 180.777344 C 285.785156 180.796875 286.210938 180.59375 286.632812 180.324219 C 287.058594 180.054688 287.472656 179.71875 287.644531 179.519531 Z M 291.148438 176.207031 C 290.292969 177.28125 289.242188 178.394531 288.097656 179.355469 C 286.957031 180.320312 285.726562 181.128906 284.609375 181.679688 C 284.761719 181.347656 285.863281 180.480469 286.960938 179.503906 C 287.511719 179.019531 288.066406 178.507812 288.542969 178.066406 C 289.023438 177.628906 289.421875 177.257812 289.6875 177.066406 C 289.988281 176.847656 289.8125 177.453125 290.328125 176.945312 C 289.609375 177.769531 289.085938 178.070312 288.609375 178.300781 C 288.171875 178.734375 288.632812 178.601562 288.1875 179.03125 C 288.519531 178.925781 289.117188 178.371094 289.683594 177.757812 C 290.253906 177.144531 290.792969 176.476562 291.148438 176.207031 Z M 284.132812 182.011719 C 284.320312 181.96875 284.535156 181.902344 284.945312 181.597656 C 285 181.808594 284.449219 181.941406 283.761719 182.40625 C 283.683594 182.238281 283.167969 182.542969 283.445312 182.253906 C 283.777344 182.070312 283.941406 182.054688 284.132812 182.011719 " fill-opacity="1" fill-rule="evenodd"/></g><g fill="#000000" fill-opacity="1"><g transform="translate(29.201134, 187.596842)"><g><path d="M 4.875 0 L 4.875 -64.921875 L 19.765625 -64.921875 C 24.804688 -64.921875 28.253906 -63.390625 30.109375 -60.328125 C 31.972656 -57.265625 32.953125 -52.695312 33.046875 -46.625 L 33.046875 -45.265625 C 33.046875 -38.816406 32.128906 -33.925781 30.296875 -30.59375 C 28.472656 -27.257812 25.078125 -25.59375 20.109375 -25.59375 L 14.75 -25.59375 L 14.75 0 Z M 14.75 -33.75 L 18.15625 -33.75 C 20.238281 -33.75 21.59375 -34.550781 22.21875 -36.15625 C 22.851562 -37.769531 23.171875 -40.84375 23.171875 -45.375 L 23.171875 -46.625 C 23.140625 -50.457031 22.796875 -53.195312 22.140625 -54.84375 C 21.492188 -56.5 20.1875 -57.328125 18.21875 -57.328125 L 14.75 -57.328125 Z M 14.75 -33.75 "/></g></g></g><g fill="#000000" fill-opacity="1"><g transform="translate(67.268429, 187.596842)"><g><path d="M 14.015625 -18.03125 C 14.015625 -14.226562 14.300781 -11.570312 14.875 -10.0625 C 15.457031 -8.5625 16.644531 -7.8125 18.4375 -7.8125 C 20.238281 -7.8125 21.421875 -8.582031 21.984375 -10.125 C 22.546875 -11.664062 22.828125 -14.300781 22.828125 -18.03125 L 22.828125 -48.28125 C 22.828125 -51.351562 22.535156 -53.597656 21.953125 -55.015625 C 21.378906 -56.429688 20.25 -57.140625 18.5625 -57.140625 C 16.882812 -57.140625 15.707031 -56.429688 15.03125 -55.015625 C 14.351562 -53.597656 14.015625 -51.367188 14.015625 -48.328125 Z M 32.75 -18.15625 C 32.75 -11.800781 31.617188 -7.0625 29.359375 -3.9375 C 27.097656 -0.820312 23.476562 0.734375 18.5 0.734375 C 13.519531 0.734375 9.867188 -0.832031 7.546875 -3.96875 C 5.222656 -7.101562 4.0625 -11.832031 4.0625 -18.15625 L 4.0625 -47.84375 C 4.0625 -59.75 8.914062 -65.703125 18.625 -65.703125 C 23.644531 -65.703125 27.253906 -64.1875 29.453125 -61.15625 C 31.648438 -58.132812 32.75 -53.695312 32.75 -47.84375 Z M 32.75 -18.15625 "/></g></g></g><g fill="#000000" fill-opacity="1"><g transform="translate(107.364361, 187.596842)"><g><path d="M 3.578125 -18.265625 L 3.578125 -24.046875 L 12.953125 -24.046875 L 12.953125 -17.515625 C 12.953125 -13.898438 13.257812 -11.359375 13.875 -9.890625 C 14.488281 -8.429688 15.640625 -7.703125 17.328125 -7.703125 C 19.023438 -7.703125 20.148438 -8.304688 20.703125 -9.515625 C 21.265625 -10.722656 21.546875 -12.691406 21.546875 -15.421875 C 21.546875 -18.148438 21.050781 -20.523438 20.0625 -22.546875 C 19.082031 -24.578125 17.519531 -26.703125 15.375 -28.921875 L 10.59375 -33.859375 C 8.351562 -36.203125 6.609375 -38.625 5.359375 -41.125 C 4.117188 -43.632812 3.5 -46.535156 3.5 -49.828125 C 3.5 -55.191406 4.53125 -59.175781 6.59375 -61.78125 C 8.664062 -64.394531 12.222656 -65.703125 17.265625 -65.703125 C 22.304688 -65.703125 25.71875 -64.179688 27.5 -61.140625 C 29.28125 -58.109375 30.171875 -53.675781 30.171875 -47.84375 L 30.171875 -43.828125 L 21.0625 -43.828125 L 21.0625 -48.46875 C 21.0625 -51.613281 20.789062 -53.867188 20.25 -55.234375 C 19.707031 -56.597656 18.664062 -57.28125 17.125 -57.28125 C 15.59375 -57.28125 14.488281 -56.765625 13.8125 -55.734375 C 13.132812 -54.703125 12.796875 -53.148438 12.796875 -51.078125 C 12.796875 -49.015625 13.140625 -47.367188 13.828125 -46.140625 C 14.515625 -44.910156 15.757812 -43.335938 17.5625 -41.421875 L 22.90625 -35.640625 C 25.582031 -32.734375 27.601562 -29.789062 28.96875 -26.8125 C 30.332031 -23.84375 31.015625 -20.597656 31.015625 -17.078125 C 31.015625 -11.003906 29.992188 -6.515625 27.953125 -3.609375 C 25.921875 -0.710938 22.351562 0.734375 17.25 0.734375 C 12.144531 0.734375 8.585938 -0.878906 6.578125 -4.109375 C 4.578125 -7.347656 3.578125 -12.066406 3.578125 -18.265625 Z M 3.578125 -18.265625 "/></g></g></g><g fill="#000000" fill-opacity="1"><g transform="translate(143.993171, 187.596842)"><g><path d="M 8.1875 0 L 8.1875 -56.359375 L 0.59375 -56.359375 L 0.59375 -64.921875 L 25.34375 -64.921875 L 25.34375 -56.359375 L 18.03125 -56.359375 L 18.03125 0 Z M 8.1875 0 "/></g></g></g><g fill="#000000" fill-opacity="1"><g transform="translate(173.171346, 187.596842)"><g><path d="M 4.875 0 L 4.875 -64.921875 L 26.640625 -64.921875 L 26.640625 -56.40625 L 14.75 -56.40625 L 14.75 -37.515625 L 26.046875 -37.515625 L 26.046875 -29.171875 L 14.75 -29.171875 L 14.75 -8.515625 L 27.078125 -8.515625 L 27.078125 0 Z M 4.875 0 "/></g></g></g><g fill="#000000" fill-opacity="1"><g transform="translate(206.517448, 187.596842)"><g><path d="M 17.921875 -30.5 L 14.75 -30.65625 L 14.75 0 L 4.875 0 L 4.875 -64.921875 L 21.203125 -64.921875 C 24.597656 -64.921875 27.128906 -64.238281 28.796875 -62.875 C 30.472656 -61.507812 31.578125 -59.601562 32.109375 -57.15625 C 32.640625 -54.707031 32.90625 -51.507812 32.90625 -47.5625 C 32.90625 -43.613281 32.484375 -40.609375 31.640625 -38.546875 C 30.804688 -36.484375 29.257812 -35.09375 27 -34.375 C 29.238281 -33.988281 30.800781 -32.476562 31.6875 -29.84375 C 32.570312 -27.207031 33.015625 -21.726562 33.015625 -13.40625 C 33.015625 -5.082031 33.140625 -0.613281 33.390625 0 L 23.5 0 C 23.25 -0.488281 23.125 -8.25 23.125 -23.28125 C 23.125 -26.15625 22.78125 -28.066406 22.09375 -29.015625 C 21.40625 -29.960938 20.015625 -30.457031 17.921875 -30.5 Z M 14.796875 -38.328125 L 18.734375 -38.328125 C 19.992188 -38.328125 20.921875 -38.609375 21.515625 -39.171875 C 22.117188 -39.742188 22.535156 -40.71875 22.765625 -42.09375 C 23.003906 -43.46875 23.125 -45.566406 23.125 -48.390625 L 23.125 -48.796875 C 23.125 -52.316406 22.828125 -54.617188 22.234375 -55.703125 C 21.648438 -56.785156 20.289062 -57.328125 18.15625 -57.328125 L 14.796875 -57.328125 Z M 14.796875 -38.328125 "/></g></g></g><g fill="#000000" fill-opacity="1"><g transform="translate(177.115186, 264.846837)"><g><path d="M 4.828125 0 L 4.828125 -64.921875 L 27.109375 -64.921875 L 27.109375 -56.328125 L 14.71875 -56.328125 L 14.71875 -39.0625 L 26.234375 -39.0625 L 26.234375 -30.4375 L 14.71875 -30.4375 L 14.71875 0 Z M 4.828125 0 "/></g></g></g><g fill="#000000" fill-opacity="1"><g transform="translate(209.723605, 264.846837)"><g><path d="M 33.125 -16.671875 C 33.125 -10.691406 31.992188 -6.296875 29.734375 -3.484375 C 27.472656 -0.671875 23.835938 0.734375 18.828125 0.734375 C 13.828125 0.734375 10.1875 -0.675781 7.90625 -3.5 C 5.632812 -6.332031 4.5 -10.722656 4.5 -16.671875 L 4.5 -64.953125 L 14.390625 -64.953125 L 14.390625 -16.859375 C 14.390625 -13.441406 14.546875 -11.363281 14.859375 -10.625 C 15.179688 -9.882812 15.566406 -9.210938 16.015625 -8.609375 C 16.472656 -8.003906 17.414062 -7.703125 18.84375 -7.703125 C 20.269531 -7.703125 21.289062 -8.117188 21.90625 -8.953125 C 22.519531 -9.796875 22.894531 -10.835938 23.03125 -12.078125 C 23.164062 -13.316406 23.234375 -14.910156 23.234375 -16.859375 L 23.234375 -64.953125 L 33.125 -64.953125 Z M 33.125 -16.671875 "/></g></g></g><g fill="#000000" fill-opacity="1"><g transform="translate(250.594107, 264.846837)"><g><path d="M 4.875 0 L 4.875 -64.921875 L 12.609375 -64.921875 L 26.375 -25.96875 L 25.671875 -43.671875 L 25.671875 -64.921875 L 34.5625 -64.921875 L 34.5625 0 L 27.5625 0 L 13.421875 -40.3125 L 13.984375 -23.28125 L 13.984375 0 Z M 4.875 0 "/></g></g></g><g fill="#000000" fill-opacity="1"><g transform="translate(260.764737, 172.59347)"><g><path d="M 4.390625 -1 C 3.484375 -0.75 2.734375 -0.816406 2.140625 -1.203125 C 1.554688 -1.597656 1.09375 -2.171875 0.75 -2.921875 C 0.40625 -3.671875 0.0859375 -4.601562 -0.203125 -5.71875 L -2.046875 -12.59375 C -2.429688 -14.007812 -2.484375 -15.234375 -2.203125 -16.265625 C -1.921875 -17.304688 -1.1875 -17.984375 0 -18.296875 C 0.46875 -18.429688 0.921875 -18.4375 1.359375 -18.3125 C 1.804688 -18.1875 2.191406 -17.960938 2.515625 -17.640625 L 1.421875 -21.78125 L 4.40625 -22.578125 L 9.75 -2.609375 L 6.765625 -1.8125 L 6.34375 -3.375 C 6.195312 -2.09375 5.546875 -1.300781 4.390625 -1 Z M 2.90625 -6.125 C 3.144531 -5.195312 3.414062 -4.523438 3.71875 -4.109375 C 4.019531 -3.691406 4.410156 -3.546875 4.890625 -3.671875 C 5.378906 -3.804688 5.65625 -4.128906 5.71875 -4.640625 C 5.78125 -5.148438 5.671875 -5.941406 5.390625 -7.015625 L 3.578125 -13.78125 C 3.203125 -15.164062 2.765625 -15.945312 2.265625 -16.125 C 2.046875 -16.207031 1.8125 -16.210938 1.5625 -16.140625 C 1.050781 -16.003906 0.773438 -15.6875 0.734375 -15.1875 C 0.691406 -14.6875 0.796875 -13.976562 1.046875 -13.0625 Z M 2.90625 -6.125 "/></g></g></g><g fill="#000000" fill-opacity="1"><g transform="translate(271.989768, 169.585474)"><g><path d="M 4.875 -3.671875 C 5.34375 -3.796875 5.601562 -4.082031 5.65625 -4.53125 C 5.71875 -4.976562 5.640625 -5.613281 5.421875 -6.4375 L 3.40625 -13.96875 C 3.1875 -14.800781 2.929688 -15.398438 2.640625 -15.765625 C 2.359375 -16.140625 1.984375 -16.265625 1.515625 -16.140625 C 1.046875 -16.015625 0.78125 -15.722656 0.71875 -15.265625 C 0.65625 -14.816406 0.738281 -14.171875 0.96875 -13.328125 L 2.984375 -5.796875 C 3.316406 -4.554688 3.722656 -3.847656 4.203125 -3.671875 C 4.398438 -3.597656 4.625 -3.597656 4.875 -3.671875 Z M 5.515625 -1.265625 C 3.921875 -0.835938 2.6875 -1.015625 1.8125 -1.796875 C 0.945312 -2.585938 0.273438 -3.882812 -0.203125 -5.6875 L -1.890625 -12 C -2.859375 -15.601562 -1.9375 -17.78125 0.875 -18.53125 C 3.6875 -19.289062 5.578125 -17.867188 6.546875 -14.265625 L 8.234375 -7.953125 C 8.992188 -5.128906 8.734375 -3.207031 7.453125 -2.1875 C 6.960938 -1.78125 6.316406 -1.472656 5.515625 -1.265625 Z M 5.515625 -1.265625 "/></g></g></g><g fill="#000000" fill-opacity="1"><g transform="translate(282.899868, 166.661869)"><g><path d="M 4.59375 -1.109375 C 3.539062 -0.828125 2.78125 -0.835938 2.3125 -1.140625 C 1.84375 -1.453125 1.476562 -2.101562 1.21875 -3.09375 L -1.9375 -14.890625 L -3.3125 -14.515625 L -3.890625 -16.671875 L -2.515625 -17.046875 L -3.40625 -20.328125 L -0.421875 -21.125 L 0.46875 -17.84375 L 2.09375 -18.28125 L 2.671875 -16.125 L 1.046875 -15.6875 L 4.0625 -4.40625 C 4.164062 -4.007812 4.335938 -3.78125 4.578125 -3.71875 C 4.816406 -3.65625 5.289062 -3.722656 6 -3.921875 L 6.609375 -1.65625 Z M 4.59375 -1.109375 "/></g></g></g></svg>